<?xml version="1.0" encoding="UTF-8"?>
<!DOCTYPE svg PUBLIC "-//W3C//DTD SVG 1.1//EN" "http://www.w3.org/Graphics/SVG/1.1/DTD/svg11.dtd">
<svg xmlns="http://www.w3.org/2000/svg" version="1.1" width="1920px" height="1080px" style="shape-rendering:geometricPrecision; text-rendering:geometricPrecision; image-rendering:optimizeQuality; fill-rule:evenodd; clip-rule:evenodd" xmlns:xlink="http://www.w3.org/1999/xlink">
<g><path style="opacity:1" fill="#36342c" d="M 1908.5,-0.5 C 1911.5,-0.5 1914.5,-0.5 1917.5,-0.5C 1917.12,4.45264 1917.79,9.1193 1919.5,13.5C 1919.5,15.8333 1919.5,18.1667 1919.5,20.5C 1918.5,20.1667 1917.83,19.5 1917.5,18.5C 1916.01,14.8399 1914.67,11.1733 1913.5,7.5C 1912.95,5.44818 1911.95,5.11484 1910.5,6.5C 1909.17,7.5 1907.83,8.5 1906.5,9.5C 1904.83,9.5 1903.17,9.5 1901.5,9.5C 1901.5,9.16667 1901.5,8.83333 1901.5,8.5C 1905.24,8.79707 1907.91,7.29707 1909.5,4C 1909.16,2.97008 1908.5,2.47008 1907.5,2.5C 1907.56,1.39105 1907.89,0.391047 1908.5,-0.5 Z"/></g>
<g><path style="opacity:0.761" fill="#444238" d="M 1901.5,-0.5 C 1903.83,-0.5 1906.17,-0.5 1908.5,-0.5C 1907.89,0.391047 1907.56,1.39105 1907.5,2.5C 1904.63,3.25011 1902.63,4.91678 1901.5,7.5C 1901.79,4.62388 1901.79,1.95721 1901.5,-0.5 Z"/></g>
<g><path style="opacity:1" fill="#5c584b" d="M 1917.5,-0.5 C 1918.17,-0.5 1918.83,-0.5 1919.5,-0.5C 1919.5,4.16667 1919.5,8.83333 1919.5,13.5C 1917.79,9.1193 1917.12,4.45264 1917.5,-0.5 Z"/></g>
<g><path style="opacity:0.62" fill="#2b2923" d="M 1907.5,2.5 C 1908.5,2.47008 1909.16,2.97008 1909.5,4C 1907.91,7.29707 1905.24,8.79707 1901.5,8.5C 1901.5,8.16667 1901.5,7.83333 1901.5,7.5C 1902.63,4.91678 1904.63,3.25011 1907.5,2.5 Z"/></g>
<g><path style="opacity:1" fill="#625f50" d="M 1910.5,6.5 C 1912.39,8.98785 1913.05,11.9878 1912.5,15.5C 1910.45,15.5979 1908.78,14.9313 1907.5,13.5C 1905.9,13.6882 1904.56,13.1882 1903.5,12C 1904.94,11.6232 1905.94,10.7899 1906.5,9.5C 1907.83,8.5 1909.17,7.5 1910.5,6.5 Z"/></g>
<g><path style="opacity:1" fill="#757160" d="M 1907.5,13.5 C 1907.24,11.0876 1908.24,9.42091 1910.5,8.5C 1911.45,10.0453 1911.79,11.712 1911.5,13.5C 1910.17,13.5 1908.83,13.5 1907.5,13.5 Z"/></g>
<g><path style="opacity:0.022" fill="#696656" d="M 1900.5,-0.5 C 1900.83,-0.5 1901.17,-0.5 1901.5,-0.5C 1901.79,1.95721 1901.79,4.62388 1901.5,7.5C 1901.5,7.83333 1901.5,8.16667 1901.5,8.5C 1901.5,8.83333 1901.5,9.16667 1901.5,9.5C 1901.8,13.7905 1901.14,17.7905 1899.5,21.5C 1899.55,14.1507 1899.88,6.81736 1900.5,-0.5 Z"/></g>
<g><path style="opacity:1" fill="#444137" d="M 1913.5,7.5 C 1914.67,11.1733 1916.01,14.8399 1917.5,18.5C 1916.54,18.0472 1915.71,17.3805 1915,16.5C 1914.05,13.5682 1913.55,10.5682 1913.5,7.5 Z"/></g>
<g><path style="opacity:1" fill="#595548" d="M 1910.5,6.5 C 1911.95,5.11484 1912.95,5.44818 1913.5,7.5C 1913.55,10.5682 1914.05,13.5682 1915,16.5C 1915.71,17.3805 1916.54,18.0472 1917.5,18.5C 1917.83,19.5 1918.5,20.1667 1919.5,20.5C 1919.5,21.5 1919.5,22.5 1919.5,23.5C 1917.09,21.9493 1914.42,21.2826 1911.5,21.5C 1911.5,22.5 1911.5,23.5 1911.5,24.5C 1910.54,24.0472 1909.71,23.3805 1909,22.5C 1905.22,11.7778 1903.39,12.1111 1903.5,23.5C 1902.49,23.9377 1902.49,24.6043 1903.5,25.5C 1904.81,30.0238 1907.81,33.0238 1912.5,34.5C 1913.47,32.2573 1913.81,29.924 1913.5,27.5C 1915.95,37.5308 1913.29,39.0308 1905.5,32C 1903.7,30.1881 1902.03,28.3548 1900.5,26.5C 1900.63,24.7085 1900.3,23.0418 1899.5,21.5C 1901.14,17.7905 1901.8,13.7905 1901.5,9.5C 1903.17,9.5 1904.83,9.5 1906.5,9.5C 1905.94,10.7899 1904.94,11.6232 1903.5,12C 1904.56,13.1882 1905.9,13.6882 1907.5,13.5C 1908.78,14.9313 1910.45,15.5979 1912.5,15.5C 1913.05,11.9878 1912.39,8.98785 1910.5,6.5 Z"/></g>
<g><path style="opacity:1" fill="#4f4d41" d="M 1911.5,24.5 C 1911.43,26.0269 1912.09,27.0269 1913.5,27.5C 1913.81,29.924 1913.47,32.2573 1912.5,34.5C 1907.81,33.0238 1904.81,30.0238 1903.5,25.5C 1905.13,28.7969 1907.8,30.4636 1911.5,30.5C 1911.31,25.3035 1908.64,22.9701 1903.5,23.5C 1903.39,12.1111 1905.22,11.7778 1909,22.5C 1909.71,23.3805 1910.54,24.0472 1911.5,24.5 Z"/></g>
<g><path style="opacity:1" fill="#6e6b5a" d="M 1919.5,25.5 C 1919.5,27.8333 1919.5,30.1667 1919.5,32.5C 1918.42,33.5624 1917.42,33.5624 1916.5,32.5C 1915.83,29.8333 1915.17,27.1667 1914.5,24.5C 1916.19,23.7992 1917.86,24.1325 1919.5,25.5 Z"/></g>
<g><path style="opacity:1" fill="#454238" d="M 1903.5,23.5 C 1908.64,22.9701 1911.31,25.3035 1911.5,30.5C 1907.8,30.4636 1905.13,28.7969 1903.5,25.5C 1902.49,24.6043 1902.49,23.9377 1903.5,23.5 Z"/></g>
<g><path style="opacity:1" fill="#615e4f" d="M 1919.5,23.5 C 1919.5,24.1667 1919.5,24.8333 1919.5,25.5C 1917.86,24.1325 1916.19,23.7992 1914.5,24.5C 1915.17,27.1667 1915.83,29.8333 1916.5,32.5C 1917.42,33.5624 1918.42,33.5624 1919.5,32.5C 1919.5,38.1667 1919.5,43.8333 1919.5,49.5C 1917.86,51.0808 1915.86,51.7475 1913.5,51.5C 1914.23,50.2876 1915.23,49.2876 1916.5,48.5C 1913.91,47.52 1911.25,47.1866 1908.5,47.5C 1908.79,44.3508 1908.29,41.3508 1907,38.5C 1905.05,42.617 1903.89,46.9503 1903.5,51.5C 1902.45,48.1686 1902.45,44.6686 1903.5,41C 1902.07,36.2326 1901.07,31.3993 1900.5,26.5C 1902.03,28.3548 1903.7,30.1881 1905.5,32C 1913.29,39.0308 1915.95,37.5308 1913.5,27.5C 1912.09,27.0269 1911.43,26.0269 1911.5,24.5C 1911.5,23.5 1911.5,22.5 1911.5,21.5C 1914.42,21.2826 1917.09,21.9493 1919.5,23.5 Z"/></g>
<g><path style="opacity:1" fill="#5c594b" d="M 1913.5,51.5 C 1911.61,51.2965 1910.11,51.9632 1909,53.5C 1905.78,61.2182 1903.95,60.5515 1903.5,51.5C 1903.89,46.9503 1905.05,42.617 1907,38.5C 1908.29,41.3508 1908.79,44.3508 1908.5,47.5C 1911.25,47.1866 1913.91,47.52 1916.5,48.5C 1915.23,49.2876 1914.23,50.2876 1913.5,51.5 Z"/></g>
<g><path style="opacity:0.489" fill="#807c69" d="M 1896.5,45.5 C 1897.34,43.6208 1897.67,41.6208 1897.5,39.5C 1899.54,36.662 1901.04,36.9954 1902,40.5C 1901.86,42.8511 1901.36,45.1845 1900.5,47.5C 1898.36,47.4621 1897.03,46.7954 1896.5,45.5 Z"/></g>
<g><path style="opacity:0.853" fill="#716d5c" d="M 1899.5,21.5 C 1900.3,23.0418 1900.63,24.7085 1900.5,26.5C 1901.07,31.3993 1902.07,36.2326 1903.5,41C 1902.45,44.6686 1902.45,48.1686 1903.5,51.5C 1903.95,60.5515 1905.78,61.2182 1909,53.5C 1910.11,51.9632 1911.61,51.2965 1913.5,51.5C 1915.86,51.7475 1917.86,51.0808 1919.5,49.5C 1919.5,50.1667 1919.5,50.8333 1919.5,51.5C 1912.18,50.8168 1908.18,54.1502 1907.5,61.5C 1906.5,61.5 1905.5,61.5 1904.5,61.5C 1904.21,59.5767 1903.37,57.9101 1902,56.5C 1901.67,57.1667 1901.33,57.8333 1901,58.5C 1899.37,64.3383 1898.54,70.3383 1898.5,76.5C 1897.5,81.8333 1896.5,87.1667 1895.5,92.5C 1895.5,93.5 1895.5,94.5 1895.5,95.5C 1894.83,98.5 1894.17,101.5 1893.5,104.5C 1892.91,96.2547 1893.91,88.2547 1896.5,80.5C 1897.48,76.7016 1897.82,72.7016 1897.5,68.5C 1899.18,65.4484 1899.84,62.1151 1899.5,58.5C 1899.68,56.4086 1899.35,54.4086 1898.5,52.5C 1897.68,51.6143 1896.68,51.281 1895.5,51.5C 1895.33,49.3792 1895.66,47.3792 1896.5,45.5C 1897.03,46.7954 1898.36,47.4621 1900.5,47.5C 1901.36,45.1845 1901.86,42.8511 1902,40.5C 1901.04,36.9954 1899.54,36.662 1897.5,39.5C 1897.06,39.5654 1896.73,39.3988 1896.5,39C 1897.93,33.141 1898.93,27.3077 1899.5,21.5 Z"/></g>
<g><path style="opacity:0.019" fill="#686555" d="M 1895.5,51.5 C 1896.68,51.281 1897.68,51.6143 1898.5,52.5C 1899.35,54.4086 1899.68,56.4086 1899.5,58.5C 1898.68,56.6115 1897.84,54.6115 1897,52.5C 1896.77,56.826 1895.94,60.9927 1894.5,65C 1895.64,66.1451 1896.64,67.3117 1897.5,68.5C 1897.82,72.7016 1897.48,76.7016 1896.5,80.5C 1896.5,76.8333 1896.5,73.1667 1896.5,69.5C 1895.5,69.5 1894.5,69.5 1893.5,69.5C 1894,63.4791 1894.67,57.4791 1895.5,51.5 Z"/></g>
<g><path style="opacity:1" fill="#807c69" d="M 1919.5,51.5 C 1919.5,52.1667 1919.5,52.8333 1919.5,53.5C 1918.51,53.3284 1917.84,53.6618 1917.5,54.5C 1915.69,54.4914 1914.02,54.9914 1912.5,56C 1910.7,57.8119 1909.03,59.6452 1907.5,61.5C 1908.18,54.1502 1912.18,50.8168 1919.5,51.5 Z"/></g>
<g><path style="opacity:1" fill="#8a8671" d="M 1917.5,54.5 C 1916.01,55.8036 1914.35,56.9702 1912.5,58C 1911.36,59.9734 1910.03,61.8067 1908.5,63.5C 1906.86,64.6808 1905.2,64.6808 1903.5,63.5C 1902.7,63.9569 1902.37,64.6236 1902.5,65.5C 1902.5,66.1667 1902.17,66.5 1901.5,66.5C 1901.2,64.396 1901.53,62.396 1902.5,60.5C 1903.18,60.8627 1903.85,61.1961 1904.5,61.5C 1905.5,61.5 1906.5,61.5 1907.5,61.5C 1909.03,59.6452 1910.7,57.8119 1912.5,56C 1914.02,54.9914 1915.69,54.4914 1917.5,54.5 Z"/></g>
<g><path style="opacity:1" fill="#95907a" d="M 1919.5,53.5 C 1919.5,53.8333 1919.5,54.1667 1919.5,54.5C 1917.86,56.3162 1916.36,58.3162 1915,60.5C 1912.83,61.4881 1911,62.8214 1909.5,64.5C 1909.16,65.3382 1908.49,65.6716 1907.5,65.5C 1905.83,65.5 1904.17,65.5 1902.5,65.5C 1902.37,64.6236 1902.7,63.9569 1903.5,63.5C 1905.2,64.6808 1906.86,64.6808 1908.5,63.5C 1910.03,61.8067 1911.36,59.9734 1912.5,58C 1914.35,56.9702 1916.01,55.8036 1917.5,54.5C 1917.84,53.6618 1918.51,53.3284 1919.5,53.5 Z"/></g>
<g><path style="opacity:1" fill="#a09a82" d="M 1919.5,54.5 C 1919.5,57.5 1919.5,60.5 1919.5,63.5C 1916.1,63.3424 1912.76,63.6758 1909.5,64.5C 1911,62.8214 1912.83,61.4881 1915,60.5C 1916.36,58.3162 1917.86,56.3162 1919.5,54.5 Z"/></g>
<g><path style="opacity:0.353" fill="#565346" d="M 1899.5,58.5 C 1899.84,62.1151 1899.18,65.4484 1897.5,68.5C 1896.64,67.3117 1895.64,66.1451 1894.5,65C 1895.94,60.9927 1896.77,56.826 1897,52.5C 1897.84,54.6115 1898.68,56.6115 1899.5,58.5 Z"/></g>
<g><path style="opacity:1" fill="#807b68" d="M 1904.5,61.5 C 1903.85,61.1961 1903.18,60.8627 1902.5,60.5C 1901.53,62.396 1901.2,64.396 1901.5,66.5C 1899.77,68.8201 1899.11,71.4867 1899.5,74.5C 1899.5,75.1667 1899.5,75.8333 1899.5,76.5C 1899.17,76.5 1898.83,76.5 1898.5,76.5C 1898.54,70.3383 1899.37,64.3383 1901,58.5C 1901.33,57.8333 1901.67,57.1667 1902,56.5C 1903.37,57.9101 1904.21,59.5767 1904.5,61.5 Z"/></g>
<g><path style="opacity:1" fill="#a9a38a" d="M 1902.5,65.5 C 1904.17,65.5 1905.83,65.5 1907.5,65.5C 1905.58,66.0652 1903.91,67.0652 1902.5,68.5C 1901.83,68.5 1901.5,68.8333 1901.5,69.5C 1900.83,71.1667 1900.17,72.8333 1899.5,74.5C 1899.11,71.4867 1899.77,68.8201 1901.5,66.5C 1902.17,66.5 1902.5,66.1667 1902.5,65.5 Z"/></g>
<g><path style="opacity:1" fill="#c0b99d" d="M 1919.5,63.5 C 1919.5,63.8333 1919.5,64.1667 1919.5,64.5C 1913.78,65.5216 1908.11,66.855 1902.5,68.5C 1903.91,67.0652 1905.58,66.0652 1907.5,65.5C 1908.49,65.6716 1909.16,65.3382 1909.5,64.5C 1912.76,63.6758 1916.1,63.3424 1919.5,63.5 Z"/></g>
<g><path style="opacity:1" fill="#e2dab9" d="M 1919.5,64.5 C 1919.5,78.1667 1919.5,91.8333 1919.5,105.5C 1918.17,105.5 1916.83,105.5 1915.5,105.5C 1912.81,105.336 1910.15,105.503 1907.5,106C 1904.98,108.239 1901.98,109.406 1898.5,109.5C 1897.92,105.19 1897.59,100.857 1897.5,96.5C 1897.5,94.5 1897.5,92.5 1897.5,90.5C 1899.13,88.9739 1899.96,86.9739 1900,84.5C 1901.05,79.5518 1901.55,74.5518 1901.5,69.5C 1901.5,68.8333 1901.83,68.5 1902.5,68.5C 1908.11,66.855 1913.78,65.5216 1919.5,64.5 Z"/></g>
<g><path style="opacity:0.008" fill="#6c6858" d="M 1893.5,73.5 C 1892.58,81.1811 1891.58,88.8477 1890.5,96.5C 1890.67,97.4916 1890.34,98.1583 1889.5,98.5C 1890.15,90.8205 1890.98,83.1539 1892,75.5C 1892.28,74.5842 1892.78,73.9175 1893.5,73.5 Z"/></g>
<g><path style="opacity:1" fill="#cfc8a9" d="M 1901.5,69.5 C 1901.55,74.5518 1901.05,79.5518 1900,84.5C 1899.96,86.9739 1899.13,88.9739 1897.5,90.5C 1897.5,89.8333 1897.5,89.1667 1897.5,88.5C 1899,84.6699 1899.67,80.6699 1899.5,76.5C 1899.5,75.8333 1899.5,75.1667 1899.5,74.5C 1900.17,72.8333 1900.83,71.1667 1901.5,69.5 Z"/></g>
<g><path style="opacity:0.165" fill="#4f4c41" d="M 1893.5,69.5 C 1894.5,69.5 1895.5,69.5 1896.5,69.5C 1896.5,73.1667 1896.5,76.8333 1896.5,80.5C 1893.91,88.2547 1892.91,96.2547 1893.5,104.5C 1893.5,105.167 1893.5,105.833 1893.5,106.5C 1892.83,111.167 1892.17,115.833 1891.5,120.5C 1891.35,114.141 1891.68,107.808 1892.5,101.5C 1892.33,100.167 1892.17,98.8333 1892,97.5C 1891.62,96.944 1891.12,96.6107 1890.5,96.5C 1891.58,88.8477 1892.58,81.1811 1893.5,73.5C 1893.5,72.1667 1893.5,70.8333 1893.5,69.5 Z"/></g>
<g><path style="opacity:1" fill="#a19b83" d="M 1898.5,76.5 C 1898.83,76.5 1899.17,76.5 1899.5,76.5C 1899.67,80.6699 1899,84.6699 1897.5,88.5C 1896.83,89.8333 1896.17,91.1667 1895.5,92.5C 1896.5,87.1667 1897.5,81.8333 1898.5,76.5 Z"/></g>
<g><path style="opacity:1" fill="#b9b397" d="M 1897.5,88.5 C 1897.5,89.1667 1897.5,89.8333 1897.5,90.5C 1897.5,92.5 1897.5,94.5 1897.5,96.5C 1896.55,97.9187 1896.22,99.5853 1896.5,101.5C 1896.17,101.5 1895.83,101.5 1895.5,101.5C 1895.5,99.5 1895.5,97.5 1895.5,95.5C 1895.5,94.5 1895.5,93.5 1895.5,92.5C 1896.17,91.1667 1896.83,89.8333 1897.5,88.5 Z"/></g>
<g><path style="opacity:0.004" fill="#726e5d" d="M 1889.5,100.5 C 1889.5,102.167 1889.5,103.833 1889.5,105.5C 1888.83,107.5 1888.17,109.5 1887.5,111.5C 1887.12,107.511 1887.78,103.845 1889.5,100.5 Z"/></g>
<g><path style="opacity:1" fill="#d6cfaf" d="M 1897.5,96.5 C 1897.59,100.857 1897.92,105.19 1898.5,109.5C 1901.98,109.406 1904.98,108.239 1907.5,106C 1910.15,105.503 1912.81,105.336 1915.5,105.5C 1915.05,106.458 1914.38,107.292 1913.5,108C 1907.53,107.014 1903.53,109.181 1901.5,114.5C 1901.5,114.833 1901.5,115.167 1901.5,115.5C 1899.96,115.703 1898.62,116.37 1897.5,117.5C 1896.51,112.208 1896.17,106.875 1896.5,101.5C 1896.22,99.5853 1896.55,97.9187 1897.5,96.5 Z"/></g>
<g><path style="opacity:1" fill="#88836f" d="M 1907.5,111.5 C 1908.95,110.387 1910.61,110.22 1912.5,111C 1913.8,112.579 1913.47,113.745 1911.5,114.5C 1911.5,113.5 1911.5,112.5 1911.5,111.5C 1910.17,111.5 1908.83,111.5 1907.5,111.5 Z"/></g>
<g><path style="opacity:1" fill="#a19c84" d="M 1915.5,108.5 C 1915.5,109.5 1915.5,110.5 1915.5,111.5C 1916.83,111.5 1918.17,111.5 1919.5,111.5C 1919.5,111.833 1919.5,112.167 1919.5,112.5C 1916.68,112.087 1914.68,113.087 1913.5,115.5C 1912.5,115.5 1911.5,115.5 1910.5,115.5C 1910.5,115.167 1910.5,114.833 1910.5,114.5C 1910.83,114.5 1911.17,114.5 1911.5,114.5C 1913.47,113.745 1913.8,112.579 1912.5,111C 1910.61,110.22 1908.95,110.387 1907.5,111.5C 1907.17,111.5 1906.83,111.5 1906.5,111.5C 1906.17,111.5 1905.83,111.5 1905.5,111.5C 1905.61,110.883 1905.94,110.383 1906.5,110C 1909.59,109.741 1912.59,109.241 1915.5,108.5 Z"/></g>
<g><path style="opacity:1" fill="#8e8974" d="M 1919.5,107.5 C 1919.5,108.833 1919.5,110.167 1919.5,111.5C 1918.17,111.5 1916.83,111.5 1915.5,111.5C 1915.5,110.5 1915.5,109.5 1915.5,108.5C 1916.57,107.566 1917.9,107.232 1919.5,107.5 Z"/></g>
<g><path style="opacity:0.976" fill="#646152" d="M 1893.5,106.5 C 1893.5,110.833 1893.5,115.167 1893.5,119.5C 1893.5,120.167 1893.5,120.833 1893.5,121.5C 1892.5,124.005 1892.5,126.672 1893.5,129.5C 1892.83,129.5 1892.17,129.5 1891.5,129.5C 1891.5,126.5 1891.5,123.5 1891.5,120.5C 1892.17,115.833 1892.83,111.167 1893.5,106.5 Z"/></g>
<g><path style="opacity:1" fill="#8a8671" d="M 1895.5,95.5 C 1895.5,97.5 1895.5,99.5 1895.5,101.5C 1895.5,103.5 1895.5,105.5 1895.5,107.5C 1894.52,111.298 1894.18,115.298 1894.5,119.5C 1894.17,119.5 1893.83,119.5 1893.5,119.5C 1893.5,115.167 1893.5,110.833 1893.5,106.5C 1893.5,105.833 1893.5,105.167 1893.5,104.5C 1894.17,101.5 1894.83,98.5 1895.5,95.5 Z"/></g>
<g><path style="opacity:1" fill="#686555" d="M 1906.5,111.5 C 1906.83,111.5 1907.17,111.5 1907.5,111.5C 1908.83,111.5 1910.17,111.5 1911.5,111.5C 1911.5,112.5 1911.5,113.5 1911.5,114.5C 1911.17,114.5 1910.83,114.5 1910.5,114.5C 1908.71,114.785 1907.05,114.452 1905.5,113.5C 1905.86,112.817 1906.2,112.15 1906.5,111.5 Z"/></g>
<g><path style="opacity:1" fill="#beb79b" d="M 1915.5,105.5 C 1916.83,105.5 1918.17,105.5 1919.5,105.5C 1919.5,106.167 1919.5,106.833 1919.5,107.5C 1917.9,107.232 1916.57,107.566 1915.5,108.5C 1912.59,109.241 1909.59,109.741 1906.5,110C 1905.94,110.383 1905.61,110.883 1905.5,111.5C 1904.83,111.5 1904.5,111.833 1904.5,112.5C 1903.22,112.782 1902.22,113.449 1901.5,114.5C 1903.53,109.181 1907.53,107.014 1913.5,108C 1914.38,107.292 1915.05,106.458 1915.5,105.5 Z"/></g>
<g><path style="opacity:0.14" fill="#525043" d="M 1889.5,105.5 C 1890.08,109.649 1889.41,113.316 1887.5,116.5C 1888.07,114.64 1888.07,112.973 1887.5,111.5C 1888.17,109.5 1888.83,107.5 1889.5,105.5 Z"/></g>
<g><path style="opacity:1" fill="#84806c" d="M 1905.5,111.5 C 1905.83,111.5 1906.17,111.5 1906.5,111.5C 1906.2,112.15 1905.86,112.817 1905.5,113.5C 1907.05,114.452 1908.71,114.785 1910.5,114.5C 1910.5,114.833 1910.5,115.167 1910.5,115.5C 1910.17,115.5 1909.83,115.5 1909.5,115.5C 1907.83,115.5 1906.17,115.5 1904.5,115.5C 1904.5,114.5 1904.5,113.5 1904.5,112.5C 1904.5,111.833 1904.83,111.5 1905.5,111.5 Z"/></g>
<g><path style="opacity:1" fill="#c3bc9f" d="M 1895.5,101.5 C 1895.83,101.5 1896.17,101.5 1896.5,101.5C 1896.17,106.875 1896.51,112.208 1897.5,117.5C 1898.62,116.37 1899.96,115.703 1901.5,115.5C 1899.75,117.246 1898.42,119.246 1897.5,121.5C 1895.56,117.285 1894.9,112.619 1895.5,107.5C 1895.5,105.5 1895.5,103.5 1895.5,101.5 Z"/></g>
<g><path style="opacity:1" fill="#c0b99d" d="M 1919.5,112.5 C 1919.5,117.833 1919.5,123.167 1919.5,128.5C 1917.71,128.029 1915.88,127.696 1914,127.5C 1911.99,127.307 1910.49,127.974 1909.5,129.5C 1909.17,130.167 1908.83,130.833 1908.5,131.5C 1908.17,131.5 1907.83,131.5 1907.5,131.5C 1906.83,131.5 1906.17,131.5 1905.5,131.5C 1903.83,131.5 1902.17,131.5 1900.5,131.5C 1901.24,126.871 1902.74,122.538 1905,118.5C 1908.02,117.806 1910.86,116.806 1913.5,115.5C 1914.68,113.087 1916.68,112.087 1919.5,112.5 Z"/></g>
<g><path style="opacity:0.188" fill="#3e3c32" d="M 1890.5,96.5 C 1891.12,96.6107 1891.62,96.944 1892,97.5C 1892.17,98.8333 1892.33,100.167 1892.5,101.5C 1891.68,107.808 1891.35,114.141 1891.5,120.5C 1891.5,123.5 1891.5,126.5 1891.5,129.5C 1889.83,129.5 1888.17,129.5 1886.5,129.5C 1886.37,125.119 1886.71,120.785 1887.5,116.5C 1889.41,113.316 1890.08,109.649 1889.5,105.5C 1889.5,103.833 1889.5,102.167 1889.5,100.5C 1889.5,99.8333 1889.5,99.1667 1889.5,98.5C 1890.34,98.1583 1890.67,97.4916 1890.5,96.5 Z"/></g>
<g><path style="opacity:1" fill="#aba58b" d="M 1904.5,112.5 C 1904.5,113.5 1904.5,114.5 1904.5,115.5C 1906.17,115.5 1907.83,115.5 1909.5,115.5C 1908.05,116.302 1906.38,116.802 1904.5,117C 1902.88,119.095 1901.54,121.261 1900.5,123.5C 1901.04,119.36 1900.04,118.693 1897.5,121.5C 1898.42,119.246 1899.75,117.246 1901.5,115.5C 1901.5,115.167 1901.5,114.833 1901.5,114.5C 1902.22,113.449 1903.22,112.782 1904.5,112.5 Z"/></g>
<g><path style="opacity:0.49" fill="#33312a" d="M 1888.5,118.5 C 1889.12,118.611 1889.62,118.944 1890,119.5C 1890.5,122.482 1890.66,125.482 1890.5,128.5C 1889.5,128.5 1888.5,128.5 1887.5,128.5C 1887.62,125.14 1887.95,121.807 1888.5,118.5 Z"/></g>
<g><path style="opacity:1" fill="#aca68c" d="M 1895.5,107.5 C 1894.9,112.619 1895.56,117.285 1897.5,121.5C 1895.32,125.192 1894.32,124.525 1894.5,119.5C 1894.18,115.298 1894.52,111.298 1895.5,107.5 Z"/></g>
<g><path style="opacity:1" fill="#9e9981" d="M 1893.5,119.5 C 1893.83,119.5 1894.17,119.5 1894.5,119.5C 1894.32,124.525 1895.32,125.192 1897.5,121.5C 1900.04,118.693 1901.04,119.36 1900.5,123.5C 1900.07,128.338 1897.4,131.004 1892.5,131.5C 1892.83,130.833 1893.17,130.167 1893.5,129.5C 1896.5,129.833 1897.83,128.5 1897.5,125.5C 1896.17,125.5 1894.83,125.5 1893.5,125.5C 1893.5,124.167 1893.5,122.833 1893.5,121.5C 1893.5,120.833 1893.5,120.167 1893.5,119.5 Z"/></g>
<g><path style="opacity:1" fill="#8a8571" d="M 1893.5,121.5 C 1893.5,122.833 1893.5,124.167 1893.5,125.5C 1894.83,125.5 1896.17,125.5 1897.5,125.5C 1897.83,128.5 1896.5,129.833 1893.5,129.5C 1892.5,126.672 1892.5,124.005 1893.5,121.5 Z"/></g>
<g><path style="opacity:0.023" fill="#686455" d="M 1887.5,111.5 C 1888.07,112.973 1888.07,114.64 1887.5,116.5C 1886.71,120.785 1886.37,125.119 1886.5,129.5C 1884.66,133.884 1885.66,137.551 1889.5,140.5C 1889.5,141.167 1889.5,141.833 1889.5,142.5C 1885.43,140.013 1883.76,136.347 1884.5,131.5C 1884.86,124.598 1885.86,117.931 1887.5,111.5 Z"/></g>
<g><path style="opacity:1" fill="#a9a38a" d="M 1919.5,128.5 C 1919.5,129.833 1919.5,131.167 1919.5,132.5C 1917.1,132.448 1914.76,132.781 1912.5,133.5C 1914.28,132.33 1915.28,130.664 1915.5,128.5C 1913.44,128.517 1911.44,128.85 1909.5,129.5C 1910.49,127.974 1911.99,127.307 1914,127.5C 1915.88,127.696 1917.71,128.029 1919.5,128.5 Z"/></g>
<g><path style="opacity:0.366" fill="#535044" d="M 1886.5,129.5 C 1888.17,129.5 1889.83,129.5 1891.5,129.5C 1890.64,130.531 1889.98,131.697 1889.5,133C 1890.65,134.981 1891.98,136.814 1893.5,138.5C 1892.42,138.461 1891.42,138.127 1890.5,137.5C 1889.61,138.325 1889.28,139.325 1889.5,140.5C 1885.66,137.551 1884.66,133.884 1886.5,129.5 Z"/></g>
<g><path style="opacity:1" fill="#b9b297" d="M 1909.5,115.5 C 1909.83,115.5 1910.17,115.5 1910.5,115.5C 1911.5,115.5 1912.5,115.5 1913.5,115.5C 1910.86,116.806 1908.02,117.806 1905,118.5C 1902.74,122.538 1901.24,126.871 1900.5,131.5C 1902.17,131.5 1903.83,131.5 1905.5,131.5C 1903.5,132.833 1901.5,134.167 1899.5,135.5C 1897.71,136.622 1895.71,136.789 1893.5,136C 1891.53,134.653 1891.2,133.153 1892.5,131.5C 1897.4,131.004 1900.07,128.338 1900.5,123.5C 1901.54,121.261 1902.88,119.095 1904.5,117C 1906.38,116.802 1908.05,116.302 1909.5,115.5 Z"/></g>
<g><path style="opacity:1" fill="#8c8773" d="M 1912.5,133.5 C 1912.17,133.5 1911.83,133.5 1911.5,133.5C 1911.18,131.952 1910.18,131.285 1908.5,131.5C 1908.83,130.833 1909.17,130.167 1909.5,129.5C 1911.44,128.85 1913.44,128.517 1915.5,128.5C 1915.28,130.664 1914.28,132.33 1912.5,133.5 Z"/></g>
<g><path style="opacity:1" fill="#c1ba9d" d="M 1919.5,132.5 C 1919.5,143.5 1919.5,154.5 1919.5,165.5C 1919.17,165.5 1918.83,165.5 1918.5,165.5C 1918.44,164.391 1918.11,163.391 1917.5,162.5C 1917.13,159.733 1915.8,157.733 1913.5,156.5C 1913.3,154.315 1912.63,152.315 1911.5,150.5C 1909.84,147.167 1907.17,145.5 1903.5,145.5C 1902.83,145.5 1902.17,145.5 1901.5,145.5C 1901.17,144.833 1900.83,144.167 1900.5,143.5C 1900.51,141.983 1901.18,140.816 1902.5,140C 1906.76,139.051 1910.09,136.885 1912.5,133.5C 1914.76,132.781 1917.1,132.448 1919.5,132.5 Z"/></g>
<g><path style="opacity:1" fill="#807c69" d="M 1891.5,129.5 C 1892.17,129.5 1892.83,129.5 1893.5,129.5C 1893.17,130.167 1892.83,130.833 1892.5,131.5C 1891.2,133.153 1891.53,134.653 1893.5,136C 1895.71,136.789 1897.71,136.622 1899.5,135.5C 1903.08,135.708 1905.75,134.375 1907.5,131.5C 1907.83,131.5 1908.17,131.5 1908.5,131.5C 1910.18,131.285 1911.18,131.952 1911.5,133.5C 1907.99,135.754 1904.33,137.754 1900.5,139.5C 1899.39,139.557 1898.39,139.89 1897.5,140.5C 1897.5,139.167 1896.83,138.5 1895.5,138.5C 1894.83,138.5 1894.17,138.5 1893.5,138.5C 1891.98,136.814 1890.65,134.981 1889.5,133C 1889.98,131.697 1890.64,130.531 1891.5,129.5 Z"/></g>
<g><path style="opacity:1" fill="#908b75" d="M 1905.5,131.5 C 1906.17,131.5 1906.83,131.5 1907.5,131.5C 1905.75,134.375 1903.08,135.708 1899.5,135.5C 1901.5,134.167 1903.5,132.833 1905.5,131.5 Z"/></g>
<g><path style="opacity:0.576" fill="#413f35" d="M 1893.5,138.5 C 1894.17,138.5 1894.83,138.5 1895.5,138.5C 1895.5,138.833 1895.5,139.167 1895.5,139.5C 1896.13,143.491 1894.79,144.824 1891.5,143.5C 1890.83,143.167 1890.17,142.833 1889.5,142.5C 1889.5,141.833 1889.5,141.167 1889.5,140.5C 1889.28,139.325 1889.61,138.325 1890.5,137.5C 1891.42,138.127 1892.42,138.461 1893.5,138.5 Z"/></g>
<g><path style="opacity:1" fill="#b1ab90" d="M 1911.5,133.5 C 1911.83,133.5 1912.17,133.5 1912.5,133.5C 1910.09,136.885 1906.76,139.051 1902.5,140C 1901.18,140.816 1900.51,141.983 1900.5,143.5C 1899.31,142.295 1899.31,140.961 1900.5,139.5C 1904.33,137.754 1907.99,135.754 1911.5,133.5 Z"/></g>
<g><path style="opacity:0.62" fill="#2e2c26" d="M 1890.5,140.5 C 1891.71,139.218 1893.04,139.218 1894.5,140.5C 1893.19,141.626 1891.86,141.626 1890.5,140.5 Z"/></g>
<g><path style="opacity:1" fill="#9c977f" d="M 1900.5,139.5 C 1899.31,140.961 1899.31,142.295 1900.5,143.5C 1900.83,144.167 1901.17,144.833 1901.5,145.5C 1900.83,145.5 1900.17,145.5 1899.5,145.5C 1898.06,144.18 1897.39,142.514 1897.5,140.5C 1898.39,139.89 1899.39,139.557 1900.5,139.5 Z"/></g>
<g><path style="opacity:0.973" fill="#706c5b" d="M 1895.5,139.5 C 1895.5,139.167 1895.5,138.833 1895.5,138.5C 1896.83,138.5 1897.5,139.167 1897.5,140.5C 1897.39,142.514 1898.06,144.18 1899.5,145.5C 1898.5,145.586 1897.67,145.252 1897,144.5C 1896.8,142.618 1896.3,140.952 1895.5,139.5 Z"/></g>
<g><path style="opacity:0.54" fill="#575447" d="M 1895.5,139.5 C 1896.3,140.952 1896.8,142.618 1897,144.5C 1897.67,145.252 1898.5,145.586 1899.5,145.5C 1900.17,145.5 1900.83,145.5 1901.5,145.5C 1901.83,146.167 1902.17,146.833 1902.5,147.5C 1900.22,146.61 1897.88,146.444 1895.5,147C 1896.25,147.671 1896.59,148.504 1896.5,149.5C 1895.5,148.833 1894.5,148.167 1893.5,147.5C 1893.27,145.938 1892.6,144.605 1891.5,143.5C 1894.79,144.824 1896.13,143.491 1895.5,139.5 Z"/></g>
<g><path style="opacity:0.008" fill="#6c6858" d="M 1889.5,142.5 C 1890.17,142.833 1890.83,143.167 1891.5,143.5C 1892.6,144.605 1893.27,145.938 1893.5,147.5C 1891.41,146.415 1890.08,144.749 1889.5,142.5 Z"/></g>
<g><path style="opacity:1" fill="#8a8571" d="M 1901.5,145.5 C 1902.17,145.5 1902.83,145.5 1903.5,145.5C 1903.83,146.167 1904.17,146.833 1904.5,147.5C 1904.17,147.5 1903.83,147.5 1903.5,147.5C 1903.17,147.5 1902.83,147.5 1902.5,147.5C 1902.17,146.833 1901.83,146.167 1901.5,145.5 Z"/></g>
<g><path style="opacity:1" fill="#6c6858" d="M 1903.5,148.5 C 1903.5,148.167 1903.5,147.833 1903.5,147.5C 1903.83,147.5 1904.17,147.5 1904.5,147.5C 1904.83,147.5 1905.17,147.5 1905.5,147.5C 1905.83,148.167 1906.17,148.833 1906.5,149.5C 1905.39,149.443 1904.39,149.11 1903.5,148.5 Z"/></g>
<g><path style="opacity:1" fill="#b3ad92" d="M 1903.5,145.5 C 1907.17,145.5 1909.84,147.167 1911.5,150.5C 1909.5,149.5 1907.5,148.5 1905.5,147.5C 1905.17,147.5 1904.83,147.5 1904.5,147.5C 1904.17,146.833 1903.83,146.167 1903.5,145.5 Z"/></g>
<g><path style="opacity:0.576" fill="#454238" d="M 1902.5,147.5 C 1902.83,147.5 1903.17,147.5 1903.5,147.5C 1903.5,147.833 1903.5,148.167 1903.5,148.5C 1902.21,148.263 1901.21,148.596 1900.5,149.5C 1899.17,149.5 1897.83,149.5 1896.5,149.5C 1896.59,148.504 1896.25,147.671 1895.5,147C 1897.88,146.444 1900.22,146.61 1902.5,147.5 Z"/></g>
<g><path style="opacity:0.989" fill="#33312a" d="M 1903.5,148.5 C 1904.39,149.11 1905.39,149.443 1906.5,149.5C 1907.5,151.5 1908.5,153.5 1909.5,155.5C 1908.21,154.71 1907.04,153.71 1906,152.5C 1905.52,153.448 1905.35,154.448 1905.5,155.5C 1904.83,155.167 1904.17,154.833 1903.5,154.5C 1903.28,152.336 1902.28,150.67 1900.5,149.5C 1901.21,148.596 1902.21,148.263 1903.5,148.5 Z"/></g>
<g><path style="opacity:1" fill="#646052" d="M 1906.5,149.5 C 1909.51,151.21 1911.84,153.543 1913.5,156.5C 1914.44,158.05 1915.11,159.716 1915.5,161.5C 1913.73,160.63 1912.39,159.297 1911.5,157.5C 1910.83,156.833 1910.17,156.167 1909.5,155.5C 1908.5,153.5 1907.5,151.5 1906.5,149.5 Z"/></g>
<g><path style="opacity:1" fill="#9f9982" d="M 1905.5,147.5 C 1907.5,148.5 1909.5,149.5 1911.5,150.5C 1912.63,152.315 1913.3,154.315 1913.5,156.5C 1911.84,153.543 1909.51,151.21 1906.5,149.5C 1906.17,148.833 1905.83,148.167 1905.5,147.5 Z"/></g>
<g><path style="opacity:0.467" fill="#545145" d="M 1896.5,149.5 C 1897.83,149.5 1899.17,149.5 1900.5,149.5C 1902.28,150.67 1903.28,152.336 1903.5,154.5C 1901.18,152.858 1898.85,151.192 1896.5,149.5 Z"/></g>
<g><path style="opacity:0.149" fill="#74715f" d="M 1893.5,147.5 C 1894.5,148.167 1895.5,148.833 1896.5,149.5C 1898.85,151.192 1901.18,152.858 1903.5,154.5C 1903.88,156.258 1904.54,157.925 1905.5,159.5C 1904.8,159.787 1904.13,160.12 1903.5,160.5C 1899.93,156.356 1896.59,152.022 1893.5,147.5 Z"/></g>
<g><path style="opacity:1" fill="#a39d85" d="M 1913.5,156.5 C 1915.8,157.733 1917.13,159.733 1917.5,162.5C 1916.83,162.167 1916.17,161.833 1915.5,161.5C 1915.11,159.716 1914.44,158.05 1913.5,156.5 Z"/></g>
<g><path style="opacity:0.992" fill="#282720" d="M 1909.5,155.5 C 1910.17,156.167 1910.83,156.833 1911.5,157.5C 1911.72,158.675 1911.39,159.675 1910.5,160.5C 1908.79,158.785 1907.12,157.119 1905.5,155.5C 1905.35,154.448 1905.52,153.448 1906,152.5C 1907.04,153.71 1908.21,154.71 1909.5,155.5 Z"/></g>
<g><path style="opacity:0.145" fill="#5c594b" d="M 1903.5,154.5 C 1904.17,154.833 1904.83,155.167 1905.5,155.5C 1907.82,159.126 1909.15,163.126 1909.5,167.5C 1908.5,167.167 1907.83,166.5 1907.5,165.5C 1907.85,162.506 1906.85,161.506 1904.5,162.5C 1904.17,161.833 1903.83,161.167 1903.5,160.5C 1904.13,160.12 1904.8,159.787 1905.5,159.5C 1904.54,157.925 1903.88,156.258 1903.5,154.5 Z"/></g>
<g><path style="opacity:0.929" fill="#333129" d="M 1905.5,155.5 C 1907.12,157.119 1908.79,158.785 1910.5,160.5C 1911.39,159.675 1911.72,158.675 1911.5,157.5C 1912.39,159.297 1913.73,160.63 1915.5,161.5C 1915.5,162.167 1915.5,162.833 1915.5,163.5C 1916.2,166.44 1917.2,169.273 1918.5,172C 1916.8,172.384 1915.14,172.218 1913.5,171.5C 1913.17,169.167 1911.83,167.833 1909.5,167.5C 1909.15,163.126 1907.82,159.126 1905.5,155.5 Z"/></g>
<g><path style="opacity:0.016" fill="#757160" d="M 1907.5,165.5 C 1906.17,164.833 1905.17,163.833 1904.5,162.5C 1906.85,161.506 1907.85,162.506 1907.5,165.5 Z"/></g>
<g><path style="opacity:1" fill="#7c7865" d="M 1915.5,161.5 C 1916.17,161.833 1916.83,162.167 1917.5,162.5C 1918.11,163.391 1918.44,164.391 1918.5,165.5C 1917.5,164.833 1916.5,164.167 1915.5,163.5C 1915.5,162.833 1915.5,162.167 1915.5,161.5 Z"/></g>
<g><path style="opacity:0.027" fill="#656253" d="M 1909.5,167.5 C 1911.83,167.833 1913.17,169.167 1913.5,171.5C 1914.6,172.605 1915.27,173.938 1915.5,175.5C 1913.02,173.2 1911.02,170.533 1909.5,167.5 Z"/></g>
<g><path style="opacity:0.914" fill="#444238" d="M 1915.5,163.5 C 1916.5,164.167 1917.5,164.833 1918.5,165.5C 1918.83,165.5 1919.17,165.5 1919.5,165.5C 1919.5,169.833 1919.5,174.167 1919.5,178.5C 1918.83,178.167 1918.17,177.833 1917.5,177.5C 1917.5,176.167 1916.83,175.5 1915.5,175.5C 1915.27,173.938 1914.6,172.605 1913.5,171.5C 1915.14,172.218 1916.8,172.384 1918.5,172C 1917.2,169.273 1916.2,166.44 1915.5,163.5 Z"/></g>
<g><path style="opacity:0.016" fill="#686556" d="M 1915.5,175.5 C 1916.83,175.5 1917.5,176.167 1917.5,177.5C 1916.17,177.5 1915.5,176.833 1915.5,175.5 Z"/></g>
<g><path style="opacity:0.008" fill="#696556" d="M 1917.5,177.5 C 1918.17,177.833 1918.83,178.167 1919.5,178.5C 1919.5,179.167 1919.5,179.833 1919.5,180.5C 1918.09,180.027 1917.43,179.027 1917.5,177.5 Z"/></g>
</svg>
