<?xml version="1.0" encoding="UTF-8"?>
<!DOCTYPE svg PUBLIC "-//W3C//DTD SVG 1.1//EN" "http://www.w3.org/Graphics/SVG/1.1/DTD/svg11.dtd">
<svg xmlns="http://www.w3.org/2000/svg" version="1.1" width="1920px" height="1080px" style="shape-rendering:geometricPrecision; text-rendering:geometricPrecision; image-rendering:optimizeQuality; fill-rule:evenodd; clip-rule:evenodd" xmlns:xlink="http://www.w3.org/1999/xlink">
<g><path style="opacity:0.999" fill="#e5ddbb" d="M -0.5,-0.5 C 639.5,-0.5 1279.5,-0.5 1919.5,-0.5C 1919.5,359.5 1919.5,719.5 1919.5,1079.5C 1279.5,1079.5 639.5,1079.5 -0.5,1079.5C -0.5,719.5 -0.5,359.5 -0.5,-0.5 Z"/></g>
<g><path style="opacity:0.948" fill="#d3ccac" d="M 601.5,85.5 C 601.586,86.4959 601.252,87.3292 600.5,88C 597.518,88.498 594.518,88.6646 591.5,88.5C 591.923,91.647 592.256,94.8136 592.5,98C 592.695,100.793 592.029,103.293 590.5,105.5C 589.267,101.667 589.267,97.8335 590.5,94C 590.26,89.5936 587.927,87.427 583.5,87.5C 582.787,85.2241 582.287,82.8907 582,80.5C 581.292,79.6195 580.458,78.9528 579.5,78.5C 578.522,78.189 577.855,77.5223 577.5,76.5C 578.736,75.6433 580.069,74.9766 581.5,74.5C 582.893,77.8784 584.893,81.3784 587.5,85C 592.155,85.4992 596.821,85.6658 601.5,85.5 Z"/></g>
<g><path style="opacity:1" fill="#e3dbb9" d="M 614.5,94.5 C 613.844,97.7788 614.344,101.112 616,104.5C 619.185,107.314 622.352,109.981 625.5,112.5C 628.103,120.046 632.436,126.38 638.5,131.5C 639.323,133.455 639.49,135.455 639,137.5C 636.388,139.281 635.721,141.281 637,143.5C 638.011,142.944 638.844,142.278 639.5,141.5C 639.559,144.962 638.559,147.962 636.5,150.5C 635.218,148.821 634.218,146.987 633.5,145C 630.86,144.161 628.527,144.661 626.5,146.5C 626.167,146.167 625.833,145.833 625.5,145.5C 628.934,142.786 629.267,139.786 626.5,136.5C 627.52,134.568 627.687,132.568 627,130.5C 626.692,131.308 626.192,131.975 625.5,132.5C 623.513,130.673 621.179,129.673 618.5,129.5C 618.5,128.5 618.5,127.5 618.5,126.5C 615.057,126.647 613.057,124.98 612.5,121.5C 608.733,125.239 604.4,126.906 599.5,126.5C 597.23,128.975 594.563,130.975 591.5,132.5C 592.471,133.962 592.138,135.295 590.5,136.5C 592.478,137.803 592.478,139.469 590.5,141.5C 587.1,143.693 583.434,144.526 579.5,144C 577.86,141.396 576.527,138.563 575.5,135.5C 577.156,134.008 578.656,132.342 580,130.5C 580.831,126.986 582.331,123.819 584.5,121C 583.027,120.29 582.36,119.124 582.5,117.5C 583.833,117.5 585.167,117.5 586.5,117.5C 585.908,114.359 586.908,112.026 589.5,110.5C 591.518,111.608 593.518,111.775 595.5,111C 596.09,112.509 596.756,114.009 597.5,115.5C 599.421,114.286 601.088,112.786 602.5,111C 598.584,109.898 594.584,109.231 590.5,109C 589.667,108.167 588.833,107.333 588,106.5C 587.751,107.624 587.251,108.624 586.5,109.5C 585.334,107.635 585.667,105.968 587.5,104.5C 585.157,103.275 583.323,103.941 582,106.5C 580.308,103.319 580.475,100.153 582.5,97C 580.476,93.4796 577.476,91.1462 573.5,90C 575.368,86.0014 577.368,82.1681 579.5,78.5C 580.458,78.9528 581.292,79.6195 582,80.5C 582.287,82.8907 582.787,85.2241 583.5,87.5C 587.927,87.427 590.26,89.5936 590.5,94C 589.267,97.8335 589.267,101.667 590.5,105.5C 592.029,103.293 592.695,100.793 592.5,98C 592.256,94.8136 591.923,91.647 591.5,88.5C 594.518,88.6646 597.518,88.498 600.5,88C 601.252,87.3292 601.586,86.4959 601.5,85.5C 602.043,85.44 602.376,85.1067 602.5,84.5C 596.43,78.451 597.764,76.2844 606.5,78C 607.966,78.6355 609.3,79.4688 610.5,80.5C 612.527,78.661 614.86,78.161 617.5,79C 617.807,80.6818 618.14,82.3485 618.5,84C 617.464,86.7741 616.631,89.6074 616,92.5C 613.573,91.433 613.073,92.0997 614.5,94.5 Z"/></g>
<g><path style="opacity:1" fill="#c9c1a4" d="M 614.5,94.5 C 615.221,101.067 618.555,105.901 624.5,109C 628.578,109.28 631.411,107.447 633,103.5C 633.861,106.994 632.528,109.327 629,110.5C 628.517,111.448 628.351,112.448 628.5,113.5C 627.849,112.909 627.182,112.243 626.5,111.5C 625.893,111.624 625.56,111.957 625.5,112.5C 622.352,109.981 619.185,107.314 616,104.5C 614.344,101.112 613.844,97.7788 614.5,94.5 Z"/></g>
<g><path style="opacity:0.996" fill="#757160" d="M 628.5,113.5 C 629.377,116.258 630.544,118.924 632,121.5C 635.67,126.002 639.503,130.335 643.5,134.5C 643.44,135.043 643.107,135.376 642.5,135.5C 641.479,133.812 640.145,132.479 638.5,131.5C 632.436,126.38 628.103,120.046 625.5,112.5C 625.56,111.957 625.893,111.624 626.5,111.5C 627.182,112.243 627.849,112.909 628.5,113.5 Z"/></g>
<g><path style="opacity:1" fill="#b1ab91" d="M 638.5,131.5 C 640.145,132.479 641.479,133.812 642.5,135.5C 643.107,135.376 643.44,135.043 643.5,134.5C 646.042,135.624 648.708,136.458 651.5,137C 652.71,138.039 653.71,139.206 654.5,140.5C 653.833,140.5 653.5,140.833 653.5,141.5C 650.975,138.356 647.641,136.689 643.5,136.5C 640.686,136.981 639.352,138.648 639.5,141.5C 638.844,142.278 638.011,142.944 637,143.5C 635.721,141.281 636.388,139.281 639,137.5C 639.49,135.455 639.323,133.455 638.5,131.5 Z"/></g>
<g><path style="opacity:1" fill="#87826e" d="M 653.5,141.5 C 653.5,140.833 653.833,140.5 654.5,140.5C 657.149,142.14 659.816,143.807 662.5,145.5C 664.487,143.499 666.82,142.665 669.5,143C 673.06,145.397 676.06,148.231 678.5,151.5C 678.657,152.873 678.49,154.207 678,155.5C 677.1,157.398 675.934,159.064 674.5,160.5C 673.255,159.045 673.422,157.711 675,156.5C 675.667,154.5 675.667,152.5 675,150.5C 671.938,145.291 667.938,144.291 663,147.5C 661.415,146.956 659.915,146.289 658.5,145.5C 656.833,144.167 655.167,142.833 653.5,141.5 Z"/></g>
<g><path style="opacity:0.999" fill="#e0d9b7" d="M 658.5,145.5 C 659.915,146.289 661.415,146.956 663,147.5C 667.938,144.291 671.938,145.291 675,150.5C 675.667,152.5 675.667,154.5 675,156.5C 673.422,157.711 673.255,159.045 674.5,160.5C 675.934,159.064 677.1,157.398 678,155.5C 678.49,154.207 678.657,152.873 678.5,151.5C 679.766,153.694 679.766,156.028 678.5,158.5C 680.029,160.188 681.863,161.521 684,162.5C 685.202,164.677 685.702,167.011 685.5,169.5C 684.041,169.567 682.708,169.234 681.5,168.5C 677.051,167.711 673.718,165.378 671.5,161.5C 670.471,163.886 671.137,165.886 673.5,167.5C 675.729,168.577 678.063,169.244 680.5,169.5C 681.23,170.712 682.23,171.712 683.5,172.5C 681.751,177.005 679.251,181.005 676,184.5C 675.86,188.234 676.36,191.901 677.5,195.5C 676.732,194.737 676.232,193.737 676,192.5C 675.586,192.957 675.086,193.291 674.5,193.5C 672.698,192.014 670.698,191.014 668.5,190.5C 666.637,187.431 665.303,184.098 664.5,180.5C 663.022,180.762 661.689,180.429 660.5,179.5C 659.695,177.528 658.361,176.028 656.5,175C 658.701,173.957 661.034,173.123 663.5,172.5C 664.098,171.205 664.598,169.872 665,168.5C 666.183,169.731 667.349,169.731 668.5,168.5C 667.689,167.784 667.022,166.95 666.5,166C 668.763,164.757 669.597,162.924 669,160.5C 668.586,160.957 668.086,161.291 667.5,161.5C 660.776,158.078 661.11,156.578 668.5,157C 665.554,154.187 662.221,151.854 658.5,150C 659.308,149.692 659.975,149.192 660.5,148.5C 659.388,147.735 658.721,146.735 658.5,145.5 Z"/></g>
<g><path style="opacity:1" fill="#7e7a67" d="M 681.5,168.5 C 681.5,169.167 681.167,169.5 680.5,169.5C 678.063,169.244 675.729,168.577 673.5,167.5C 671.137,165.886 670.471,163.886 671.5,161.5C 673.718,165.378 677.051,167.711 681.5,168.5 Z"/></g>
<g><path style="opacity:0.839" fill="#ada78d" d="M 681.5,168.5 C 682.708,169.234 684.041,169.567 685.5,169.5C 685.66,171.199 685.494,172.866 685,174.5C 682.116,178.434 679.616,182.601 677.5,187C 679.322,190.412 679.655,193.912 678.5,197.5C 677.702,197.043 677.369,196.376 677.5,195.5C 676.36,191.901 675.86,188.234 676,184.5C 679.251,181.005 681.751,177.005 683.5,172.5C 682.23,171.712 681.23,170.712 680.5,169.5C 681.167,169.5 681.5,169.167 681.5,168.5 Z"/></g>
<g><path style="opacity:0.971" fill="#afa98f" d="M 671.5,224.5 C 671.5,224.167 671.5,223.833 671.5,223.5C 675.465,219.239 678.132,214.239 679.5,208.5C 680.078,215.344 677.412,220.677 671.5,224.5 Z"/></g>
<g><path style="opacity:1" fill="#bfb89c" d="M 669.5,224.5 C 668.631,226.717 668.298,229.05 668.5,231.5C 667.837,229.958 667.17,228.291 666.5,226.5C 665.019,225.52 663.685,224.353 662.5,223C 664.757,223.437 667.09,223.937 669.5,224.5 Z"/></g>
<g><path style="opacity:1" fill="#847f6c" d="M 671.5,223.5 C 671.5,223.833 671.5,224.167 671.5,224.5C 670.631,226.717 670.298,229.05 670.5,231.5C 669.662,231.842 669.328,232.508 669.5,233.5C 668.662,233.158 668.328,232.492 668.5,231.5C 668.298,229.05 668.631,226.717 669.5,224.5C 670.167,224.167 670.833,223.833 671.5,223.5 Z"/></g>
<g><path style="opacity:0.847" fill="#565346" d="M 670.5,231.5 C 671.167,231.5 671.5,231.833 671.5,232.5C 671.663,234.857 671.497,237.19 671,239.5C 670.722,238.584 670.222,237.918 669.5,237.5C 669.5,236.167 669.5,234.833 669.5,233.5C 669.328,232.508 669.662,231.842 670.5,231.5 Z"/></g>
<g><path style="opacity:0.91" fill="#9b967f" d="M 671.5,232.5 C 672.088,234.907 673.088,237.24 674.5,239.5C 673.675,240.386 672.675,240.719 671.5,240.5C 671.5,241.5 671.5,242.5 671.5,243.5C 670.093,245.308 668.926,247.308 668,249.5C 667.517,248.552 667.351,247.552 667.5,246.5C 668.634,243.63 669.3,240.63 669.5,237.5C 670.222,237.918 670.722,238.584 671,239.5C 671.497,237.19 671.663,234.857 671.5,232.5 Z"/></g>
<g><path style="opacity:0.993" fill="#dbd3b3" d="M 671.5,243.5 C 678.964,243.826 686.297,244.993 693.5,247C 695.019,248.351 696.352,249.851 697.5,251.5C 697,251.833 696.5,252.167 696,252.5C 693.379,249.19 689.879,247.523 685.5,247.5C 681.102,250.364 677.102,253.698 673.5,257.5C 674.292,256.033 674.292,254.7 673.5,253.5C 672.478,253.855 671.811,254.522 671.5,255.5C 669.2,257.202 666.533,257.868 663.5,257.5C 661.504,264.781 661.17,272.114 662.5,279.5C 662.5,280.167 662.5,280.833 662.5,281.5C 660.862,277.124 660.029,272.458 660,267.5C 657.863,266.521 656.029,265.188 654.5,263.5C 651.5,262.833 648.5,262.167 645.5,261.5C 648.955,259.767 652.455,259.434 656,260.5C 657.258,257.945 659.091,257.278 661.5,258.5C 663.014,254.138 665.014,250.138 667.5,246.5C 667.351,247.552 667.517,248.552 668,249.5C 668.926,247.308 670.093,245.308 671.5,243.5 Z"/></g>
<g><path style="opacity:1" fill="#4d4a3f" d="M 673.5,257.5 C 673.167,257.5 672.833,257.5 672.5,257.5C 671.662,257.158 671.328,256.492 671.5,255.5C 671.811,254.522 672.478,253.855 673.5,253.5C 674.292,254.7 674.292,256.033 673.5,257.5 Z"/></g>
<g><path style="opacity:1" fill="#85806c" d="M 671.5,255.5 C 671.328,256.492 671.662,257.158 672.5,257.5C 670.393,258.468 668.059,258.802 665.5,258.5C 665.5,259.5 665.5,260.5 665.5,261.5C 663.857,265.295 663.191,269.295 663.5,273.5C 663.795,275.735 663.461,277.735 662.5,279.5C 661.17,272.114 661.504,264.781 663.5,257.5C 666.533,257.868 669.2,257.202 671.5,255.5 Z"/></g>
<g><path style="opacity:0.919" fill="#d6cfaf" d="M 672.5,257.5 C 672.833,257.5 673.167,257.5 673.5,257.5C 674.03,261.793 673.03,265.627 670.5,269C 669.365,269.749 668.365,269.583 667.5,268.5C 666.167,266.5 666.167,264.5 667.5,262.5C 667.043,261.702 666.376,261.369 665.5,261.5C 665.5,260.5 665.5,259.5 665.5,258.5C 668.059,258.802 670.393,258.468 672.5,257.5 Z"/></g>
<g><path style="opacity:1" fill="#9f9982" d="M 663.5,273.5 C 665.676,280.336 665.843,287.336 664,294.5C 663.708,290.118 663.208,285.785 662.5,281.5C 662.5,280.833 662.5,280.167 662.5,279.5C 663.461,277.735 663.795,275.735 663.5,273.5 Z"/></g>
</svg>
