<?xml version="1.0" encoding="UTF-8"?>
<!DOCTYPE svg PUBLIC "-//W3C//DTD SVG 1.1//EN" "http://www.w3.org/Graphics/SVG/1.1/DTD/svg11.dtd">
<svg xmlns="http://www.w3.org/2000/svg" version="1.1" width="1920px" height="1080px" style="shape-rendering:geometricPrecision; text-rendering:geometricPrecision; image-rendering:optimizeQuality; fill-rule:evenodd; clip-rule:evenodd" xmlns:xlink="http://www.w3.org/1999/xlink">
<g><path style="opacity:0.999" fill="#e6debc" d="M -0.5,-0.5 C 639.5,-0.5 1279.5,-0.5 1919.5,-0.5C 1919.5,359.5 1919.5,719.5 1919.5,1079.5C 1279.5,1079.5 639.5,1079.5 -0.5,1079.5C -0.5,719.5 -0.5,359.5 -0.5,-0.5 Z"/></g>
<g><path style="opacity:1" fill="#e4ddba" d="M 518.5,0.5 C 519.239,0.368989 519.906,0.535656 520.5,1C 518.25,5.57361 517.583,5.40694 518.5,0.5 Z"/></g>
<g><path style="opacity:1" fill="#e4ddba" d="M 514.5,3.5 C 515.573,4.25057 515.74,5.25057 515,6.5C 513.272,5.64767 513.105,4.64767 514.5,3.5 Z"/></g>
<g><path style="opacity:1" fill="#e4ddba" d="M 1352.5,3.5 C 1353.29,3.78281 1353.96,4.28281 1354.5,5C 1353.18,5.52811 1352.52,5.02811 1352.5,3.5 Z"/></g>
<g><path style="opacity:1" fill="#e4ddba" d="M 1144.5,10.5 C 1146.05,10.8212 1146.71,11.8212 1146.5,13.5C 1142.36,14.0443 1141.69,13.0443 1144.5,10.5 Z"/></g>
<g><path style="opacity:1" fill="#e4ddba" d="M 1361.5,22.5 C 1363.34,22.6395 1363.67,23.3061 1362.5,24.5C 1361.7,24.0431 1361.37,23.3764 1361.5,22.5 Z"/></g>
<g><path style="opacity:1" fill="#e4ddba" d="M 311.5,23.5 C 312.675,23.281 313.675,23.6143 314.5,24.5C 312.948,25.7979 311.948,25.4646 311.5,23.5 Z"/></g>
<g><path style="opacity:1" fill="#e4ddba" d="M 488.5,26.5 C 490.337,26.6395 490.67,27.3061 489.5,28.5C 488.702,28.0431 488.369,27.3764 488.5,26.5 Z"/></g>
<g><path style="opacity:1" fill="#e4ddba" d="M 686.5,35.5 C 688.827,35.2471 690.827,35.9137 692.5,37.5C 691,39.8333 689.5,42.1667 688,44.5C 687.934,41.7244 686.768,39.5577 684.5,38C 685.381,37.2917 686.047,36.4584 686.5,35.5 Z"/></g>
<g><path style="opacity:1" fill="#e4ddba" d="M 571.5,37.5 C 574.93,38.2108 575.263,39.8774 572.5,42.5C 570.296,41.218 569.962,39.5514 571.5,37.5 Z"/></g>
<g><path style="opacity:1" fill="#e4ddba" d="M 1569.5,38.5 C 1571.68,38.2837 1573.35,39.117 1574.5,41C 1571.78,42.8392 1570.12,42.0059 1569.5,38.5 Z"/></g>
<g><path style="opacity:1" fill="#e4ddba" d="M 762.5,71.5 C 763.922,71.7496 764.922,72.583 765.5,74C 763.508,74.5743 762.008,75.741 761,77.5C 759.833,76.3333 758.667,75.1667 757.5,74C 758.549,73.5078 759.549,73.6744 760.5,74.5C 761.425,73.6431 762.092,72.6431 762.5,71.5 Z"/></g>
<g><path style="opacity:1" fill="#e4ddba" d="M 1423.5,72.5 C 1426.47,72.7458 1427.8,74.4124 1427.5,77.5C 1425.18,77.3385 1423.51,76.1718 1422.5,74C 1423.06,73.6174 1423.39,73.1174 1423.5,72.5 Z"/></g>
<g><path style="opacity:1" fill="#e4ddba" d="M 426.5,73.5 C 427.806,73.879 429.139,74.2124 430.5,74.5C 428.613,78.3455 427.28,78.0122 426.5,73.5 Z"/></g>
<g><path style="opacity:1" fill="#e4ddba" d="M 389.5,78.5 C 391.824,78.6615 393.491,79.8282 394.5,82C 393.833,82.6667 393.167,82.6667 392.5,82C 390.937,81.2411 389.937,80.0744 389.5,78.5 Z"/></g>
<g><path style="opacity:1" fill="#e4ddba" d="M 394.5,78.5 C 398.122,78.9512 399.622,80.9512 399,84.5C 396.873,82.8863 395.373,80.8863 394.5,78.5 Z"/></g>
<g><path style="opacity:1" fill="#e4ddba" d="M 1390.5,79.5 C 1391.79,78.3552 1392.96,78.6885 1394,80.5C 1394.75,81.635 1394.58,82.635 1393.5,83.5C 1392.48,82.0986 1391.48,80.7653 1390.5,79.5 Z"/></g>
<g><path style="opacity:1" fill="#e4ddba" d="M 1384.5,87.5 C 1386.34,87.6395 1386.67,88.3061 1385.5,89.5C 1384.7,89.0431 1384.37,88.3764 1384.5,87.5 Z"/></g>
<g><path style="opacity:1" fill="#e4ddba" d="M 1198.5,101.5 C 1198.47,100.503 1198.97,99.8361 1200,99.5C 1201.6,100.885 1203.43,101.551 1205.5,101.5C 1205.5,102.5 1205.5,103.5 1205.5,104.5C 1202.96,103.957 1200.63,102.957 1198.5,101.5 Z"/></g>
<g><path style="opacity:1" fill="#e4ddba" d="M 531.5,104.5 C 531.5,103.5 531.5,102.5 531.5,101.5C 532.5,101.5 533.5,101.5 534.5,101.5C 534.5,102.5 534.5,103.5 534.5,104.5C 533.5,104.5 532.5,104.5 531.5,104.5 Z"/></g>
<g><path style="opacity:1" fill="#e4ddba" d="M 1198.5,101.5 C 1198.5,102.5 1198.5,103.5 1198.5,104.5C 1194.69,103.754 1194.69,102.754 1198.5,101.5 Z"/></g>
<g><path style="opacity:1" fill="#e4ddba" d="M 1526.5,101.5 C 1527.83,101.5 1529.17,101.5 1530.5,101.5C 1529.76,106.503 1528.43,106.503 1526.5,101.5 Z"/></g>
<g><path style="opacity:1" fill="#e4ddba" d="M 531.5,104.5 C 532.5,104.5 533.5,104.5 534.5,104.5C 534.5,103.5 534.5,102.5 534.5,101.5C 533.5,101.5 532.5,101.5 531.5,101.5C 531.5,102.5 531.5,103.5 531.5,104.5 Z"/></g>
<g><path style="opacity:1" fill="#e4ddba" d="M 1186.5,110.5 C 1187.48,110.811 1188.14,111.478 1188.5,112.5C 1186.81,114.359 1185.31,116.359 1184,118.5C 1182.73,117.095 1182.23,115.429 1182.5,113.5C 1184.62,113.532 1185.95,112.532 1186.5,110.5 Z"/></g>
<g><path style="opacity:1" fill="#e4ddba" d="M 850.5,113.5 C 851.649,113.791 852.316,114.624 852.5,116C 852.333,116.833 852.167,117.667 852,118.5C 850.731,117.095 850.231,115.429 850.5,113.5 Z"/></g>
<g><path style="opacity:1" fill="#e4ddba" d="M 521.5,116.5 C 522.995,116.415 523.995,117.081 524.5,118.5C 523.167,119.833 521.833,119.833 520.5,118.5C 520.863,117.817 521.196,117.15 521.5,116.5 Z"/></g>
<g><path style="opacity:1" fill="#e4ddba" d="M 1538.5,116.5 C 1541.01,117.216 1541.01,118.216 1538.5,119.5C 1537.44,118.575 1537.44,117.575 1538.5,116.5 Z"/></g>
<g><path style="opacity:1" fill="#e4ddba" d="M 1605.5,118.5 C 1608.15,120.815 1607.99,123.149 1605,125.5C 1601.63,122.821 1601.79,120.487 1605.5,118.5 Z"/></g>
<g><path style="opacity:1" fill="#e4ddba" d="M 511.5,119.5 C 512.995,119.415 513.995,120.081 514.5,121.5C 509.691,125.684 508.691,125.017 511.5,119.5 Z"/></g>
<g><path style="opacity:1" fill="#e4ddba" d="M 1178.5,140.5 C 1185.78,142.378 1186.11,145.045 1179.5,148.5C 1178.55,147.467 1178.55,146.3 1179.5,145C 1178.62,143.902 1177.62,143.402 1176.5,143.5C 1177.19,142.482 1177.86,141.482 1178.5,140.5 Z"/></g>
<g><path style="opacity:1" fill="#e4ddba" d="M 513.5,142.5 C 514.995,142.415 515.995,143.081 516.5,144.5C 514.559,146.316 513.892,148.316 514.5,150.5C 513.92,148.363 512.92,146.53 511.5,145C 512.756,144.583 513.423,143.75 513.5,142.5 Z"/></g>
<g><path style="opacity:1" fill="#e4ddba" d="M 845.5,142.5 C 847.332,143.14 847.665,144.14 846.5,145.5C 845.614,144.675 845.281,143.675 845.5,142.5 Z"/></g>
<g><path style="opacity:1" fill="#e4ddba" d="M 1508.5,143.5 C 1509.68,143.281 1510.68,143.614 1511.5,144.5C 1511.02,145.931 1510.36,147.264 1509.5,148.5C 1508.77,147.066 1507.77,145.9 1506.5,145C 1507.42,144.722 1508.08,144.222 1508.5,143.5 Z"/></g>
<g><path style="opacity:1" fill="#e4ddba" d="M 1161.5,148.5 C 1162.38,148.369 1163.04,148.702 1163.5,149.5C 1161.19,150.873 1160.52,150.54 1161.5,148.5 Z"/></g>
<g><path style="opacity:1" fill="#e4ddba" d="M 1489.5,150.5 C 1490.77,151.077 1490.77,151.743 1489.5,152.5C 1488.54,152.03 1488.54,151.363 1489.5,150.5 Z"/></g>
<g><path style="opacity:1" fill="#e4ddba" d="M 1087.5,156.5 C 1088.79,158.364 1088.79,160.364 1087.5,162.5C 1087.33,160.582 1087.33,158.582 1087.5,156.5 Z"/></g>
<g><path style="opacity:1" fill="#e4ddba" d="M 1418.5,156.5 C 1419.65,156.791 1420.32,157.624 1420.5,159C 1420.33,159.833 1420.17,160.667 1420,161.5C 1419.39,159.846 1418.89,158.179 1418.5,156.5 Z"/></g>
<g><path style="opacity:1" fill="#e4ddba" d="M 778.5,160.5 C 780.048,160.821 780.715,161.821 780.5,163.5C 777.752,163.598 777.086,162.598 778.5,160.5 Z"/></g>
<g><path style="opacity:1" fill="#e4ddba" d="M 446.5,161.5 C 448.337,161.639 448.67,162.306 447.5,163.5C 446.702,163.043 446.369,162.376 446.5,161.5 Z"/></g>
<g><path style="opacity:1" fill="#e4ddba" d="M 672.5,161.5 C 673.995,161.415 674.995,162.081 675.5,163.5C 673.604,164.639 672.604,163.973 672.5,161.5 Z"/></g>
<g><path style="opacity:1" fill="#e4ddba" d="M 417.5,165.5 C 419.973,165.947 420.14,166.947 418,168.5C 417.517,167.552 417.351,166.552 417.5,165.5 Z"/></g>
<g><path style="opacity:1" fill="#e4ddba" d="M 1078.5,167.5 C 1079.08,166.227 1079.74,166.227 1080.5,167.5C 1080.03,168.463 1079.36,168.463 1078.5,167.5 Z"/></g>
<g><path style="opacity:1" fill="#e4ddba" d="M 1340.5,166.5 C 1342.84,167.967 1342.51,169.301 1339.5,170.5C 1339.17,170.333 1338.83,170.167 1338.5,170C 1339.31,168.887 1339.97,167.721 1340.5,166.5 Z"/></g>
<g><path style="opacity:1" fill="#e4ddba" d="M 1036.5,168.5 C 1037.27,169.172 1037.93,170.005 1038.5,171C 1036.94,171.188 1036.27,170.355 1036.5,168.5 Z"/></g>
<g><path style="opacity:1" fill="#e4ddba" d="M 1164.5,170.5 C 1165.08,169.227 1165.74,169.227 1166.5,170.5C 1166.03,171.463 1165.36,171.463 1164.5,170.5 Z"/></g>
<g><path style="opacity:1" fill="#e4ddba" d="M 1606.5,176.5 C 1607.78,177.386 1607.78,178.386 1606.5,179.5C 1605.44,178.575 1605.44,177.575 1606.5,176.5 Z"/></g>
<g><path style="opacity:1" fill="#e4ddba" d="M 311.5,182.5 C 313.973,182.947 314.14,183.947 312,185.5C 311.517,184.552 311.351,183.552 311.5,182.5 Z"/></g>
<g><path style="opacity:1" fill="#e4ddba" d="M 451.5,190.5 C 453.337,190.639 453.67,191.306 452.5,192.5C 451.702,192.043 451.369,191.376 451.5,190.5 Z"/></g>
<g><path style="opacity:1" fill="#e4ddba" d="M 1114.5,191.5 C 1115.39,190.224 1116.39,190.224 1117.5,191.5C 1116.58,192.562 1115.58,192.562 1114.5,191.5 Z"/></g>
<g><path style="opacity:1" fill="#e4ddba" d="M 1446.5,191.5 C 1447.08,190.227 1447.74,190.227 1448.5,191.5C 1448.03,192.463 1447.36,192.463 1446.5,191.5 Z"/></g>
<g><path style="opacity:1" fill="#e4ddba" d="M 630.5,207.5 C 631.376,207.369 632.043,207.702 632.5,208.5C 631.458,211.423 630.125,214.09 628.5,216.5C 625.264,215.378 624.931,213.878 627.5,212C 627.167,211.667 626.833,211.333 626.5,211C 628.324,210.34 629.657,209.173 630.5,207.5 Z"/></g>
<g><path style="opacity:1" fill="#e4ddba" d="M 1294.5,216.5 C 1295.08,215.227 1295.74,215.227 1296.5,216.5C 1296.03,217.463 1295.36,217.463 1294.5,216.5 Z"/></g>
<g><path style="opacity:1" fill="#e4ddba" d="M 1604.5,219.5 C 1605.38,219.369 1606.04,219.702 1606.5,220.5C 1603.92,226.934 1603.25,226.601 1604.5,219.5 Z"/></g>
<g><path style="opacity:1" fill="#e4ddba" d="M 1603.5,227.5 C 1604.65,227.791 1605.32,228.624 1605.5,230C 1605.23,232.893 1604.23,233.226 1602.5,231C 1603.34,229.989 1603.67,228.822 1603.5,227.5 Z"/></g>
<g><path style="opacity:1" fill="#e4ddba" d="M 988.5,234.5 C 990.833,234.5 993.167,234.5 995.5,234.5C 995.5,235.833 995.5,237.167 995.5,238.5C 993.473,238.662 991.473,238.495 989.5,238C 988.663,236.989 988.33,235.822 988.5,234.5 Z"/></g>
<g><path style="opacity:1" fill="#e4ddba" d="M 1332.5,237.5 C 1333.08,236.227 1333.74,236.227 1334.5,237.5C 1334.03,238.463 1333.36,238.463 1332.5,237.5 Z"/></g>
<g><path style="opacity:1" fill="#e4ddba" d="M 653.5,246.5 C 655.337,246.639 655.67,247.306 654.5,248.5C 653.702,248.043 653.369,247.376 653.5,246.5 Z"/></g>
<g><path style="opacity:1" fill="#e4ddba" d="M 1525.5,257.5 C 1526.98,257.238 1528.31,257.571 1529.5,258.5C 1527.71,259.316 1526.05,260.316 1524.5,261.5C 1524.17,261.167 1523.83,260.833 1523.5,260.5C 1524.61,259.735 1525.28,258.735 1525.5,257.5 Z"/></g>
<g><path style="opacity:1" fill="#e4ddba" d="M 1532.5,258.5 C 1533.98,259.262 1535.31,259.595 1536.5,259.5C 1533.76,266.339 1532.42,266.006 1532.5,258.5 Z"/></g>
<g><path style="opacity:1" fill="#e4ddba" d="M 1084.5,296.5 C 1085.83,296.5 1087.17,296.5 1088.5,296.5C 1087.76,301.503 1086.43,301.503 1084.5,296.5 Z"/></g>
<g><path style="opacity:1" fill="#e4ddba" d="M 1416.5,296.5 C 1417.83,296.5 1419.17,296.5 1420.5,296.5C 1419.76,301.503 1418.43,301.503 1416.5,296.5 Z"/></g>
<g><path style="opacity:1" fill="#e4ddba" d="M 311.5,301.5 C 313.178,304.325 314.178,307.491 314.5,311C 314.532,312.971 313.698,314.471 312,315.5C 311.501,310.845 311.334,306.179 311.5,301.5 Z"/></g>
<g><path style="opacity:1" fill="#e4ddba" d="M 477.5,309.5 C 481.494,307.651 482.994,308.985 482,313.5C 480.989,312.663 479.822,312.33 478.5,312.5C 478.737,311.209 478.404,310.209 477.5,309.5 Z"/></g>
<g><path style="opacity:1" fill="#e4ddba" d="M 1472.5,309.5 C 1474.03,308.212 1475.7,308.212 1477.5,309.5C 1475.83,310.666 1474.17,310.666 1472.5,309.5 Z"/></g>
<g><path style="opacity:1" fill="#e4ddba" d="M 354.5,327.5 C 356.337,327.639 356.67,328.306 355.5,329.5C 354.702,329.043 354.369,328.376 354.5,327.5 Z"/></g>
<g><path style="opacity:1" fill="#e4ddba" d="M 481.5,341.5 C 482.404,342.209 482.737,343.209 482.5,344.5C 481.448,344.649 480.448,344.483 479.5,344C 480.381,343.292 481.047,342.458 481.5,341.5 Z"/></g>
<g><path style="opacity:1" fill="#e4ddba" d="M 1605.5,347.5 C 1607.34,347.639 1607.67,348.306 1606.5,349.5C 1605.7,349.043 1605.37,348.376 1605.5,347.5 Z"/></g>
<g><path style="opacity:1" fill="#e4ddba" d="M 311.5,357.5 C 313.364,356.207 315.364,356.207 317.5,357.5C 315.525,358.749 315.191,360.249 316.5,362C 315.382,363.074 314.382,364.24 313.5,365.5C 312.152,363.389 312.485,361.555 314.5,360C 313.922,358.583 312.922,357.75 311.5,357.5 Z"/></g>
<g><path style="opacity:1" fill="#e4ddba" d="M 907.5,366.5 C 909.337,366.639 909.67,367.306 908.5,368.5C 907.702,368.043 907.369,367.376 907.5,366.5 Z"/></g>
<g><path style="opacity:1" fill="#e4ddba" d="M 861.5,369.5 C 862.622,371.288 862.789,373.288 862,375.5C 861.586,375.043 861.086,374.709 860.5,374.5C 859.15,375.95 857.484,376.617 855.5,376.5C 855.038,371.756 856.538,370.756 860,373.5C 861.188,372.437 861.688,371.103 861.5,369.5 Z"/></g>
<g><path style="opacity:1" fill="#e4ddba" d="M 1239.5,370.5 C 1243.06,372.283 1243.06,373.283 1239.5,373.5C 1239.5,372.5 1239.5,371.5 1239.5,370.5 Z"/></g>
<g><path style="opacity:1" fill="#e4ddba" d="M 1571.5,370.5 C 1575.07,371.207 1575.24,372.207 1572,373.5C 1570.32,372.824 1570.15,371.824 1571.5,370.5 Z"/></g>
<g><path style="opacity:1" fill="#e4ddba" d="M 1524.5,372.5 C 1526.98,372.747 1526.98,373.413 1524.5,374.5C 1523.54,374.03 1523.54,373.363 1524.5,372.5 Z"/></g>
<g><path style="opacity:1" fill="#e4ddba" d="M 729.5,392.5 C 731.337,392.639 731.67,393.306 730.5,394.5C 729.702,394.043 729.369,393.376 729.5,392.5 Z"/></g>
<g><path style="opacity:1" fill="#e4ddba" d="M 1089.5,394.5 C 1091.98,395.195 1093.98,396.695 1095.5,399C 1094.66,400.011 1094.33,401.178 1094.5,402.5C 1093.45,402.649 1092.45,402.483 1091.5,402C 1090.12,400.287 1088.46,398.953 1086.5,398C 1087.71,396.961 1088.71,395.794 1089.5,394.5 Z"/></g>
<g><path style="opacity:1" fill="#e4ddba" d="M 431.5,402.5 C 434.218,404.088 434.052,405.421 431,406.5C 430.5,406.167 430,405.833 429.5,405.5C 430.193,404.482 430.859,403.482 431.5,402.5 Z"/></g>
<g><path style="opacity:1" fill="#e4ddba" d="M 1105.5,404.5 C 1106.4,405.209 1106.74,406.209 1106.5,407.5C 1107.98,407.238 1109.31,407.571 1110.5,408.5C 1105.33,411.662 1103.66,410.329 1105.5,404.5 Z"/></g>
<g><path style="opacity:1" fill="#e4ddba" d="M 1436.5,405.5 C 1438.21,406.305 1439.88,407.305 1441.5,408.5C 1437.77,411.463 1436.1,410.463 1436.5,405.5 Z"/></g>
<g><path style="opacity:1" fill="#e4ddba" d="M 389.5,408.5 C 391.912,408.694 392.912,410.027 392.5,412.5C 391.5,412.5 390.5,412.5 389.5,412.5C 389.5,411.167 389.5,409.833 389.5,408.5 Z"/></g>
<g><path style="opacity:1" fill="#e4ddba" d="M 1051.5,410.5 C 1054.16,410.162 1056.49,410.829 1058.5,412.5C 1058.17,413.5 1057.5,414.167 1056.5,414.5C 1054.51,413.368 1052.84,412.035 1051.5,410.5 Z"/></g>
<g><path style="opacity:1" fill="#e4ddba" d="M 397.5,412.5 C 399.344,413.204 399.844,414.537 399,416.5C 397.812,415.437 397.312,414.103 397.5,412.5 Z"/></g>
<g><path style="opacity:1" fill="#e4ddba" d="M 408.5,414.5 C 409.376,414.369 410.043,414.702 410.5,415.5C 409.185,417.316 407.685,418.983 406,420.5C 405.5,420 405,419.5 404.5,419C 406.384,417.951 407.718,416.451 408.5,414.5 Z"/></g>
<g><path style="opacity:1" fill="#e4ddba" d="M 549.5,414.5 C 551.465,414.948 551.798,415.948 550.5,417.5C 549.614,416.675 549.281,415.675 549.5,414.5 Z"/></g>
<g><path style="opacity:1" fill="#e4ddba" d="M 1071.5,414.5 C 1072.68,414.281 1073.68,414.614 1074.5,415.5C 1072.84,416.992 1071.34,418.658 1070,420.5C 1069.31,419.975 1068.81,419.308 1068.5,418.5C 1069.91,417.431 1070.91,416.097 1071.5,414.5 Z"/></g>
<g><path style="opacity:1" fill="#e4ddba" d="M 1400.5,417.5 C 1402.97,417.947 1403.14,418.947 1401,420.5C 1400.52,419.552 1400.35,418.552 1400.5,417.5 Z"/></g>
<g><path style="opacity:1" fill="#e4ddba" d="M 1052.5,419.5 C 1053.08,418.227 1053.74,418.227 1054.5,419.5C 1054.03,420.463 1053.36,420.463 1052.5,419.5 Z"/></g>
<g><path style="opacity:1" fill="#e4ddba" d="M 1203.5,422.5 C 1204.91,424.044 1205.25,425.711 1204.5,427.5C 1202.58,426.035 1202.24,424.368 1203.5,422.5 Z"/></g>
<g><path style="opacity:1" fill="#e4ddba" d="M 1519.5,435.5 C 1521.52,434.514 1522.85,432.847 1523.5,430.5C 1524.39,431.325 1524.72,432.325 1524.5,433.5C 1526.5,433.5 1528.5,433.5 1530.5,433.5C 1530.76,434.978 1530.43,436.311 1529.5,437.5C 1526.26,434.534 1523.42,434.867 1521,438.5C 1519.96,437.756 1519.46,436.756 1519.5,435.5 Z"/></g>
<g><path style="opacity:1" fill="#e4ddba" d="M 531.5,433.5 C 532.5,433.5 533.5,433.5 534.5,433.5C 534.193,436.962 533.193,436.962 531.5,433.5 Z"/></g>
<g><path style="opacity:1" fill="#e4ddba" d="M 1195.5,433.5 C 1196.5,433.5 1197.5,433.5 1198.5,433.5C 1197.75,437.31 1196.75,437.31 1195.5,433.5 Z"/></g>
<g><path style="opacity:1" fill="#e4ddba" d="M 1519.5,435.5 C 1518.32,435.719 1517.32,435.386 1516.5,434.5C 1518.05,433.202 1519.05,433.535 1519.5,435.5 Z"/></g>
<g><path style="opacity:1" fill="#e4ddba" d="M 1514.5,437.5 C 1515.08,436.227 1515.74,436.227 1516.5,437.5C 1516.03,438.463 1515.36,438.463 1514.5,437.5 Z"/></g>
<g><path style="opacity:1" fill="#e4ddba" d="M 1184.5,438.5 C 1187.02,439.01 1189.02,440.344 1190.5,442.5C 1187.31,443.352 1185.31,442.019 1184.5,438.5 Z"/></g>
<g><path style="opacity:1" fill="#e4ddba" d="M 1517.5,439.5 C 1518.08,438.227 1518.74,438.227 1519.5,439.5C 1519.03,440.463 1518.36,440.463 1517.5,439.5 Z"/></g>
<g><path style="opacity:1" fill="#e4ddba" d="M 1176.5,440.5 C 1179.18,443.498 1178.51,444.498 1174.5,443.5C 1175.19,442.482 1175.86,441.482 1176.5,440.5 Z"/></g>
<g><path style="opacity:1" fill="#e4ddba" d="M 1606.5,441.5 C 1607.8,443.693 1607.8,446.027 1606.5,448.5C 1605.71,447.758 1605.05,446.925 1604.5,446C 1606.04,444.89 1606.7,443.39 1606.5,441.5 Z"/></g>
<g><path style="opacity:1" fill="#e4ddba" d="M 1076.5,446.5 C 1079,446.511 1079.17,447.178 1077,448.5C 1076.54,447.906 1076.37,447.239 1076.5,446.5 Z"/></g>
<g><path style="opacity:1" fill="#e4ddba" d="M 881.5,448.5 C 883.337,448.639 883.67,449.306 882.5,450.5C 881.702,450.043 881.369,449.376 881.5,448.5 Z"/></g>
<g><path style="opacity:1" fill="#e4ddba" d="M 1515.5,448.5 C 1516.83,448.5 1518.17,448.5 1519.5,448.5C 1519.5,449.5 1519.5,450.5 1519.5,451.5C 1518.17,451.5 1516.83,451.5 1515.5,451.5C 1515.5,450.5 1515.5,449.5 1515.5,448.5 Z"/></g>
<g><path style="opacity:1" fill="#e4ddba" d="M 1605.5,450.5 C 1608.15,452.815 1607.99,455.149 1605,457.5C 1602.31,455.257 1602.48,452.924 1605.5,450.5 Z"/></g>
<g><path style="opacity:1" fill="#e4ddba" d="M 843.5,451.5 C 847.447,452.63 847.281,453.63 843,454.5C 842.53,453.423 842.697,452.423 843.5,451.5 Z"/></g>
<g><path style="opacity:1" fill="#e4ddba" d="M 1506.5,451.5 C 1507.76,451.461 1508.76,451.961 1509.5,453C 1508.03,453.71 1507.36,454.876 1507.5,456.5C 1506.02,456.762 1504.69,456.429 1503.5,455.5C 1504.32,454.614 1505.32,454.281 1506.5,454.5C 1506.5,453.5 1506.5,452.5 1506.5,451.5 Z"/></g>
<g><path style="opacity:1" fill="#e4ddba" d="M 1174.5,452.5 C 1178.84,452.622 1179.17,452.955 1175.5,453.5C 1175.5,454.5 1175.5,455.5 1175.5,456.5C 1174.32,456.719 1173.32,456.386 1172.5,455.5C 1173.61,454.735 1174.28,453.735 1174.5,452.5 Z"/></g>
<g><path style="opacity:1" fill="#e4ddba" d="M 1177.5,456.5 C 1179.98,456.73 1180.48,457.397 1179,458.5C 1177.97,458.164 1177.47,457.497 1177.5,456.5 Z"/></g>
<g><path style="opacity:1" fill="#e4ddba" d="M 1509.5,456.5 C 1510.29,456.783 1510.96,457.283 1511.5,458C 1510.18,458.528 1509.52,458.028 1509.5,456.5 Z"/></g>
<g><path style="opacity:1" fill="#e4ddba" d="M 572.5,458.5 C 574.368,459.786 574.534,461.119 573,462.5C 572.51,461.207 572.343,459.873 572.5,458.5 Z"/></g>
<g><path style="opacity:1" fill="#e4ddba" d="M 1516.5,459.5 C 1518.75,459.181 1520.75,459.681 1522.5,461C 1521.5,461.167 1520.5,461.333 1519.5,461.5C 1517.97,461.36 1516.97,460.693 1516.5,459.5 Z"/></g>
<g><path style="opacity:1" fill="#e4ddba" d="M 571.5,464.5 C 573.772,465.797 574.605,467.797 574,470.5C 572.331,468.831 571.498,466.831 571.5,464.5 Z"/></g>
<g><path style="opacity:1" fill="#e4ddba" d="M 519.5,470.5 C 520.598,471.601 520.765,472.934 520,474.5C 518.232,473.318 518.065,471.985 519.5,470.5 Z"/></g>
<g><path style="opacity:1" fill="#e4ddba" d="M 1177.5,474.5 C 1178.48,474.811 1179.14,475.478 1179.5,476.5C 1179.17,479.173 1178.84,481.839 1178.5,484.5C 1177.2,481.11 1176.87,477.776 1177.5,474.5 Z"/></g>
<g><path style="opacity:1" fill="#e4ddba" d="M 1514.5,474.5 C 1516.85,475.543 1517.02,476.876 1515,478.5C 1514.51,477.207 1514.34,475.873 1514.5,474.5 Z"/></g>
<g><path style="opacity:1" fill="#e4ddba" d="M 1086.5,489.5 C 1086.56,488.957 1086.89,488.624 1087.5,488.5C 1088.83,490.5 1088.83,492.5 1087.5,494.5C 1087.59,492.89 1087.26,491.224 1086.5,489.5 Z"/></g>
<g><path style="opacity:1" fill="#e4ddba" d="M 1109.5,489.5 C 1110.21,488.596 1111.21,488.263 1112.5,488.5C 1111.98,493.086 1110.98,493.419 1109.5,489.5 Z"/></g>
<g><path style="opacity:1" fill="#e4ddba" d="M 1440.5,489.5 C 1441.39,488.224 1442.39,488.224 1443.5,489.5C 1442.58,490.562 1441.58,490.562 1440.5,489.5 Z"/></g>
<g><path style="opacity:1" fill="#e4ddba" d="M 1438.5,492.5 C 1439.92,491.549 1441.59,491.216 1443.5,491.5C 1443.12,493.942 1443.79,494.609 1445.5,493.5C 1446.78,495.724 1446.45,497.724 1444.5,499.5C 1443.19,496.536 1441.19,494.203 1438.5,492.5 Z"/></g>
<g><path style="opacity:1" fill="#e4ddba" d="M 446.5,492.5 C 448.465,492.948 448.798,493.948 447.5,495.5C 446.614,494.675 446.281,493.675 446.5,492.5 Z"/></g>
<g><path style="opacity:1" fill="#e4ddba" d="M 676.5,498.5 C 677.376,498.369 678.043,498.702 678.5,499.5C 675.74,503.564 675.074,503.231 676.5,498.5 Z"/></g>
<g><path style="opacity:1" fill="#e4ddba" d="M 1078.5,499.5 C 1079.08,498.227 1079.74,498.227 1080.5,499.5C 1080.03,500.463 1079.36,500.463 1078.5,499.5 Z"/></g>
<g><path style="opacity:1" fill="#e4ddba" d="M 501.5,500.5 C 502.376,500.369 503.043,500.702 503.5,501.5C 501.192,502.873 500.525,502.54 501.5,500.5 Z"/></g>
<g><path style="opacity:1" fill="#e4ddba" d="M 1165.5,500.5 C 1166.77,501.077 1166.77,501.743 1165.5,502.5C 1164.54,502.03 1164.54,501.363 1165.5,500.5 Z"/></g>
<g><path style="opacity:1" fill="#e4ddba" d="M 576.5,507.5 C 578.225,507.843 578.725,508.843 578,510.5C 576.961,509.756 576.461,508.756 576.5,507.5 Z"/></g>
<g><path style="opacity:1" fill="#e4ddba" d="M 1606.5,508.5 C 1607.78,509.386 1607.78,510.386 1606.5,511.5C 1605.44,510.575 1605.44,509.575 1606.5,508.5 Z"/></g>
<g><path style="opacity:1" fill="#e4ddba" d="M 847.5,510.5 C 850.423,511.163 851.09,512.83 849.5,515.5C 846.807,514.468 846.14,512.802 847.5,510.5 Z"/></g>
<g><path style="opacity:1" fill="#e4ddba" d="M 451.5,522.5 C 453.337,522.639 453.67,523.306 452.5,524.5C 451.702,524.043 451.369,523.376 451.5,522.5 Z"/></g>
<g><path style="opacity:1" fill="#e4ddba" d="M 783.5,522.5 C 785.337,522.639 785.67,523.306 784.5,524.5C 783.702,524.043 783.369,523.376 783.5,522.5 Z"/></g>
<g><path style="opacity:1" fill="#e4ddba" d="M 1114.5,523.5 C 1115.39,522.224 1116.39,522.224 1117.5,523.5C 1116.58,524.562 1115.58,524.562 1114.5,523.5 Z"/></g>
<g><path style="opacity:1" fill="#e4ddba" d="M 1446.5,522.5 C 1447.38,522.369 1448.04,522.702 1448.5,523.5C 1446.19,524.873 1445.52,524.54 1446.5,522.5 Z"/></g>
<g><path style="opacity:1" fill="#e4ddba" d="M 456.5,529.5 C 458.337,529.639 458.67,530.306 457.5,531.5C 456.702,531.043 456.369,530.376 456.5,529.5 Z"/></g>
<g><path style="opacity:1" fill="#e4ddba" d="M 1449.5,531.5 C 1451.17,531.5 1452.83,531.5 1454.5,531.5C 1454.5,532.5 1454.5,533.5 1454.5,534.5C 1452.83,534.5 1451.17,534.5 1449.5,534.5C 1449.5,533.5 1449.5,532.5 1449.5,531.5 Z"/></g>
<g><path style="opacity:1" fill="#e4ddba" d="M 1457.5,549.5 C 1460.29,549.74 1460.79,550.74 1459,552.5C 1457.96,551.756 1457.46,550.756 1457.5,549.5 Z"/></g>
<g><path style="opacity:1" fill="#e4ddba" d="M 1125.5,552.5 C 1127.34,552.639 1127.67,553.306 1126.5,554.5C 1125.7,554.043 1125.37,553.376 1125.5,552.5 Z"/></g>
<g><path style="opacity:1" fill="#e4ddba" d="M 1603.5,560.5 C 1604.8,561.849 1604.63,563.182 1603,564.5C 1602.42,563.072 1602.59,561.738 1603.5,560.5 Z"/></g>
<g><path style="opacity:1" fill="#e4ddba" d="M 1606.5,561.5 C 1607.78,562.708 1607.78,564.042 1606.5,565.5C 1605.37,564.192 1605.37,562.858 1606.5,561.5 Z"/></g>
<g><path style="opacity:1" fill="#e4ddba" d="M 337.5,567.5 C 339.225,567.843 339.725,568.843 339,570.5C 337.961,569.756 337.461,568.756 337.5,567.5 Z"/></g>
<g><path style="opacity:1" fill="#e4ddba" d="M 1333.5,567.5 C 1334.57,568.251 1334.74,569.251 1334,570.5C 1332.27,569.648 1332.1,568.648 1333.5,567.5 Z"/></g>
<g><path style="opacity:1" fill="#e4ddba" d="M 867.5,589.5 C 869.086,590.413 870.586,590.413 872,589.5C 872.918,591.632 874.251,592.299 876,591.5C 876.165,595.977 873.998,597.477 869.5,596C 868.603,593.913 867.936,591.746 867.5,589.5 Z"/></g>
<g><path style="opacity:1" fill="#e4ddba" d="M 1530.5,589.5 C 1532.59,589.857 1534.59,590.523 1536.5,591.5C 1533.75,596.252 1531.75,595.586 1530.5,589.5 Z"/></g>
<g><path style="opacity:1" fill="#e4ddba" d="M 311.5,592.5 C 314.001,592.511 314.168,593.178 312,594.5C 311.536,593.906 311.369,593.239 311.5,592.5 Z"/></g>
<g><path style="opacity:1" fill="#e4ddba" d="M 311.5,616.5 C 312.478,616.811 313.145,617.478 313.5,618.5C 311.841,623.265 311.174,622.598 311.5,616.5 Z"/></g>
<g><path style="opacity:1" fill="#e4ddba" d="M 311.5,629.5 C 314.584,631.014 314.917,632.847 312.5,635C 314.988,639.364 314.821,643.53 312,647.5C 311.501,641.509 311.334,635.509 311.5,629.5 Z"/></g>
<g><path style="opacity:1" fill="#e4ddba" d="M 869.5,632.5 C 872.137,634.154 871.803,634.654 868.5,634C 869.056,633.617 869.389,633.117 869.5,632.5 Z"/></g>
<g><path style="opacity:1" fill="#e4ddba" d="M 477.5,639.5 C 479.337,639.639 479.67,640.306 478.5,641.5C 477.702,641.043 477.369,640.376 477.5,639.5 Z"/></g>
<g><path style="opacity:1" fill="#e4ddba" d="M 1141.5,639.5 C 1144.8,639.329 1145.13,639.995 1142.5,641.5C 1141.7,641.043 1141.37,640.376 1141.5,639.5 Z"/></g>
<g><path style="opacity:1" fill="#e4ddba" d="M 1473.5,639.5 C 1475.98,639.747 1475.98,640.413 1473.5,641.5C 1472.54,641.03 1472.54,640.363 1473.5,639.5 Z"/></g>
<g><path style="opacity:1" fill="#e4ddba" d="M 1107.5,640.5 C 1109.34,640.639 1109.67,641.306 1108.5,642.5C 1107.7,642.043 1107.37,641.376 1107.5,640.5 Z"/></g>
<g><path style="opacity:1" fill="#e4ddba" d="M 1149.5,640.5 C 1152.8,640.632 1154.46,642.298 1154.5,645.5C 1152.51,645.672 1150.84,645.005 1149.5,643.5C 1148.52,643.977 1147.69,644.643 1147,645.5C 1146.83,645 1146.67,644.5 1146.5,644C 1147.54,642.826 1148.54,641.659 1149.5,640.5 Z"/></g>
<g><path style="opacity:1" fill="#e4ddba" d="M 813.5,641.5 C 816.401,642.178 816.901,643.512 815,645.5C 814.209,644.255 813.709,642.922 813.5,641.5 Z"/></g>
<g><path style="opacity:1" fill="#e4ddba" d="M 818.5,641.5 C 819.309,642.469 820.309,643.302 821.5,644C 819.179,645.713 818.179,644.88 818.5,641.5 Z"/></g>
<g><path style="opacity:1" fill="#e4ddba" d="M 480.5,674.5 C 481.376,674.369 482.043,674.702 482.5,675.5C 480.192,676.873 479.525,676.54 480.5,674.5 Z"/></g>
<g><path style="opacity:1" fill="#e4ddba" d="M 1144.5,674.5 C 1147.14,676.154 1146.8,676.654 1143.5,676C 1144.06,675.617 1144.39,675.117 1144.5,674.5 Z"/></g>
<g><path style="opacity:1" fill="#e4ddba" d="M 1475.5,674.5 C 1476.76,674.461 1477.76,674.961 1478.5,676C 1477.17,676.667 1475.83,676.667 1474.5,676C 1475.06,675.617 1475.39,675.117 1475.5,674.5 Z"/></g>
<g><path style="opacity:1" fill="#e4ddba" d="M 1139.5,676.5 C 1140.29,676.783 1140.96,677.283 1141.5,678C 1140.18,678.528 1139.52,678.028 1139.5,676.5 Z"/></g>
<g><path style="opacity:1" fill="#e4ddba" d="M 1605.5,679.5 C 1607.34,679.639 1607.67,680.306 1606.5,681.5C 1605.7,681.043 1605.37,680.376 1605.5,679.5 Z"/></g>
<g><path style="opacity:1" fill="#e4ddba" d="M 311.5,688.5 C 313.265,687.539 315.265,687.205 317.5,687.5C 317.033,689.711 316.033,691.711 314.5,693.5C 314.563,692.34 314.23,691.006 313.5,689.5C 313.043,688.702 312.376,688.369 311.5,688.5 Z"/></g>
<g><path style="opacity:1" fill="#e4ddba" d="M 1566.5,701.5 C 1569.18,700.154 1571.52,700.82 1573.5,703.5C 1573,703.833 1572.5,704.167 1572,704.5C 1570.24,703.368 1568.4,702.368 1566.5,701.5 Z"/></g>
<g><path style="opacity:1" fill="#e4ddba" d="M 954.5,712.5 C 955.289,712.783 955.956,713.283 956.5,714C 955.184,714.528 954.517,714.028 954.5,712.5 Z"/></g>
<g><path style="opacity:1" fill="#e4ddba" d="M 765.5,737.5 C 766.077,736.227 766.743,736.227 767.5,737.5C 767.03,738.463 766.363,738.463 765.5,737.5 Z"/></g>
<g><path style="opacity:1" fill="#e4ddba" d="M 1429.5,736.5 C 1434.14,736.608 1434.47,737.608 1430.5,739.5C 1429.61,738.675 1429.28,737.675 1429.5,736.5 Z"/></g>
<g><path style="opacity:1" fill="#e4ddba" d="M 1433.5,739.5 C 1435.34,739.639 1435.67,740.306 1434.5,741.5C 1433.7,741.043 1433.37,740.376 1433.5,739.5 Z"/></g>
<g><path style="opacity:1" fill="#e4ddba" d="M 327.5,753.5 C 329.337,753.639 329.67,754.306 328.5,755.5C 327.702,755.043 327.369,754.376 327.5,753.5 Z"/></g>
<g><path style="opacity:1" fill="#e4ddba" d="M 535.5,762.5 C 537.956,763.688 540.289,765.021 542.5,766.5C 539.816,767.139 537.316,767.139 535,766.5C 534.421,765.072 534.588,763.738 535.5,762.5 Z"/></g>
<g><path style="opacity:1" fill="#e4ddba" d="M 1526.5,762.5 C 1530.15,763.462 1531.31,765.795 1530,769.5C 1529,770.833 1528,770.833 1527,769.5C 1526.5,767.19 1526.34,764.857 1526.5,762.5 Z"/></g>
<g><path style="opacity:1" fill="#e4ddba" d="M 1065.5,766.5 C 1066.64,766.908 1067.64,767.575 1068.5,768.5C 1066.6,769.639 1065.6,768.973 1065.5,766.5 Z"/></g>
<g><path style="opacity:1" fill="#e4ddba" d="M 1397.5,766.5 C 1400.4,767.178 1400.9,768.512 1399,770.5C 1398.21,769.255 1397.71,767.922 1397.5,766.5 Z"/></g>
<g><path style="opacity:1" fill="#e4ddba" d="M 734.5,767.5 C 736.337,767.639 736.67,768.306 735.5,769.5C 734.702,769.043 734.369,768.376 734.5,767.5 Z"/></g>
<g><path style="opacity:1" fill="#e4ddba" d="M 860.5,768.5 C 862.465,768.948 862.798,769.948 861.5,771.5C 860.614,770.675 860.281,769.675 860.5,768.5 Z"/></g>
<g><path style="opacity:1" fill="#e4ddba" d="M 1188.5,768.5 C 1192.55,769.335 1193.22,771.168 1190.5,774C 1192.54,779.717 1191.37,779.884 1187,774.5C 1186.25,772.16 1186.75,770.16 1188.5,768.5 Z"/></g>
<g><path style="opacity:1" fill="#e4ddba" d="M 854.5,769.5 C 857.5,769.167 858.833,770.5 858.5,773.5C 855.858,773.512 854.525,772.179 854.5,769.5 Z"/></g>
<g><path style="opacity:1" fill="#e4ddba" d="M 537.5,773.5 C 539.337,773.639 539.67,774.306 538.5,775.5C 537.702,775.043 537.369,774.376 537.5,773.5 Z"/></g>
<g><path style="opacity:1" fill="#e4ddba" d="M 744.5,773.5 C 746.176,774.183 746.843,775.517 746.5,777.5C 745.325,777.719 744.325,777.386 743.5,776.5C 744.127,775.583 744.461,774.583 744.5,773.5 Z"/></g>
<g><path style="opacity:1" fill="#e4ddba" d="M 869.5,773.5 C 871.337,773.639 871.67,774.306 870.5,775.5C 869.702,775.043 869.369,774.376 869.5,773.5 Z"/></g>
<g><path style="opacity:1" fill="#e4ddba" d="M 1532.5,773.5 C 1534.34,773.639 1534.67,774.306 1533.5,775.5C 1532.7,775.043 1532.37,774.376 1532.5,773.5 Z"/></g>
<g><path style="opacity:1" fill="#e4ddba" d="M 850.5,778.5 C 852.912,778.244 854.579,779.244 855.5,781.5C 852.167,783.252 850.501,782.252 850.5,778.5 Z"/></g>
<g><path style="opacity:1" fill="#e4ddba" d="M 872.5,778.5 C 873.376,778.369 874.043,778.702 874.5,779.5C 872.993,783.355 872.326,783.021 872.5,778.5 Z"/></g>
<g><path style="opacity:1" fill="#e4ddba" d="M 1535.5,778.5 C 1537.46,778.948 1537.8,779.948 1536.5,781.5C 1535.61,780.675 1535.28,779.675 1535.5,778.5 Z"/></g>
<g><path style="opacity:1" fill="#e4ddba" d="M 1182.5,779.5 C 1184.34,779.639 1184.67,780.306 1183.5,781.5C 1182.7,781.043 1182.37,780.376 1182.5,779.5 Z"/></g>
<g><path style="opacity:1" fill="#e4ddba" d="M 841.5,782.5 C 843.117,783.038 844.784,783.371 846.5,783.5C 846.719,784.675 846.386,785.675 845.5,786.5C 843.775,785.985 842.108,785.318 840.5,784.5C 840.863,783.817 841.196,783.15 841.5,782.5 Z"/></g>
<g><path style="opacity:1" fill="#e4ddba" d="M 510.5,784.5 C 511.5,784.5 512.5,784.5 513.5,784.5C 513.5,785.833 513.5,787.167 513.5,788.5C 508.941,788.991 507.941,787.658 510.5,784.5 Z"/></g>
<g><path style="opacity:1" fill="#e4ddba" d="M 1604.5,784.5 C 1606.53,785.048 1607.53,786.381 1607.5,788.5C 1605.32,788.716 1603.65,787.883 1602.5,786C 1603.42,785.722 1604.08,785.222 1604.5,784.5 Z"/></g>
<g><path style="opacity:1" fill="#e4ddba" d="M 1097.5,788.5 C 1098.83,788.5 1100.17,788.5 1101.5,788.5C 1102.92,793.539 1101.42,794.539 1097,791.5C 1096.53,790.423 1096.7,789.423 1097.5,788.5 Z"/></g>
<g><path style="opacity:1" fill="#e4ddba" d="M 861.5,790.5 C 862.776,791.386 862.776,792.386 861.5,793.5C 860.438,792.575 860.438,791.575 861.5,790.5 Z"/></g>
<g><path style="opacity:1" fill="#e4ddba" d="M 529.5,791.5 C 530.756,791.461 531.756,791.961 532.5,793C 531.167,793.667 529.833,793.667 528.5,793C 529.056,792.617 529.389,792.117 529.5,791.5 Z"/></g>
<g><path style="opacity:1" fill="#e4ddba" d="M 1182.5,806.5 C 1184.07,806.937 1185.24,807.937 1186,809.5C 1185.74,811.975 1184.74,811.975 1183,809.5C 1182.52,808.552 1182.35,807.552 1182.5,806.5 Z"/></g>
<g><path style="opacity:1" fill="#e4ddba" d="M 1508.5,809.5 C 1510.91,809.694 1511.91,811.027 1511.5,813.5C 1510.5,813.5 1509.5,813.5 1508.5,813.5C 1508.5,812.167 1508.5,810.833 1508.5,809.5 Z"/></g>
<g><path style="opacity:1" fill="#e4ddba" d="M 493.5,812.5 C 495.97,813.36 496.137,814.694 494,816.5C 493.51,815.207 493.343,813.873 493.5,812.5 Z"/></g>
<g><path style="opacity:1" fill="#e4ddba" d="M 1177.5,812.5 C 1178.65,812.791 1179.32,813.624 1179.5,815C 1179.17,815.833 1178.83,816.667 1178.5,817.5C 1177.55,815.955 1177.21,814.288 1177.5,812.5 Z"/></g>
<g><path style="opacity:1" fill="#e4ddba" d="M 1157.5,814.5 C 1159.98,814.747 1159.98,815.413 1157.5,816.5C 1156.54,816.03 1156.54,815.363 1157.5,814.5 Z"/></g>
<g><path style="opacity:1" fill="#e4ddba" d="M 1079.5,819.5 C 1081,819.415 1082,820.081 1082.5,821.5C 1079.22,823.151 1078.22,822.485 1079.5,819.5 Z"/></g>
<g><path style="opacity:1" fill="#e4ddba" d="M 314.5,820.5 C 316.085,821.002 316.585,822.002 316,823.5C 314.961,822.756 314.461,821.756 314.5,820.5 Z"/></g>
<g><path style="opacity:1" fill="#e4ddba" d="M 752.5,821.5 C 758.084,824.409 757.751,826.075 751.5,826.5C 751.5,828.167 751.5,829.833 751.5,831.5C 744.901,829.605 744.901,827.272 751.5,824.5C 752.127,823.583 752.461,822.583 752.5,821.5 Z"/></g>
<g><path style="opacity:1" fill="#e4ddba" d="M 1416.5,821.5 C 1417.5,821.47 1418.16,821.97 1418.5,823C 1417.43,827.246 1414.76,829.413 1410.5,829.5C 1410.22,826.612 1411.55,825.112 1414.5,825C 1415.82,824.184 1416.49,823.017 1416.5,821.5 Z"/></g>
<g><path style="opacity:1" fill="#e4ddba" d="M 372.5,832.5 C 374.609,833.052 375.442,834.386 375,836.5C 373.519,835.529 372.685,834.196 372.5,832.5 Z"/></g>
<g><path style="opacity:1" fill="#e4ddba" d="M 1047.5,832.5 C 1050,832.511 1050.17,833.178 1048,834.5C 1047.54,833.906 1047.37,833.239 1047.5,832.5 Z"/></g>
<g><path style="opacity:1" fill="#e4ddba" d="M 1164.5,833.5 C 1166.34,833.639 1166.67,834.306 1165.5,835.5C 1164.7,835.043 1164.37,834.376 1164.5,833.5 Z"/></g>
<g><path style="opacity:1" fill="#e4ddba" d="M 1119.5,837.5 C 1121.77,839.193 1122.1,841.36 1120.5,844C 1121.31,844.308 1121.97,844.808 1122.5,845.5C 1121.5,846.333 1120.5,847.167 1119.5,848C 1122.35,850.078 1122.69,852.245 1120.5,854.5C 1121.83,856.167 1123.17,857.833 1124.5,859.5C 1123.19,860.912 1122.36,862.579 1122,864.5C 1120.28,863.448 1119.28,864.114 1119,866.5C 1117.28,864.798 1117.11,862.965 1118.5,861C 1116.1,860.814 1113.77,860.314 1111.5,859.5C 1113.53,857.751 1113.86,855.751 1112.5,853.5C 1113.25,851.668 1114.25,850.001 1115.5,848.5C 1115.17,847.833 1114.83,847.167 1114.5,846.5C 1116.36,843.566 1118.03,840.566 1119.5,837.5 Z"/></g>
<g><path style="opacity:1" fill="#e4ddba" d="M 1605.5,840.5 C 1607.46,840.948 1607.8,841.948 1606.5,843.5C 1605.61,842.675 1605.28,841.675 1605.5,840.5 Z"/></g>
<g><path style="opacity:1" fill="#e4ddba" d="M 1446.5,853.5 C 1447.68,853.281 1448.68,853.614 1449.5,854.5C 1447.95,855.798 1446.95,855.465 1446.5,853.5 Z"/></g>
<g><path style="opacity:1" fill="#e4ddba" d="M 1126.5,857.5 C 1128.34,857.639 1128.67,858.306 1127.5,859.5C 1126.7,859.043 1126.37,858.376 1126.5,857.5 Z"/></g>
<g><path style="opacity:1" fill="#e4ddba" d="M 1421.5,858.5 C 1424.8,858.329 1425.13,858.995 1422.5,860.5C 1421.7,860.043 1421.37,859.376 1421.5,858.5 Z"/></g>
<g><path style="opacity:1" fill="#e4ddba" d="M 462.5,863.5 C 464.973,863.947 465.14,864.947 463,866.5C 462.517,865.552 462.351,864.552 462.5,863.5 Z"/></g>
<g><path style="opacity:1" fill="#e4ddba" d="M 1298.5,875.5 C 1299.98,875.238 1301.31,875.571 1302.5,876.5C 1301.69,878.071 1301.36,879.738 1301.5,881.5C 1300.13,881.657 1298.79,881.49 1297.5,881C 1298.41,879.301 1298.74,877.467 1298.5,875.5 Z"/></g>
<g><path style="opacity:1" fill="#e4ddba" d="M 1289.5,876.5 C 1290.59,876.62 1291.25,877.287 1291.5,878.5C 1290.7,880.957 1289.7,880.957 1288.5,878.5C 1288.86,877.817 1289.2,877.15 1289.5,876.5 Z"/></g>
<g><path style="opacity:1" fill="#e4ddba" d="M 1295.5,878.5 C 1296.4,879.209 1296.74,880.209 1296.5,881.5C 1291.55,881.81 1291.21,880.81 1295.5,878.5 Z"/></g>
<g><path style="opacity:1" fill="#e4ddba" d="M 1604.5,882.5 C 1605.5,882.47 1606.16,882.97 1606.5,884C 1606.05,886.036 1605.21,887.87 1604,889.5C 1604.21,887.249 1604.37,884.915 1604.5,882.5 Z"/></g>
<g><path style="opacity:1" fill="#e4ddba" d="M 1183.5,884.5 C 1185.34,884.639 1185.67,885.306 1184.5,886.5C 1183.7,886.043 1183.37,885.376 1183.5,884.5 Z"/></g>
<g><path style="opacity:1" fill="#e4ddba" d="M 1606.5,892.5 C 1607.78,893.708 1607.78,895.042 1606.5,896.5C 1605.71,895.3 1605.71,893.967 1606.5,892.5 Z"/></g>
<g><path style="opacity:1" fill="#e4ddba" d="M 668.5,899.5 C 666.972,899.483 666.472,898.816 667,897.5C 667.717,898.044 668.217,898.711 668.5,899.5 Z"/></g>
<g><path style="opacity:1" fill="#e4ddba" d="M 668.5,899.5 C 669.5,899.5 670.5,899.5 671.5,899.5C 671.283,903.06 670.283,903.06 668.5,899.5 Z"/></g>
<g><path style="opacity:1" fill="#e4ddba" d="M 1535.5,921.5 C 1539.65,922.444 1540.31,924.444 1537.5,927.5C 1535.95,928.452 1534.29,928.785 1532.5,928.5C 1532.5,926.5 1532.5,924.5 1532.5,922.5C 1533.79,922.737 1534.79,922.404 1535.5,921.5 Z"/></g>
<g><path style="opacity:1" fill="#e4ddba" d="M 311.5,961.5 C 313.666,962.824 313.999,964.657 312.5,967C 313.01,969.706 313.677,972.373 314.5,975C 313.683,976.49 312.85,977.99 312,979.5C 311.501,973.509 311.334,967.509 311.5,961.5 Z"/></g>
<g><path style="opacity:1" fill="#e4ddba" d="M 763.5,961.5 C 766.564,961.603 767.564,962.936 766.5,965.5C 763.649,965.037 762.649,963.704 763.5,961.5 Z"/></g>
<g><path style="opacity:1" fill="#e4ddba" d="M 809.5,971.5 C 811.337,971.639 811.67,972.306 810.5,973.5C 809.702,973.043 809.369,972.376 809.5,971.5 Z"/></g>
<g><path style="opacity:1" fill="#e4ddba" d="M 480.5,1006.5 C 481.376,1006.37 482.043,1006.7 482.5,1007.5C 480.192,1008.87 479.525,1008.54 480.5,1006.5 Z"/></g>
<g><path style="opacity:1" fill="#e4ddba" d="M 1606.5,1010.5 C 1607.71,1011.5 1607.55,1012.5 1606,1013.5C 1605.53,1012.42 1605.7,1011.42 1606.5,1010.5 Z"/></g>
<g><path style="opacity:1" fill="#e4ddba" d="M 311.5,1016.5 C 314.747,1018.74 314.747,1020.07 311.5,1020.5C 311.5,1019.17 311.5,1017.83 311.5,1016.5 Z"/></g>
<g><path style="opacity:1" fill="#e4ddba" d="M 555.5,1029.5 C 557.337,1029.64 557.67,1030.31 556.5,1031.5C 555.702,1031.04 555.369,1030.38 555.5,1029.5 Z"/></g>
<g><path style="opacity:1" fill="#e4ddba" d="M 1566.5,1033.5 C 1569.18,1032.15 1571.52,1032.82 1573.5,1035.5C 1573,1035.83 1572.5,1036.17 1572,1036.5C 1570.24,1035.37 1568.4,1034.37 1566.5,1033.5 Z"/></g>
</svg>
