<?xml version="1.0" encoding="UTF-8"?>
<!DOCTYPE svg PUBLIC "-//W3C//DTD SVG 1.1//EN" "http://www.w3.org/Graphics/SVG/1.1/DTD/svg11.dtd">
<svg xmlns="http://www.w3.org/2000/svg" version="1.1" width="1920px" height="1080px" style="shape-rendering:geometricPrecision; text-rendering:geometricPrecision; image-rendering:optimizeQuality; fill-rule:evenodd; clip-rule:evenodd" xmlns:xlink="http://www.w3.org/1999/xlink">
<g><path style="opacity:0.999" fill="#e5ddbb" d="M -0.5,-0.5 C 639.5,-0.5 1279.5,-0.5 1919.5,-0.5C 1919.5,359.5 1919.5,719.5 1919.5,1079.5C 1279.5,1079.5 639.5,1079.5 -0.5,1079.5C -0.5,719.5 -0.5,359.5 -0.5,-0.5 Z"/></g>
<g><path style="opacity:1" fill="#e1d9b8" d="M 639.5,85.5 C 639.631,84.6236 639.298,83.9569 638.5,83.5C 637.416,84.6651 636.583,85.9984 636,87.5C 634.657,93.2047 633.157,98.8714 631.5,104.5C 630.473,106.194 629.139,107.527 627.5,108.5C 625.718,107.28 623.718,106.614 621.5,106.5C 620.738,104.738 619.404,103.738 617.5,103.5C 617.062,99.6871 615.729,96.3538 613.5,93.5C 613.67,92.1779 613.337,91.0113 612.5,90C 610.391,88.3545 608.057,87.1878 605.5,86.5C 605.082,85.7784 604.416,85.2784 603.5,85C 599.509,84.3583 595.509,83.8583 591.5,83.5C 592.016,78.814 590.016,76.4807 585.5,76.5C 585.752,73.6802 585.252,71.0135 584,68.5C 582.644,67.6198 581.144,67.2865 579.5,67.5C 582.298,65.1573 585.298,65.1573 588.5,67.5C 590.016,71.2224 591.683,74.8891 593.5,78.5C 598.874,82.4032 599.874,81.0698 596.5,74.5C 598.043,71.7468 600.376,70.9135 603.5,72C 604.451,72.7175 604.617,73.5509 604,74.5C 603.107,73.2888 602.274,73.2888 601.5,74.5C 603.03,77.4263 603.863,80.4263 604,83.5C 607.947,81.2202 611.613,78.5535 615,75.5C 615.667,71.5 616.333,67.5 617,63.5C 617.414,63.0426 617.914,62.7093 618.5,62.5C 619.221,64.686 619.887,66.8526 620.5,69C 619.833,69.6667 619.167,70.3333 618.5,71C 620.279,70.956 621.945,70.2893 623.5,69C 626.833,68.3333 630.167,68.3333 633.5,69C 634.578,69.6739 635.245,70.6739 635.5,72C 634.516,73.1235 633.849,74.6235 633.5,76.5C 633.507,79.1687 634.841,80.5021 637.5,80.5C 639.577,79.0629 641.91,78.3962 644.5,78.5C 644.27,81.8719 642.603,84.2053 639.5,85.5 Z"/></g>
<g><path style="opacity:1" fill="#c7c0a2" d="M 578.5,74.5 C 579.312,76.7757 580.646,78.7757 582.5,80.5C 582.145,81.5223 581.478,82.189 580.5,82.5C 580.174,80.3393 579.174,78.5059 577.5,77C 574.148,76.1621 570.815,75.3288 567.5,74.5C 561.464,71.9577 555.798,68.7911 550.5,65C 555.079,66.1175 559.412,68.1175 563.5,71C 568.141,72.6027 572.808,74.1027 577.5,75.5C 578.107,75.3764 578.44,75.0431 578.5,74.5 Z"/></g>
<g><path style="opacity:0.839" fill="#8a8671" d="M 578.5,71.5 C 580.213,72.305 581.879,73.305 583.5,74.5C 582.833,75.1667 582.167,75.8333 581.5,76.5C 583.516,78.2547 585.183,80.2547 586.5,82.5C 583.966,82.2591 582.3,83.2591 581.5,85.5C 580.596,84.791 580.263,83.791 580.5,82.5C 581.478,82.189 582.145,81.5223 582.5,80.5C 580.646,78.7757 579.312,76.7757 578.5,74.5C 578.5,73.5 578.5,72.5 578.5,71.5 Z"/></g>
<g><path style="opacity:1" fill="#e1d9b8" d="M 567.5,74.5 C 570.815,75.3288 574.148,76.1621 577.5,77C 579.174,78.5059 580.174,80.3393 580.5,82.5C 580.263,83.791 580.596,84.791 581.5,85.5C 581.617,87.4835 580.95,89.1502 579.5,90.5C 582.768,91.487 586.102,91.8204 589.5,91.5C 587.409,95.786 587.076,100.119 588.5,104.5C 589.028,105.721 589.695,106.887 590.5,108C 594.152,108.499 597.818,108.665 601.5,108.5C 602.815,109.476 604.148,110.476 605.5,111.5C 605.833,111.167 606.167,110.833 606.5,110.5C 605.807,109.482 605.141,108.482 604.5,107.5C 604.401,104.763 604.735,102.096 605.5,99.5C 605.5,98.8333 605.5,98.1667 605.5,97.5C 607.456,95.8516 609.789,95.1849 612.5,95.5C 613.525,96.3739 614.192,97.5405 614.5,99C 612.818,100.895 612.318,103.062 613,105.5C 613.671,106.252 614.504,106.586 615.5,106.5C 617.869,107.69 619.869,109.357 621.5,111.5C 621.414,112.496 621.748,113.329 622.5,114C 620.203,114.018 617.869,113.851 615.5,113.5C 613.102,113.259 611.102,113.926 609.5,115.5C 607.917,117.663 606.584,119.996 605.5,122.5C 604.837,120.958 604.17,119.291 603.5,117.5C 601.253,118.374 598.92,118.708 596.5,118.5C 596.67,119.822 596.337,120.989 595.5,122C 593.324,122.163 591.491,122.996 590,124.5C 589.333,123.833 588.667,123.167 588,122.5C 586.023,122.658 583.857,122.825 581.5,123C 583.996,121.92 586.33,120.586 588.5,119C 587.216,117.703 587.383,116.536 589,115.5C 589.497,113.19 589.663,110.857 589.5,108.5C 585.471,108.943 583.471,107.109 583.5,103C 581.782,102.654 580.115,102.154 578.5,101.5C 575.118,102.246 571.785,102.579 568.5,102.5C 567.252,101.96 566.085,101.293 565,100.5C 564.43,103.844 563.264,104.177 561.5,101.5C 560.264,102.246 558.93,102.579 557.5,102.5C 557.67,101.178 557.337,100.011 556.5,99C 558.193,97.287 559.526,95.287 560.5,93C 557.558,91.0428 556.225,88.2095 556.5,84.5C 558.857,84.6633 561.19,84.4966 563.5,84C 564.167,82.3333 564.833,80.6667 565.5,79C 568.167,78.6667 570.833,78.3333 573.5,78C 571.945,76.3542 570.279,76.0209 568.5,77C 567.748,76.3292 567.414,75.4959 567.5,74.5 Z"/></g>
<g><path style="opacity:1" fill="#99947d" d="M 449.5,85.5 C 449.833,86.1667 450.167,86.8333 450.5,87.5C 445.145,87.8139 439.978,88.8139 435,90.5C 434.552,88.5911 435.385,87.4244 437.5,87C 441.548,86.6958 445.548,86.1958 449.5,85.5 Z"/></g>
<g><path style="opacity:1" fill="#a09a83" d="M 590.5,85.5 C 593.572,85.1826 596.572,85.5159 599.5,86.5C 596.384,86.9201 593.717,87.9201 591.5,89.5C 590.566,88.4324 590.232,87.099 590.5,85.5 Z"/></g>
<g><path style="opacity:1" fill="#6d6959" d="M 449.5,85.5 C 451.062,85.7329 452.395,86.3995 453.5,87.5C 453.672,88.4916 453.338,89.1583 452.5,89.5C 451.833,88.8333 451.167,88.1667 450.5,87.5C 450.167,86.8333 449.833,86.1667 449.5,85.5 Z"/></g>
<g><path style="opacity:1" fill="#cfc8a9" d="M 579.5,67.5 C 581.144,67.2865 582.644,67.6198 584,68.5C 585.252,71.0135 585.752,73.6802 585.5,76.5C 590.016,76.4807 592.016,78.814 591.5,83.5C 595.509,83.8583 599.509,84.3583 603.5,85C 604.416,85.2784 605.082,85.7784 605.5,86.5C 603.158,86.7748 603.158,87.6081 605.5,89C 607.025,90.0086 608.692,90.5086 610.5,90.5C 610.5,91.5 610.5,92.5 610.5,93.5C 607.539,93.4642 605.206,94.4642 603.5,96.5C 603.672,97.4916 603.338,98.1583 602.5,98.5C 602.854,92.7962 600.187,90.9629 594.5,93C 593.956,93.7172 593.289,94.2172 592.5,94.5C 592.5,94.1667 592.5,93.8333 592.5,93.5C 592.167,92.1667 591.833,90.8333 591.5,89.5C 593.717,87.9201 596.384,86.9201 599.5,86.5C 596.572,85.5159 593.572,85.1826 590.5,85.5C 588.381,85.5323 587.048,84.5323 586.5,82.5C 585.183,80.2547 583.516,78.2547 581.5,76.5C 582.167,75.8333 582.833,75.1667 583.5,74.5C 581.879,73.305 580.213,72.305 578.5,71.5C 578.833,70.1667 579.167,68.8333 579.5,67.5 Z"/></g>
<g><path style="opacity:0.859" fill="#565346" d="M 586.5,82.5 C 587.048,84.5323 588.381,85.5323 590.5,85.5C 590.232,87.099 590.566,88.4324 591.5,89.5C 591.833,90.8333 592.167,92.1667 592.5,93.5C 591.222,93.2178 590.222,92.5511 589.5,91.5C 589.5,90.1667 589.5,88.8333 589.5,87.5C 587.5,87.8333 585.5,88.1667 583.5,88.5C 583.715,86.8212 583.048,85.8212 581.5,85.5C 582.3,83.2591 583.966,82.2591 586.5,82.5 Z"/></g>
<g><path style="opacity:1" fill="#9e9981" d="M 581.5,85.5 C 583.048,85.8212 583.715,86.8212 583.5,88.5C 585.5,88.1667 587.5,87.8333 589.5,87.5C 589.5,88.8333 589.5,90.1667 589.5,91.5C 586.102,91.8204 582.768,91.487 579.5,90.5C 580.95,89.1502 581.617,87.4835 581.5,85.5 Z"/></g>
<g><path style="opacity:1" fill="#a5a087" d="M 453.5,87.5 C 454.249,88.531 454.915,89.6976 455.5,91C 458.54,91.3201 461.54,91.3201 464.5,91C 461.49,93.169 458.156,93.8357 454.5,93C 453.695,91.8873 453.028,90.7206 452.5,89.5C 453.338,89.1583 453.672,88.4916 453.5,87.5 Z"/></g>
<g><path style="opacity:1" fill="#ada68d" d="M 589.5,91.5 C 590.222,92.5511 591.222,93.2178 592.5,93.5C 592.5,93.8333 592.5,94.1667 592.5,94.5C 590.692,95.9179 590.025,97.9179 590.5,100.5C 590.5,100.833 590.5,101.167 590.5,101.5C 588.952,101.821 588.285,102.821 588.5,104.5C 587.076,100.119 587.409,95.786 589.5,91.5 Z"/></g>
<g><path style="opacity:1" fill="#e1d9b8" d="M 602.5,98.5 C 602.5,98.8333 602.5,99.1667 602.5,99.5C 598.6,100.43 594.6,100.763 590.5,100.5C 590.025,97.9179 590.692,95.9179 592.5,94.5C 593.289,94.2172 593.956,93.7172 594.5,93C 600.187,90.9629 602.854,92.7962 602.5,98.5 Z"/></g>
<g><path style="opacity:1" fill="#8d8973" d="M 605.5,86.5 C 608.057,87.1878 610.391,88.3545 612.5,90C 613.337,91.0113 613.67,92.1779 613.5,93.5C 613.167,94.1667 612.833,94.8333 612.5,95.5C 609.789,95.1849 607.456,95.8516 605.5,97.5C 605.591,95.3023 604.925,94.9689 603.5,96.5C 605.206,94.4642 607.539,93.4642 610.5,93.5C 610.5,92.5 610.5,91.5 610.5,90.5C 608.692,90.5086 607.025,90.0086 605.5,89C 603.158,87.6081 603.158,86.7748 605.5,86.5 Z"/></g>
<g><path style="opacity:1" fill="#676354" d="M 639.5,85.5 C 637.844,90.7184 636.178,96.0518 634.5,101.5C 637.423,103.961 637.089,105.628 633.5,106.5C 633.5,105.167 632.833,104.5 631.5,104.5C 633.157,98.8714 634.657,93.2047 636,87.5C 636.583,85.9984 637.416,84.6651 638.5,83.5C 639.298,83.9569 639.631,84.6236 639.5,85.5 Z"/></g>
<g><path style="opacity:1" fill="#dcd5b4" d="M 639.5,85.5 C 639.086,90.0745 638.419,94.5745 637.5,99C 640.719,98.4983 643.552,96.9983 646,94.5C 647.585,95.3757 648.585,96.7091 649,98.5C 649.833,97.5 650.667,96.5 651.5,95.5C 653.003,96.0522 654.669,96.0522 656.5,95.5C 656.5,97.1667 656.5,98.8333 656.5,100.5C 658.124,100.64 659.29,99.9733 660,98.5C 662.014,100.97 661.847,102.97 659.5,104.5C 657.71,101.953 656.044,102.286 654.5,105.5C 655.425,106.562 656.425,106.562 657.5,105.5C 657.209,106.649 656.376,107.316 655,107.5C 653.175,107.057 651.342,106.723 649.5,106.5C 649.421,105.07 649.754,103.736 650.5,102.5C 648.955,101.548 647.288,101.215 645.5,101.5C 645.82,104.898 645.487,108.232 644.5,111.5C 643.833,111.833 643.167,112.167 642.5,112.5C 640.823,110.46 639.156,108.46 637.5,106.5C 634.943,109.689 633.943,113.355 634.5,117.5C 633.833,116.833 633.167,116.167 632.5,115.5C 632.08,113.906 631.414,112.406 630.5,111C 631.315,109.357 632.315,107.857 633.5,106.5C 637.089,105.628 637.423,103.961 634.5,101.5C 636.178,96.0518 637.844,90.7184 639.5,85.5 Z"/></g>
<g><path style="opacity:1" fill="#bbb599" d="M 613.5,93.5 C 615.729,96.3538 617.062,99.6871 617.5,103.5C 613.26,102.075 612.593,103.075 615.5,106.5C 614.504,106.586 613.671,106.252 613,105.5C 612.318,103.062 612.818,100.895 614.5,99C 614.192,97.5405 613.525,96.3739 612.5,95.5C 612.833,94.8333 613.167,94.1667 613.5,93.5 Z"/></g>
<g><path style="opacity:1" fill="#615d4f" d="M 605.5,97.5 C 605.5,98.1667 605.5,98.8333 605.5,99.5C 604.542,99.9528 603.708,100.619 603,101.5C 602.536,100.906 602.369,100.239 602.5,99.5C 602.5,99.1667 602.5,98.8333 602.5,98.5C 603.338,98.1583 603.672,97.4916 603.5,96.5C 604.925,94.9689 605.591,95.3023 605.5,97.5 Z"/></g>
<g><path style="opacity:0.967" fill="#cfc8a9" d="M 602.5,99.5 C 602.369,100.239 602.536,100.906 603,101.5C 603.708,100.619 604.542,99.9528 605.5,99.5C 604.735,102.096 604.401,104.763 604.5,107.5C 603.609,106.89 602.609,106.557 601.5,106.5C 598.167,106.5 594.833,106.5 591.5,106.5C 591.784,104.585 591.451,102.919 590.5,101.5C 590.5,101.167 590.5,100.833 590.5,100.5C 594.6,100.763 598.6,100.43 602.5,99.5 Z"/></g>
<g><path style="opacity:1" fill="#4f4c40" d="M 590.5,101.5 C 590.715,103.179 590.048,104.179 588.5,104.5C 588.285,102.821 588.952,101.821 590.5,101.5 Z"/></g>
<g><path style="opacity:1" fill="#96907a" d="M 617.5,103.5 C 619.404,103.738 620.738,104.738 621.5,106.5C 619.596,106.262 618.262,105.262 617.5,103.5 Z"/></g>
<g><path style="opacity:1" fill="#a8a289" d="M 659.5,104.5 C 658.508,104.328 657.842,104.662 657.5,105.5C 656.425,106.562 655.425,106.562 654.5,105.5C 656.044,102.286 657.71,101.953 659.5,104.5 Z"/></g>
<g><path style="opacity:1" fill="#aea88e" d="M 590.5,101.5 C 591.451,102.919 591.784,104.585 591.5,106.5C 594.833,106.5 598.167,106.5 601.5,106.5C 601.5,107.167 601.5,107.833 601.5,108.5C 597.818,108.665 594.152,108.499 590.5,108C 589.695,106.887 589.028,105.721 588.5,104.5C 590.048,104.179 590.715,103.179 590.5,101.5 Z"/></g>
<g><path style="opacity:1" fill="#807c69" d="M 601.5,106.5 C 602.609,106.557 603.609,106.89 604.5,107.5C 605.141,108.482 605.807,109.482 606.5,110.5C 606.167,110.833 605.833,111.167 605.5,111.5C 604.148,110.476 602.815,109.476 601.5,108.5C 601.5,107.833 601.5,107.167 601.5,106.5 Z"/></g>
<g><path style="opacity:1" fill="#2a2923" d="M 617.5,103.5 C 618.262,105.262 619.596,106.262 621.5,106.5C 622.429,107.315 623.429,108.148 624.5,109C 625.749,109.74 626.749,109.573 627.5,108.5C 629.139,107.527 630.473,106.194 631.5,104.5C 632.833,104.5 633.5,105.167 633.5,106.5C 632.315,107.857 631.315,109.357 630.5,111C 631.414,112.406 632.08,113.906 632.5,115.5C 632.778,117.346 632.111,118.68 630.5,119.5C 628.14,117.338 625.807,115.338 623.5,113.5C 623.167,112.5 622.5,111.833 621.5,111.5C 619.869,109.357 617.869,107.69 615.5,106.5C 612.593,103.075 613.26,102.075 617.5,103.5 Z"/></g>
<g><path style="opacity:1" fill="#a5a087" d="M 621.5,106.5 C 623.718,106.614 625.718,107.28 627.5,108.5C 626.749,109.573 625.749,109.74 624.5,109C 623.429,108.148 622.429,107.315 621.5,106.5 Z"/></g>
<g><path style="opacity:0.839" fill="#8b8672" d="M 621.5,111.5 C 622.5,111.833 623.167,112.5 623.5,113.5C 623.03,114.693 622.03,115.36 620.5,115.5C 618.443,115.564 616.777,114.898 615.5,113.5C 617.869,113.851 620.203,114.018 622.5,114C 621.748,113.329 621.414,112.496 621.5,111.5 Z"/></g>
<g><path style="opacity:1" fill="#3d3b32" d="M 615.5,113.5 C 616.777,114.898 618.443,115.564 620.5,115.5C 622.03,115.36 623.03,114.693 623.5,113.5C 625.807,115.338 628.14,117.338 630.5,119.5C 632.111,118.68 632.778,117.346 632.5,115.5C 633.167,116.167 633.833,116.833 634.5,117.5C 634.833,118.833 635.167,120.167 635.5,121.5C 635.5,122.167 635.5,122.833 635.5,123.5C 634.167,123.5 632.833,123.5 631.5,123.5C 631.343,124.873 631.51,126.207 632,127.5C 634.951,130.172 636.117,133.505 635.5,137.5C 635.167,137.5 634.833,137.5 634.5,137.5C 632.833,135.5 631.167,133.5 629.5,131.5C 629.821,130.183 630.154,128.849 630.5,127.5C 629.805,122.138 626.805,119.138 621.5,118.5C 620.833,118.5 620.167,118.5 619.5,118.5C 616.764,116.492 613.764,116.158 610.5,117.5C 609.702,117.043 609.369,116.376 609.5,115.5C 611.102,113.926 613.102,113.259 615.5,113.5 Z"/></g>
<g><path style="opacity:1" fill="#afa98f" d="M 609.5,115.5 C 609.369,116.376 609.702,117.043 610.5,117.5C 613.764,116.158 616.764,116.492 619.5,118.5C 616.15,118.335 612.817,118.502 609.5,119C 608.468,120.627 607.134,121.793 605.5,122.5C 606.584,119.996 607.917,117.663 609.5,115.5 Z"/></g>
<g><path style="opacity:1" fill="#5f5c4e" d="M 621.5,118.5 C 626.805,119.138 629.805,122.138 630.5,127.5C 630.154,128.849 629.821,130.183 629.5,131.5C 627.5,129.167 625.5,126.833 623.5,124.5C 623.296,122.315 622.63,120.315 621.5,118.5 Z"/></g>
<g><path style="opacity:1" fill="#ded6b5" d="M 695.5,166.5 C 692.211,167.374 688.877,168.041 685.5,168.5C 685.62,166.801 685.954,165.135 686.5,163.5C 685.457,161.144 684.457,158.81 683.5,156.5C 683.5,155.5 683.5,154.5 683.5,153.5C 680.361,149.392 681.027,146.058 685.5,143.5C 686.765,142.486 687.431,140.986 687.5,139C 687.333,137.5 687.167,136 687,134.5C 685.923,136.578 684.757,138.578 683.5,140.5C 681.833,141.5 680.5,142.833 679.5,144.5C 676.907,143.246 674.573,141.58 672.5,139.5C 672.167,139.5 671.833,139.5 671.5,139.5C 670.822,135.727 672.156,132.894 675.5,131C 674.451,130.508 673.451,130.674 672.5,131.5C 671.143,133.186 669.81,134.852 668.5,136.5C 667.833,136.833 667.167,137.167 666.5,137.5C 663.941,137.198 661.607,137.532 659.5,138.5C 658.652,139.625 657.652,139.625 656.5,138.5C 655.101,137.11 653.434,136.11 651.5,135.5C 650.5,134.833 649.5,134.167 648.5,133.5C 651.127,132.908 653.794,132.575 656.5,132.5C 656.5,133.833 656.5,135.167 656.5,136.5C 657.5,136.5 658.5,136.5 659.5,136.5C 659.097,133.594 657.431,131.761 654.5,131C 654.957,130.586 655.291,130.086 655.5,129.5C 662.26,128.94 668.927,127.94 675.5,126.5C 678.83,128.055 682.33,129.055 686,129.5C 687.788,127.667 687.954,125.667 686.5,123.5C 687.491,122.335 688.491,121.168 689.5,120C 685.012,115.136 686.179,112.636 693,112.5C 693.494,110.866 693.66,109.199 693.5,107.5C 696.144,107.16 698.477,107.827 700.5,109.5C 702.5,107.833 704.5,106.167 706.5,104.5C 706.833,104.833 707.167,105.167 707.5,105.5C 705.585,107.071 704.585,109.071 704.5,111.5C 703.07,111.421 701.736,111.754 700.5,112.5C 699.833,111.833 699.167,111.167 698.5,110.5C 695.219,113.855 695.886,115.689 700.5,116C 698.51,117.751 696.177,118.751 693.5,119C 694.5,120 695.5,121 696.5,122C 694.593,124.712 693.26,127.712 692.5,131C 694.2,133.4 695.533,136.066 696.5,139C 695.392,142.65 693.558,143.15 691,140.5C 689.117,141.653 688.284,143.319 688.5,145.5C 691.024,145.429 693.024,146.429 694.5,148.5C 696.115,147.846 697.782,147.346 699.5,147C 701.08,144.061 702.747,141.228 704.5,138.5C 705.005,142.508 703.505,145.842 700,148.5C 699.517,149.448 699.351,150.448 699.5,151.5C 695.568,151.26 692.734,152.927 691,156.5C 690.186,158.902 690.353,161.235 691.5,163.5C 693.781,162.738 695.114,163.738 695.5,166.5 Z"/></g>
<g><path style="opacity:0.898" fill="#646052" d="M 635.5,121.5 C 637.262,122.262 638.262,123.596 638.5,125.5C 636.973,125.573 635.973,124.906 635.5,123.5C 635.5,122.833 635.5,122.167 635.5,121.5 Z"/></g>
<g><path style="opacity:0.89" fill="#9d9780" d="M 641.5,127.5 C 644.153,129.155 646.486,131.155 648.5,133.5C 649.5,134.167 650.5,134.833 651.5,135.5C 650.127,135.657 648.793,135.49 647.5,135C 645.63,132.96 643.63,131.127 641.5,129.5C 641.5,128.833 641.5,128.167 641.5,127.5 Z"/></g>
<g><path style="opacity:1" fill="#5f5b4d" d="M 641.5,129.5 C 643.63,131.127 645.63,132.96 647.5,135C 648.793,135.49 650.127,135.657 651.5,135.5C 653.434,136.11 655.101,137.11 656.5,138.5C 649.397,138.79 644.397,135.79 641.5,129.5 Z"/></g>
<g><path style="opacity:1" fill="#cbc4a6" d="M 623.5,124.5 C 625.5,126.833 627.5,129.167 629.5,131.5C 631.167,133.5 632.833,135.5 634.5,137.5C 632.73,140.196 631.064,143.029 629.5,146C 631.207,146.195 632.874,146.195 634.5,146C 635.109,147.948 635.776,149.782 636.5,151.5C 635.081,152.451 633.415,152.784 631.5,152.5C 631.5,150.833 631.5,149.167 631.5,147.5C 629.5,147.5 627.5,147.5 625.5,147.5C 627.437,144.501 627.937,141.167 627,137.5C 626.814,140.036 626.314,142.369 625.5,144.5C 625.826,140.116 625.492,135.783 624.5,131.5C 623.833,132.167 623.167,132.833 622.5,133.5C 622.167,133 621.833,132.5 621.5,132C 624.515,130.123 625.181,127.623 623.5,124.5 Z"/></g>
<g><path style="opacity:1" fill="#88836f" d="M 671.5,139.5 C 666.556,141.009 666.222,140.176 670.5,137C 669.906,136.536 669.239,136.369 668.5,136.5C 669.81,134.852 671.143,133.186 672.5,131.5C 673.451,130.674 674.451,130.508 675.5,131C 672.156,132.894 670.822,135.727 671.5,139.5 Z"/></g>
<g><path style="opacity:1" fill="#2c2a24" d="M 635.5,123.5 C 635.973,124.906 636.973,125.573 638.5,125.5C 639.5,126.167 640.5,126.833 641.5,127.5C 641.5,128.167 641.5,128.833 641.5,129.5C 644.397,135.79 649.397,138.79 656.5,138.5C 657.652,139.625 658.652,139.625 659.5,138.5C 661.099,138.232 662.432,138.566 663.5,139.5C 663.827,143.886 666.16,146.886 670.5,148.5C 671.386,149.325 671.719,150.325 671.5,151.5C 673.827,151.753 675.827,151.086 677.5,149.5C 677.833,149.833 678.167,150.167 678.5,150.5C 677.567,154.429 677.234,158.429 677.5,162.5C 675.83,165.163 676.497,166.83 679.5,167.5C 680.299,170.43 680.632,173.43 680.5,176.5C 679.5,176.5 678.5,176.5 677.5,176.5C 676.709,174.691 676.709,172.691 677.5,170.5C 676.122,169.766 674.622,169.099 673,168.5C 671.968,166.006 670.802,163.672 669.5,161.5C 669.5,160.833 669.5,160.167 669.5,159.5C 670.5,159.5 671.5,159.5 672.5,159.5C 672.737,158.209 672.404,157.209 671.5,156.5C 669.937,155.055 668.604,153.389 667.5,151.5C 663.636,147.535 658.969,144.868 653.5,143.5C 651.117,141.642 648.45,140.308 645.5,139.5C 642.275,138.763 638.941,138.097 635.5,137.5C 636.117,133.505 634.951,130.172 632,127.5C 631.51,126.207 631.343,124.873 631.5,123.5C 632.833,123.5 634.167,123.5 635.5,123.5 Z"/></g>
<g><path style="opacity:1" fill="#aaa48a" d="M 659.5,138.5 C 661.607,137.532 663.941,137.198 666.5,137.5C 666.167,138.167 665.833,138.833 665.5,139.5C 664.833,139.5 664.167,139.5 663.5,139.5C 662.432,138.566 661.099,138.232 659.5,138.5 Z"/></g>
<g><path style="opacity:1" fill="#95907a" d="M 685.5,143.5 C 685.715,141.821 685.048,140.821 683.5,140.5C 684.757,138.578 685.923,136.578 687,134.5C 687.167,136 687.333,137.5 687.5,139C 687.431,140.986 686.765,142.486 685.5,143.5 Z"/></g>
<g><path style="opacity:1" fill="#98937c" d="M 641.5,139.5 C 639.833,140.5 638.5,141.833 637.5,143.5C 637.5,142.167 637.5,140.833 637.5,139.5C 638.833,139.5 640.167,139.5 641.5,139.5 Z"/></g>
<g><path style="opacity:1" fill="#5e5b4d" d="M 634.5,137.5 C 634.833,137.5 635.167,137.5 635.5,137.5C 638.941,138.097 642.275,138.763 645.5,139.5C 644.167,139.5 642.833,139.5 641.5,139.5C 640.167,139.5 638.833,139.5 637.5,139.5C 637.5,140.833 637.5,142.167 637.5,143.5C 637.806,146.385 637.473,149.052 636.5,151.5C 635.776,149.782 635.109,147.948 634.5,146C 632.874,146.195 631.207,146.195 629.5,146C 631.064,143.029 632.73,140.196 634.5,137.5 Z"/></g>
<g><path style="opacity:1" fill="#5e5b4d" d="M 668.5,136.5 C 669.239,136.369 669.906,136.536 670.5,137C 666.222,140.176 666.556,141.009 671.5,139.5C 671.833,139.5 672.167,139.5 672.5,139.5C 673.15,141.435 673.483,143.435 673.5,145.5C 672.778,145.082 672.278,144.416 672,143.5C 670.951,144.517 669.784,144.684 668.5,144C 667.601,142.348 666.601,140.848 665.5,139.5C 665.833,138.833 666.167,138.167 666.5,137.5C 667.167,137.167 667.833,136.833 668.5,136.5 Z"/></g>
<g><path style="opacity:1" fill="#827e6a" d="M 672.5,139.5 C 674.573,141.58 676.907,143.246 679.5,144.5C 679.473,146.199 678.806,147.533 677.5,148.5C 675.878,147.878 674.545,146.878 673.5,145.5C 673.483,143.435 673.15,141.435 672.5,139.5 Z"/></g>
<g><path style="opacity:1" fill="#98937c" d="M 625.5,147.5 C 624.844,148.278 624.011,148.944 623,149.5C 621.815,147.366 622.648,145.699 625.5,144.5C 626.314,142.369 626.814,140.036 627,137.5C 627.937,141.167 627.437,144.501 625.5,147.5 Z"/></g>
<g><path style="opacity:1" fill="#605d4f" d="M 683.5,140.5 C 685.048,140.821 685.715,141.821 685.5,143.5C 681.027,146.058 680.361,149.392 683.5,153.5C 682.167,153.5 680.833,153.5 679.5,153.5C 680.434,151.313 679.767,149.646 677.5,148.5C 678.806,147.533 679.473,146.199 679.5,144.5C 680.5,142.833 681.833,141.5 683.5,140.5 Z"/></g>
<g><path style="opacity:1" fill="#4f4c40" d="M 653.5,143.5 C 658.969,144.868 663.636,147.535 667.5,151.5C 666.833,151.5 666.167,151.5 665.5,151.5C 663.68,149.552 661.346,148.552 658.5,148.5C 656.5,147.167 654.833,145.5 653.5,143.5 Z"/></g>
<g><path style="opacity:1" fill="#434137" d="M 663.5,139.5 C 664.167,139.5 664.833,139.5 665.5,139.5C 666.601,140.848 667.601,142.348 668.5,144C 669.784,144.684 670.951,144.517 672,143.5C 672.278,144.416 672.778,145.082 673.5,145.5C 674.545,146.878 675.878,147.878 677.5,148.5C 679.767,149.646 680.434,151.313 679.5,153.5C 678.833,156.5 678.167,159.5 677.5,162.5C 677.234,158.429 677.567,154.429 678.5,150.5C 678.167,150.167 677.833,149.833 677.5,149.5C 675.827,151.086 673.827,151.753 671.5,151.5C 671.719,150.325 671.386,149.325 670.5,148.5C 666.16,146.886 663.827,143.886 663.5,139.5 Z"/></g>
<g><path style="opacity:1" fill="#a19b83" d="M 658.5,148.5 C 661.346,148.552 663.68,149.552 665.5,151.5C 663.486,151.392 661.82,152.058 660.5,153.5C 659.691,151.972 659.024,150.306 658.5,148.5 Z"/></g>
<g><path style="opacity:1" fill="#817c69" d="M 671.5,156.5 C 672.404,157.209 672.737,158.209 672.5,159.5C 671.5,159.5 670.5,159.5 669.5,159.5C 670.551,158.778 671.218,157.778 671.5,156.5 Z"/></g>
<g><path style="opacity:1" fill="#87826e" d="M 679.5,153.5 C 680.833,153.5 682.167,153.5 683.5,153.5C 683.5,154.5 683.5,155.5 683.5,156.5C 682.862,158.573 681.862,160.573 680.5,162.5C 683.987,163.509 685.32,165.842 684.5,169.5C 682.95,168.559 681.284,167.893 679.5,167.5C 676.497,166.83 675.83,165.163 677.5,162.5C 678.167,159.5 678.833,156.5 679.5,153.5 Z"/></g>
<g><path style="opacity:1" fill="#aea88e" d="M 683.5,156.5 C 684.457,158.81 685.457,161.144 686.5,163.5C 685.954,165.135 685.62,166.801 685.5,168.5C 688.877,168.041 692.211,167.374 695.5,166.5C 695.586,167.496 695.252,168.329 694.5,169C 691.849,169.153 689.516,169.987 687.5,171.5C 687.5,170.167 686.833,169.5 685.5,169.5C 685.167,169.5 684.833,169.5 684.5,169.5C 685.32,165.842 683.987,163.509 680.5,162.5C 681.862,160.573 682.862,158.573 683.5,156.5 Z"/></g>
<g><path style="opacity:1" fill="#464439" d="M 669.5,161.5 C 670.802,163.672 671.968,166.006 673,168.5C 674.622,169.099 676.122,169.766 677.5,170.5C 675.067,170.273 673.401,171.273 672.5,173.5C 670.978,172.809 669.978,171.642 669.5,170C 670.31,167.217 670.31,164.383 669.5,161.5 Z"/></g>
<g><path style="opacity:1" fill="#b0aa90" d="M 705.5,171.5 C 703.143,171.337 700.81,171.503 698.5,172C 699.056,172.383 699.389,172.883 699.5,173.5C 697.952,173.179 697.285,172.179 697.5,170.5C 700.385,170.194 703.052,170.527 705.5,171.5 Z"/></g>
<g><path style="opacity:1" fill="#827e6a" d="M 705.5,171.5 C 704.082,173.308 702.082,173.975 699.5,173.5C 699.389,172.883 699.056,172.383 698.5,172C 700.81,171.503 703.143,171.337 705.5,171.5 Z"/></g>
<g><path style="opacity:1" fill="#a6a087" d="M 660.5,176.5 C 659.833,176.5 659.5,176.833 659.5,177.5C 656.055,176.924 652.721,175.924 649.5,174.5C 650,174.167 650.5,173.833 651,173.5C 653.795,174.185 656.628,174.685 659.5,175C 660.056,175.383 660.389,175.883 660.5,176.5 Z"/></g>
<g><path style="opacity:1" fill="#817d6a" d="M 685.5,169.5 C 686.833,169.5 687.5,170.167 687.5,171.5C 686.312,173.946 684.979,176.28 683.5,178.5C 683.405,175.308 684.071,172.308 685.5,169.5 Z"/></g>
<g><path style="opacity:1" fill="#d3ccac" d="M 665.5,151.5 C 666.167,151.5 666.833,151.5 667.5,151.5C 668.604,153.389 669.937,155.055 671.5,156.5C 671.218,157.778 670.551,158.778 669.5,159.5C 669.5,160.167 669.5,160.833 669.5,161.5C 670.31,164.383 670.31,167.217 669.5,170C 669.978,171.642 670.978,172.809 672.5,173.5C 673.496,173.586 674.329,173.252 675,172.5C 675.05,174.744 675.883,176.411 677.5,177.5C 678.376,177.369 679.043,177.702 679.5,178.5C 677.757,180.038 675.757,181.038 673.5,181.5C 673.44,180.957 673.107,180.624 672.5,180.5C 671.571,181.689 671.238,183.022 671.5,184.5C 670.209,184.263 669.209,184.596 668.5,185.5C 667.504,185.586 666.671,185.252 666,184.5C 665.536,185.094 665.369,185.761 665.5,186.5C 663.99,184.678 662.657,182.678 661.5,180.5C 662.338,180.158 662.672,179.492 662.5,178.5C 663.473,176.052 663.806,173.385 663.5,170.5C 664.833,170.5 666.167,170.5 667.5,170.5C 667.817,167.428 667.484,164.428 666.5,161.5C 664.091,159.098 662.091,156.431 660.5,153.5C 661.82,152.058 663.486,151.392 665.5,151.5 Z"/></g>
<g><path style="opacity:1" fill="#928d77" d="M 677.5,170.5 C 676.709,172.691 676.709,174.691 677.5,176.5C 677.5,176.833 677.5,177.167 677.5,177.5C 675.883,176.411 675.05,174.744 675,172.5C 674.329,173.252 673.496,173.586 672.5,173.5C 673.401,171.273 675.067,170.273 677.5,170.5 Z"/></g>
<g><path style="opacity:1" fill="#7b7764" d="M 660.5,176.5 C 661.5,176.833 662.167,177.5 662.5,178.5C 662.672,179.492 662.338,180.158 661.5,180.5C 660.833,179.5 660.167,178.5 659.5,177.5C 659.5,176.833 659.833,176.5 660.5,176.5 Z"/></g>
<g><path style="opacity:0.965" fill="#454238" d="M 679.5,167.5 C 681.284,167.893 682.95,168.559 684.5,169.5C 684.833,169.5 685.167,169.5 685.5,169.5C 684.071,172.308 683.405,175.308 683.5,178.5C 682.559,180.05 681.893,181.716 681.5,183.5C 679.692,184.918 679.025,186.918 679.5,189.5C 678.262,187.786 677.595,185.786 677.5,183.5C 675.62,183.771 674.287,183.104 673.5,181.5C 675.757,181.038 677.757,180.038 679.5,178.5C 679.043,177.702 678.376,177.369 677.5,177.5C 677.5,177.167 677.5,176.833 677.5,176.5C 678.5,176.5 679.5,176.5 680.5,176.5C 680.632,173.43 680.299,170.43 679.5,167.5 Z"/></g>
<g><path style="opacity:1" fill="#2c2a24" d="M 673.5,181.5 C 674.287,183.104 675.62,183.771 677.5,183.5C 677.595,185.786 678.262,187.786 679.5,189.5C 680.234,190.708 680.567,192.041 680.5,193.5C 680.757,199.898 680.257,206.231 679,212.5C 678.333,213.167 677.667,213.833 677,214.5C 676.506,212.866 676.34,211.199 676.5,209.5C 676.5,208.833 676.5,208.167 676.5,207.5C 677.477,204.713 677.81,201.713 677.5,198.5C 677.751,195.091 677.417,191.758 676.5,188.5C 673.572,187.516 670.572,187.183 667.5,187.5C 667.833,186.833 668.167,186.167 668.5,185.5C 669.833,185.5 671.167,185.5 672.5,185.5C 672.232,183.901 672.566,182.568 673.5,181.5 Z"/></g>
<g><path style="opacity:1" fill="#595648" d="M 673.5,181.5 C 672.566,182.568 672.232,183.901 672.5,185.5C 671.167,185.5 669.833,185.5 668.5,185.5C 669.209,184.596 670.209,184.263 671.5,184.5C 671.238,183.022 671.571,181.689 672.5,180.5C 673.107,180.624 673.44,180.957 673.5,181.5 Z"/></g>
<g><path style="opacity:1" fill="#aea88e" d="M 681.5,183.5 C 680.54,186.765 680.54,190.098 681.5,193.5C 681.167,193.5 680.833,193.5 680.5,193.5C 680.567,192.041 680.234,190.708 679.5,189.5C 679.025,186.918 679.692,184.918 681.5,183.5 Z"/></g>
<g><path style="opacity:1" fill="#635f51" d="M 668.5,185.5 C 668.167,186.167 667.833,186.833 667.5,187.5C 667.167,187.5 666.833,187.5 666.5,187.5C 665.833,187.5 665.5,187.167 665.5,186.5C 665.369,185.761 665.536,185.094 666,184.5C 666.671,185.252 667.504,185.586 668.5,185.5 Z"/></g>
<g><path style="opacity:1" fill="#454338" d="M 667.5,187.5 C 670.572,187.183 673.572,187.516 676.5,188.5C 677.417,191.758 677.751,195.091 677.5,198.5C 676.833,198.167 676.167,197.833 675.5,197.5C 673.237,193.897 670.57,190.564 667.5,187.5 Z"/></g>
<g><path style="opacity:1" fill="#847f6c" d="M 675.5,197.5 C 676.167,197.833 676.833,198.167 677.5,198.5C 677.81,201.713 677.477,204.713 676.5,207.5C 676.658,204.098 676.324,200.764 675.5,197.5 Z"/></g>
<g><path style="opacity:0.988" fill="#4a483d" d="M 680.5,193.5 C 680.833,193.5 681.167,193.5 681.5,193.5C 681.5,193.833 681.5,194.167 681.5,194.5C 681.215,199.897 681.549,205.23 682.5,210.5C 681.389,211.611 680.722,212.945 680.5,214.5C 681.506,216.354 681.506,218.021 680.5,219.5C 678.196,220.871 676.196,222.704 674.5,225C 676.047,227.583 675.713,229.917 673.5,232C 673.833,232.5 674.167,233 674.5,233.5C 675.265,232.388 676.265,231.721 677.5,231.5C 677.5,234.5 677.5,237.5 677.5,240.5C 676.549,241.919 676.216,243.585 676.5,245.5C 676.672,246.492 676.338,247.158 675.5,247.5C 675.235,242.345 673.902,237.512 671.5,233C 672.458,228.837 672.958,224.671 673,220.5C 672.329,221.252 671.496,221.586 670.5,221.5C 673.079,217.747 675.079,213.747 676.5,209.5C 676.34,211.199 676.506,212.866 677,214.5C 677.667,213.833 678.333,213.167 679,212.5C 680.257,206.231 680.757,199.898 680.5,193.5 Z"/></g>
<g><path style="opacity:1" fill="#9a957e" d="M 661.5,222.5 C 660.506,223.999 660.506,225.666 661.5,227.5C 659.384,225.912 659.051,223.912 660.5,221.5C 661.107,221.624 661.44,221.957 661.5,222.5 Z"/></g>
<g><path style="opacity:1" fill="#312f27" d="M 675.5,247.5 C 675.5,248.5 675.5,249.5 675.5,250.5C 675.833,251.167 676.167,251.833 676.5,252.5C 676.5,255.5 676.5,258.5 676.5,261.5C 675.1,260.9 674.1,259.9 673.5,258.5C 672.5,257.833 671.5,257.167 670.5,256.5C 670.131,254.559 669.464,252.725 668.5,251C 669.624,250.161 670.291,248.994 670.5,247.5C 668.349,243.84 667.349,239.84 667.5,235.5C 668.397,236.598 669.23,236.598 670,235.5C 669.536,232.137 669.536,228.804 670,225.5C 669.259,224.359 668.425,224.359 667.5,225.5C 666.516,228.428 666.183,231.428 666.5,234.5C 666.167,234.5 665.833,234.5 665.5,234.5C 665.5,232.167 665.5,229.833 665.5,227.5C 664.5,227.5 663.5,227.5 662.5,227.5C 662.167,227.5 661.833,227.5 661.5,227.5C 660.506,225.666 660.506,223.999 661.5,222.5C 664.786,225.267 667.786,224.934 670.5,221.5C 671.496,221.586 672.329,221.252 673,220.5C 672.958,224.671 672.458,228.837 671.5,233C 673.902,237.512 675.235,242.345 675.5,247.5 Z"/></g>
<g><path style="opacity:1" fill="#a29c84" d="M 662.5,227.5 C 663.5,227.5 664.5,227.5 665.5,227.5C 665.5,229.833 665.5,232.167 665.5,234.5C 664.895,232.026 663.895,229.693 662.5,227.5 Z"/></g>
<g><path style="opacity:1" fill="#6b6758" d="M 680.5,219.5 C 679.24,223.359 678.24,227.359 677.5,231.5C 676.265,231.721 675.265,232.388 674.5,233.5C 674.167,233 673.833,232.5 673.5,232C 675.713,229.917 676.047,227.583 674.5,225C 676.196,222.704 678.196,220.871 680.5,219.5 Z"/></g>
<g><path style="opacity:1" fill="#1e1d18" d="M 667.5,235.5 C 667.167,235.5 666.833,235.5 666.5,235.5C 666.5,235.167 666.5,234.833 666.5,234.5C 666.183,231.428 666.516,228.428 667.5,225.5C 668.425,224.359 669.259,224.359 670,225.5C 669.536,228.804 669.536,232.137 670,235.5C 669.23,236.598 668.397,236.598 667.5,235.5 Z"/></g>
<g><path style="opacity:1" fill="#b1ab91" d="M 681.5,242.5 C 679.517,242.843 678.183,242.176 677.5,240.5C 677.5,237.5 677.5,234.5 677.5,231.5C 681.806,229.806 683.14,231.14 681.5,235.5C 682.167,236.167 682.833,236.833 683.5,237.5C 681.955,238.452 680.288,238.785 678.5,238.5C 678.5,239.5 678.5,240.5 678.5,241.5C 679.791,241.263 680.791,241.596 681.5,242.5 Z"/></g>
<g><path style="opacity:1" fill="#e0d8b7" d="M 666.5,187.5 C 666.833,187.5 667.167,187.5 667.5,187.5C 670.57,190.564 673.237,193.897 675.5,197.5C 676.324,200.764 676.658,204.098 676.5,207.5C 676.5,208.167 676.5,208.833 676.5,209.5C 675.079,213.747 673.079,217.747 670.5,221.5C 667.786,224.934 664.786,225.267 661.5,222.5C 661.44,221.957 661.107,221.624 660.5,221.5C 659.051,223.912 659.384,225.912 661.5,227.5C 661.833,227.5 662.167,227.5 662.5,227.5C 663.895,229.693 664.895,232.026 665.5,234.5C 664.911,238.971 665.577,242.971 667.5,246.5C 668.704,251.3 666.704,253.3 661.5,252.5C 661.5,253.5 661.5,254.5 661.5,255.5C 664.248,255.402 664.914,256.402 663.5,258.5C 662.5,258.833 661.833,259.5 661.5,260.5C 660.026,261.436 659.026,262.77 658.5,264.5C 657.5,264.5 656.5,264.5 655.5,264.5C 655.5,263.5 655.5,262.5 655.5,261.5C 655.5,259.167 655.5,256.833 655.5,254.5C 653.833,254.5 652.167,254.5 650.5,254.5C 650.5,255.5 650.5,256.5 650.5,257.5C 648.167,257.5 645.833,257.5 643.5,257.5C 643.5,258.5 643.5,259.5 643.5,260.5C 645.833,260.5 648.167,260.5 650.5,260.5C 651.167,260.5 651.5,260.833 651.5,261.5C 651.762,262.978 651.429,264.311 650.5,265.5C 647.44,267.019 645.94,269.352 646,272.5C 647.696,269.342 649.529,269.008 651.5,271.5C 652.209,272.404 653.209,272.737 654.5,272.5C 654.216,274.415 654.549,276.081 655.5,277.5C 655.5,278.5 655.5,279.5 655.5,280.5C 655.5,281.167 655.5,281.833 655.5,282.5C 654.5,282.5 653.5,282.5 652.5,282.5C 652.5,283.833 652.5,285.167 652.5,286.5C 651.5,286.5 650.5,286.5 649.5,286.5C 649.33,287.822 649.663,288.989 650.5,290C 649.906,290.464 649.239,290.631 648.5,290.5C 649.759,278.406 644.759,274.073 633.5,277.5C 634.315,276.163 635.482,275.163 637,274.5C 637.495,272.527 637.662,270.527 637.5,268.5C 638.978,268.762 640.311,268.429 641.5,267.5C 635.346,266.183 629.346,266.183 623.5,267.5C 619.836,268 616.836,266.833 614.5,264C 615.985,262.244 615.652,261.077 613.5,260.5C 613.962,259.12 614.962,258.453 616.5,258.5C 618.104,258.939 619.604,259.606 621,260.5C 621.5,260.167 622,259.833 622.5,259.5C 618.283,255.369 614.616,255.703 611.5,260.5C 610.883,260.389 610.383,260.056 610,259.5C 609.321,256.45 608.488,253.45 607.5,250.5C 611.452,245.185 615.452,245.185 619.5,250.5C 620.748,249.96 621.915,249.293 623,248.5C 625.14,250.64 627.306,252.806 629.5,255C 633.45,256.978 637.283,256.812 641,254.5C 642.711,254.439 644.044,255.106 645,256.5C 645.333,255.167 645.667,253.833 646,252.5C 647.813,253.609 648.646,252.942 648.5,250.5C 649.675,250.719 650.675,250.386 651.5,249.5C 649.293,248.365 646.96,247.699 644.5,247.5C 646.713,240.934 650.546,239.934 656,244.5C 656.333,246.833 656.667,249.167 657,251.5C 658.635,249.757 658.802,247.923 657.5,246C 658.384,244.902 659.384,244.402 660.5,244.5C 657.302,241.704 656.635,238.37 658.5,234.5C 655.474,233.423 652.474,233.423 649.5,234.5C 648.833,233.833 648.167,233.167 647.5,232.5C 646.588,234.988 647.588,236.655 650.5,237.5C 654.216,234.532 655.883,235.532 655.5,240.5C 649.033,241.108 644.7,238.441 642.5,232.5C 643.025,231.808 643.692,231.308 644.5,231C 643.128,230.598 641.795,230.098 640.5,229.5C 639.742,230.811 638.742,231.311 637.5,231C 635.981,229.649 634.648,228.149 633.5,226.5C 634.326,225.549 634.492,224.549 634,223.5C 630.388,221.714 627.221,219.38 624.5,216.5C 624.833,216.167 625.167,215.833 625.5,215.5C 629.269,217.607 633.269,218.774 637.5,219C 638.833,218 638.833,217 637.5,216C 635.231,215.242 633.064,215.409 631,216.5C 630.5,216 630,215.5 629.5,215C 630.772,213.693 631.772,212.193 632.5,210.5C 637.7,212.872 643.033,214.872 648.5,216.5C 650.432,215.48 652.432,215.313 654.5,216C 649.379,216.577 649.379,217.577 654.5,219C 659.492,220.391 664.492,220.557 669.5,219.5C 671.021,217.714 671.354,215.881 670.5,214C 673.353,211.75 673.687,209.25 671.5,206.5C 671.833,205.833 672.167,205.167 672.5,204.5C 671.469,203.3 670.635,201.966 670,200.5C 669.834,195.822 668.667,191.489 666.5,187.5 Z"/></g>
<g><path style="opacity:1" fill="#696555" d="M 639.5,226.5 C 641.527,226.338 643.527,226.505 645.5,227C 649.294,228.932 653.294,230.432 657.5,231.5C 657,231.833 656.5,232.167 656,232.5C 653.536,231.839 651.036,231.339 648.5,231C 645.309,229.517 642.309,228.017 639.5,226.5 Z"/></g>
<g><path style="opacity:1" fill="#9d9880" d="M 665.5,234.5 C 665.833,234.5 666.167,234.5 666.5,234.5C 666.5,234.833 666.5,235.167 666.5,235.5C 666.244,239.269 666.577,242.936 667.5,246.5C 665.577,242.971 664.911,238.971 665.5,234.5 Z"/></g>
<g><path style="opacity:1" fill="#686455" d="M 677.5,240.5 C 678.183,242.176 679.517,242.843 681.5,242.5C 682.901,242.971 684.234,243.638 685.5,244.5C 682.572,245.484 679.572,245.817 676.5,245.5C 676.216,243.585 676.549,241.919 677.5,240.5 Z"/></g>
<g><path style="opacity:1" fill="#cac3a5" d="M 583.5,241.5 C 583.56,240.957 583.893,240.624 584.5,240.5C 590.226,242.682 595.892,245.015 601.5,247.5C 603.211,249.24 604.044,251.24 604,253.5C 602.5,251.333 600.667,249.5 598.5,248C 592.987,246.908 587.987,244.741 583.5,241.5 Z"/></g>
<g><path style="opacity:1" fill="#908b75" d="M 675.5,250.5 C 678.167,250.5 680.833,250.5 683.5,250.5C 682.684,252.895 681.684,255.229 680.5,257.5C 680.167,257.5 679.833,257.5 679.5,257.5C 680.038,255.883 680.371,254.216 680.5,252.5C 679.167,252.5 677.833,252.5 676.5,252.5C 676.167,251.833 675.833,251.167 675.5,250.5 Z"/></g>
<g><path style="opacity:1" fill="#4f4c40" d="M 666.5,235.5 C 666.833,235.5 667.167,235.5 667.5,235.5C 667.349,239.84 668.349,243.84 670.5,247.5C 670.291,248.994 669.624,250.161 668.5,251C 669.464,252.725 670.131,254.559 670.5,256.5C 669.508,256.328 668.842,256.662 668.5,257.5C 668.093,256.238 667.76,254.905 667.5,253.5C 666.719,254.729 666.219,256.062 666,257.5C 665.329,258.252 664.496,258.586 663.5,258.5C 664.914,256.402 664.248,255.402 661.5,255.5C 661.5,254.5 661.5,253.5 661.5,252.5C 666.704,253.3 668.704,251.3 667.5,246.5C 666.577,242.936 666.244,239.269 666.5,235.5 Z"/></g>
<g><path style="opacity:1" fill="#555245" d="M 676.5,252.5 C 677.833,252.5 679.167,252.5 680.5,252.5C 680.371,254.216 680.038,255.883 679.5,257.5C 678.5,258.833 677.5,260.167 676.5,261.5C 676.5,258.5 676.5,255.5 676.5,252.5 Z"/></g>
<g><path style="opacity:1" fill="#b1ab91" d="M 655.5,261.5 C 653.324,260.287 652.991,258.62 654.5,256.5C 653.675,255.614 652.675,255.281 651.5,255.5C 651.371,257.216 651.038,258.883 650.5,260.5C 648.167,260.5 645.833,260.5 643.5,260.5C 643.5,259.5 643.5,258.5 643.5,257.5C 645.833,257.5 648.167,257.5 650.5,257.5C 650.5,256.5 650.5,255.5 650.5,254.5C 652.167,254.5 653.833,254.5 655.5,254.5C 655.5,256.833 655.5,259.167 655.5,261.5 Z"/></g>
<g><path style="opacity:1" fill="#504d41" d="M 655.5,261.5 C 655.5,262.5 655.5,263.5 655.5,264.5C 656.5,264.5 657.5,264.5 658.5,264.5C 655.881,266.551 656.048,268.551 659,270.5C 660.147,275.466 660.98,280.466 661.5,285.5C 660.837,287.042 660.17,288.709 659.5,290.5C 658.686,288.234 658.186,285.9 658,283.5C 657.722,284.416 657.222,285.082 656.5,285.5C 656.784,283.585 656.451,281.919 655.5,280.5C 655.5,279.5 655.5,278.5 655.5,277.5C 655.5,275.5 655.5,273.5 655.5,271.5C 654.167,271.5 652.833,271.5 651.5,271.5C 651.263,270.209 651.596,269.209 652.5,268.5C 653.209,269.404 654.209,269.737 655.5,269.5C 655.5,268.5 655.5,267.5 655.5,266.5C 654.791,265.596 653.791,265.263 652.5,265.5C 652.768,263.901 652.434,262.568 651.5,261.5C 651.5,260.833 651.167,260.5 650.5,260.5C 651.038,258.883 651.371,257.216 651.5,255.5C 652.675,255.281 653.675,255.614 654.5,256.5C 652.991,258.62 653.324,260.287 655.5,261.5 Z"/></g>
<g><path style="opacity:0.859" fill="#777361" d="M 670.5,256.5 C 671.5,257.167 672.5,257.833 673.5,258.5C 671.824,259.183 671.157,260.517 671.5,262.5C 671.167,262.5 670.833,262.5 670.5,262.5C 670.608,260.486 669.942,258.82 668.5,257.5C 668.842,256.662 669.508,256.328 670.5,256.5 Z"/></g>
<g><path style="opacity:1" fill="#bfb89b" d="M 613.5,260.5 C 612.833,260.5 612.167,260.5 611.5,260.5C 614.616,255.703 618.283,255.369 622.5,259.5C 622,259.833 621.5,260.167 621,260.5C 619.604,259.606 618.104,258.939 616.5,258.5C 614.962,258.453 613.962,259.12 613.5,260.5 Z"/></g>
<g><path style="opacity:0.925" fill="#36342c" d="M 668.5,257.5 C 669.942,258.82 670.608,260.486 670.5,262.5C 670.265,263.097 669.765,263.43 669,263.5C 667.403,262.115 665.57,261.449 663.5,261.5C 663.875,264.907 662.875,265.407 660.5,263C 661.252,262.329 661.586,261.496 661.5,260.5C 661.833,259.5 662.5,258.833 663.5,258.5C 664.496,258.586 665.329,258.252 666,257.5C 666.219,256.062 666.719,254.729 667.5,253.5C 667.76,254.905 668.093,256.238 668.5,257.5 Z"/></g>
<g><path style="opacity:1" fill="#c8c1a3" d="M 679.5,257.5 C 679.833,257.5 680.167,257.5 680.5,257.5C 679.5,260.167 678.5,262.833 677.5,265.5C 674.687,265.975 672.687,264.975 671.5,262.5C 671.157,260.517 671.824,259.183 673.5,258.5C 674.1,259.9 675.1,260.9 676.5,261.5C 677.5,260.167 678.5,258.833 679.5,257.5 Z"/></g>
<g><path style="opacity:1" fill="#e0d8b7" d="M 681.5,194.5 C 682.919,201.516 683.919,208.682 684.5,216C 684.167,216.333 683.833,216.667 683.5,217C 684.685,218.353 686.019,219.52 687.5,220.5C 685.978,222.156 686.311,223.323 688.5,224C 687.833,224.333 687.167,224.667 686.5,225C 688.074,226.826 688.907,228.993 689,231.5C 690.356,232.38 691.856,232.714 693.5,232.5C 693.5,231.167 693.5,229.833 693.5,228.5C 697.051,229.275 700.385,230.608 703.5,232.5C 702.284,233.096 700.951,233.263 699.5,233C 699.833,233.333 700.167,233.667 700.5,234C 697.794,234.601 695.794,236.101 694.5,238.5C 691.812,237.995 689.645,236.662 688,234.5C 685.209,240.531 687.042,244.197 693.5,245.5C 696.446,244.694 699.112,243.361 701.5,241.5C 703.641,242.323 705.807,243.323 708,244.5C 709.434,244.07 710.601,243.236 711.5,242C 717.491,241.501 723.491,241.334 729.5,241.5C 729.5,242.5 729.5,243.5 729.5,244.5C 724.456,244.727 719.456,244.394 714.5,243.5C 710.805,244.278 708.972,246.611 709,250.5C 708.189,249.04 707.355,248.707 706.5,249.5C 708.172,251.671 710.005,253.671 712,255.5C 713.144,255.089 714.311,254.756 715.5,254.5C 718.06,256.193 720.894,257.193 724,257.5C 725.436,257.441 726.769,257.108 728,256.5C 730.487,258.281 733.321,259.447 736.5,260C 734.798,261.718 732.965,261.885 731,260.5C 730.751,261.624 730.251,262.624 729.5,263.5C 729.002,262.397 728.669,261.397 728.5,260.5C 726.862,261.705 726.529,263.038 727.5,264.5C 730.64,265.091 733.64,265.924 736.5,267C 731.5,267.833 726.5,268.667 721.5,269.5C 722.915,272.381 725.249,274.047 728.5,274.5C 725.956,275.937 725.956,277.437 728.5,279C 727.167,279.667 725.833,280.333 724.5,281C 729.796,282.438 729.796,283.605 724.5,284.5C 723.878,289.895 721.045,291.562 716,289.5C 715.316,287.521 715.816,285.854 717.5,284.5C 713.946,281.457 711.613,282.123 710.5,286.5C 706.063,286.305 704.396,288.139 705.5,292C 708.941,293.446 712.274,294.279 715.5,294.5C 713.916,302.159 709.249,304.659 701.5,302C 699.564,300.638 698.231,298.805 697.5,296.5C 693.681,293.724 689.681,293.224 685.5,295C 680.638,299.528 675.471,303.694 670,307.5C 668.218,309.939 667.551,312.606 668,315.5C 669.896,317.53 672.063,319.197 674.5,320.5C 673.167,322.167 673.167,323.833 674.5,325.5C 675.833,325.833 677.167,326.167 678.5,326.5C 676.876,327.869 676.376,329.536 677,331.5C 677.741,332.641 678.575,332.641 679.5,331.5C 680.5,330.167 681.5,328.833 682.5,327.5C 685.133,328.782 685.133,330.116 682.5,331.5C 685.43,335.521 686.763,335.188 686.5,330.5C 687.5,330.5 688.5,330.5 689.5,330.5C 689.238,329.022 689.571,327.689 690.5,326.5C 692.135,327.33 693.802,327.497 695.5,327C 695.201,328.32 695.034,329.82 695,331.5C 694.617,332.056 694.117,332.389 693.5,332.5C 693.719,331.325 693.386,330.325 692.5,329.5C 688.685,334.325 684.352,338.325 679.5,341.5C 679.573,339.973 678.906,338.973 677.5,338.5C 677.068,337.29 676.401,336.29 675.5,335.5C 675.573,333.973 674.906,332.973 673.5,332.5C 673.573,330.973 672.906,329.973 671.5,329.5C 667.974,328.31 664.974,326.31 662.5,323.5C 662.232,321.901 662.566,320.568 663.5,319.5C 665.459,313.25 666.126,306.584 665.5,299.5C 665.5,298.833 665.5,298.167 665.5,297.5C 666.369,295.016 667.036,292.349 667.5,289.5C 666.673,286.217 666.34,282.884 666.5,279.5C 668.642,275.246 669.975,270.58 670.5,265.5C 672.381,267.734 674.715,269.067 677.5,269.5C 677.5,268.167 677.5,266.833 677.5,265.5C 678.5,262.833 679.5,260.167 680.5,257.5C 681.684,255.229 682.684,252.895 683.5,250.5C 680.833,250.5 678.167,250.5 675.5,250.5C 675.5,249.5 675.5,248.5 675.5,247.5C 676.338,247.158 676.672,246.492 676.5,245.5C 679.572,245.817 682.572,245.484 685.5,244.5C 684.234,243.638 682.901,242.971 681.5,242.5C 680.791,241.596 679.791,241.263 678.5,241.5C 678.5,240.5 678.5,239.5 678.5,238.5C 680.288,238.785 681.955,238.452 683.5,237.5C 682.833,236.833 682.167,236.167 681.5,235.5C 683.14,231.14 681.806,229.806 677.5,231.5C 678.24,227.359 679.24,223.359 680.5,219.5C 681.506,218.021 681.506,216.354 680.5,214.5C 680.722,212.945 681.389,211.611 682.5,210.5C 681.549,205.23 681.215,199.897 681.5,194.5 Z"/></g>
<g><path style="opacity:1" fill="#7f7b68" d="M 689.5,247.5 C 691.288,247.215 692.955,247.548 694.5,248.5C 693.667,248.833 692.833,249.167 692,249.5C 690.624,249.316 689.791,248.649 689.5,247.5 Z"/></g>
<g><path style="opacity:1" fill="#b5ae93" d="M 655.5,266.5 C 655.5,267.5 655.5,268.5 655.5,269.5C 654.209,269.737 653.209,269.404 652.5,268.5C 652.821,266.952 653.821,266.285 655.5,266.5 Z"/></g>
<g><path style="opacity:1" fill="#7f7a67" d="M 651.5,261.5 C 652.434,262.568 652.768,263.901 652.5,265.5C 653.791,265.263 654.791,265.596 655.5,266.5C 653.821,266.285 652.821,266.952 652.5,268.5C 651.596,269.209 651.263,270.209 651.5,271.5C 649.529,269.008 647.696,269.342 646,272.5C 645.94,269.352 647.44,267.019 650.5,265.5C 651.429,264.311 651.762,262.978 651.5,261.5 Z"/></g>
<g><path style="opacity:0.931" fill="#5f5c4e" d="M 661.5,260.5 C 661.586,261.496 661.252,262.329 660.5,263C 662.875,265.407 663.875,264.907 663.5,261.5C 665.57,261.449 667.403,262.115 669,263.5C 669.765,263.43 670.265,263.097 670.5,262.5C 670.833,262.5 671.167,262.5 671.5,262.5C 672.687,264.975 674.687,265.975 677.5,265.5C 677.5,266.833 677.5,268.167 677.5,269.5C 674.715,269.067 672.381,267.734 670.5,265.5C 669.975,270.58 668.642,275.246 666.5,279.5C 666.5,276.5 666.5,273.5 666.5,270.5C 664.5,270.167 662.5,269.833 660.5,269.5C 660.88,267.302 660.213,265.635 658.5,264.5C 659.026,262.77 660.026,261.436 661.5,260.5 Z"/></g>
<g><path style="opacity:1" fill="#b8b296" d="M 623.5,267.5 C 629.346,266.183 635.346,266.183 641.5,267.5C 640.311,268.429 638.978,268.762 637.5,268.5C 637.662,270.527 637.495,272.527 637,274.5C 635.482,275.163 634.315,276.163 633.5,277.5C 633.664,280.187 633.497,282.854 633,285.5C 632.586,285.957 632.086,286.291 631.5,286.5C 629.394,281.201 630.56,276.867 635,273.5C 635.667,272.167 635.667,270.833 635,269.5C 631.35,267.954 627.516,267.287 623.5,267.5 Z"/></g>
<g><path style="opacity:1" fill="#a29c84" d="M 651.5,271.5 C 652.833,271.5 654.167,271.5 655.5,271.5C 655.5,273.5 655.5,275.5 655.5,277.5C 654.549,276.081 654.216,274.415 654.5,272.5C 653.209,272.737 652.209,272.404 651.5,271.5 Z"/></g>
<g><path style="opacity:1" fill="#b0aa90" d="M 681.5,270.5 C 683.201,271.525 684.535,273.025 685.5,275C 684.667,277.5 683.167,278 681,276.5C 680.322,274.402 680.489,272.402 681.5,270.5 Z"/></g>
<g><path style="opacity:1" fill="#26251f" d="M 658.5,264.5 C 660.213,265.635 660.88,267.302 660.5,269.5C 662.5,269.833 664.5,270.167 666.5,270.5C 666.5,273.5 666.5,276.5 666.5,279.5C 665.518,282.962 665.185,286.629 665.5,290.5C 665.028,292.531 664.028,294.198 662.5,295.5C 662.167,295.5 661.833,295.5 661.5,295.5C 661.5,295.167 661.5,294.833 661.5,294.5C 661.5,291.5 661.5,288.5 661.5,285.5C 660.98,280.466 660.147,275.466 659,270.5C 656.048,268.551 655.881,266.551 658.5,264.5 Z"/></g>
<g><path style="opacity:1" fill="#837f6b" d="M 655.5,280.5 C 656.451,281.919 656.784,283.585 656.5,285.5C 655.532,287.607 655.198,289.941 655.5,292.5C 657.858,292.253 659.858,292.919 661.5,294.5C 661.5,294.833 661.5,295.167 661.5,295.5C 660.391,295.443 659.391,295.11 658.5,294.5C 657.432,293.566 656.099,293.232 654.5,293.5C 654.244,289.731 654.577,286.064 655.5,282.5C 655.5,281.833 655.5,281.167 655.5,280.5 Z"/></g>
<g><path style="opacity:1" fill="#c9c2a4" d="M 655.5,282.5 C 654.577,286.064 654.244,289.731 654.5,293.5C 656.099,293.232 657.432,293.566 658.5,294.5C 655.417,294.916 652.417,295.583 649.5,296.5C 649.5,296.167 649.5,295.833 649.5,295.5C 649.869,293.007 649.203,292.34 647.5,293.5C 647.263,292.209 647.596,291.209 648.5,290.5C 649.239,290.631 649.906,290.464 650.5,290C 649.663,288.989 649.33,287.822 649.5,286.5C 650.5,286.5 651.5,286.5 652.5,286.5C 652.5,285.167 652.5,283.833 652.5,282.5C 653.5,282.5 654.5,282.5 655.5,282.5 Z"/></g>
<g><path style="opacity:1" fill="#38362d" d="M 661.5,285.5 C 661.5,288.5 661.5,291.5 661.5,294.5C 659.858,292.919 657.858,292.253 655.5,292.5C 655.198,289.941 655.532,287.607 656.5,285.5C 657.222,285.082 657.722,284.416 658,283.5C 658.186,285.9 658.686,288.234 659.5,290.5C 660.17,288.709 660.837,287.042 661.5,285.5 Z"/></g>
<g><path style="opacity:1" fill="#777361" d="M 666.5,279.5 C 666.34,282.884 666.673,286.217 667.5,289.5C 667.036,292.349 666.369,295.016 665.5,297.5C 665.5,295.167 665.5,292.833 665.5,290.5C 665.185,286.629 665.518,282.962 666.5,279.5 Z"/></g>
<g><path style="opacity:1" fill="#e1d9b8" d="M 658.5,294.5 C 659.391,295.11 660.391,295.443 661.5,295.5C 661.833,295.5 662.167,295.5 662.5,295.5C 662.483,297.565 662.15,299.565 661.5,301.5C 660.521,304.625 660.187,307.958 660.5,311.5C 659.5,311.5 658.5,311.5 657.5,311.5C 655.357,309.926 653.024,308.592 650.5,307.5C 649.511,303.893 649.177,300.226 649.5,296.5C 652.417,295.583 655.417,294.916 658.5,294.5 Z"/></g>
<g><path style="opacity:1" fill="#464439" d="M 649.5,295.5 C 648.833,299.5 648.167,303.5 647.5,307.5C 647.167,307.5 646.833,307.5 646.5,307.5C 647.084,302.809 647.417,298.143 647.5,293.5C 649.203,292.34 649.869,293.007 649.5,295.5 Z"/></g>
<g><path style="opacity:1" fill="#b6af94" d="M 647.5,293.5 C 647.417,298.143 647.084,302.809 646.5,307.5C 642.194,306.934 641.861,306.268 645.5,305.5C 645.335,301.818 645.501,298.152 646,294.5C 646.383,293.944 646.883,293.611 647.5,293.5 Z"/></g>
<g><path style="opacity:1" fill="#a39d85" d="M 661.5,301.5 C 661.5,305.167 661.5,308.833 661.5,312.5C 660.167,312.5 658.833,312.5 657.5,312.5C 657.5,312.167 657.5,311.833 657.5,311.5C 658.5,311.5 659.5,311.5 660.5,311.5C 660.187,307.958 660.521,304.625 661.5,301.5 Z"/></g>
<g><path style="opacity:1" fill="#74715f" d="M 649.5,295.5 C 649.5,295.833 649.5,296.167 649.5,296.5C 649.177,300.226 649.511,303.893 650.5,307.5C 653.024,308.592 655.357,309.926 657.5,311.5C 657.5,311.833 657.5,312.167 657.5,312.5C 656.041,312.567 654.708,312.234 653.5,311.5C 651.322,310.343 649.322,309.01 647.5,307.5C 648.167,303.5 648.833,299.5 649.5,295.5 Z"/></g>
<g><path style="opacity:1" fill="#c8c1a3" d="M 665.5,299.5 C 666.126,306.584 665.459,313.25 663.5,319.5C 663.133,312.585 663.799,305.919 665.5,299.5 Z"/></g>
<g><path style="opacity:0.875" fill="#4c493e" d="M 665.5,290.5 C 665.5,292.833 665.5,295.167 665.5,297.5C 665.5,298.167 665.5,298.833 665.5,299.5C 663.799,305.919 663.133,312.585 663.5,319.5C 662.566,320.568 662.232,321.901 662.5,323.5C 661.596,324.209 661.263,325.209 661.5,326.5C 658.703,326.033 657.369,324.367 657.5,321.5C 657.5,318.5 657.5,315.5 657.5,312.5C 658.833,312.5 660.167,312.5 661.5,312.5C 661.5,308.833 661.5,305.167 661.5,301.5C 662.15,299.565 662.483,297.565 662.5,295.5C 664.028,294.198 665.028,292.531 665.5,290.5 Z"/></g>
<g><path style="opacity:1" fill="#ada68d" d="M 699.5,316.5 C 700.376,316.369 701.043,316.702 701.5,317.5C 697.765,321.421 697.098,321.087 699.5,316.5 Z"/></g>
<g><path style="opacity:1" fill="#918c76" d="M 650.5,320.5 C 647.083,320.023 644.416,321.023 642.5,323.5C 640.171,321.998 638.837,322.664 638.5,325.5C 637.844,324.722 637.011,324.056 636,323.5C 634.97,323.836 634.47,324.503 634.5,325.5C 634.167,325.5 633.833,325.5 633.5,325.5C 633.5,324.167 632.833,323.5 631.5,323.5C 629.295,323.154 629.128,322.487 631,321.5C 635.19,322.962 639.024,322.296 642.5,319.5C 645.496,317.924 648.162,318.257 650.5,320.5 Z"/></g>
<g><path style="opacity:0.871" fill="#26251f" d="M 658.5,313.5 C 659.5,313.5 660.5,313.5 661.5,313.5C 662.082,317.315 661.248,320.649 659,323.5C 658.502,320.183 658.335,316.85 658.5,313.5 Z"/></g>
<g><path style="opacity:1" fill="#676354" d="M 650.5,320.5 C 650.737,321.791 650.404,322.791 649.5,323.5C 648.039,322.314 646.705,322.314 645.5,323.5C 644.5,323.5 643.5,323.5 642.5,323.5C 644.416,321.023 647.083,320.023 650.5,320.5 Z"/></g>
<g><path style="opacity:1" fill="#aea88e" d="M 653.5,311.5 C 654.708,312.234 656.041,312.567 657.5,312.5C 657.5,315.5 657.5,318.5 657.5,321.5C 656.876,321.917 656.543,322.584 656.5,323.5C 656.991,326.674 657.657,329.674 658.5,332.5C 660.199,332.38 661.865,332.046 663.5,331.5C 665.038,331.453 666.038,332.12 666.5,333.5C 663.162,333.065 660.162,333.732 657.5,335.5C 655.831,334.34 653.997,334.34 652,335.5C 650.71,333.646 649.21,333.313 647.5,334.5C 645.054,333.573 644.221,331.906 645,329.5C 647.127,327.886 648.627,325.886 649.5,323.5C 650.404,322.791 650.737,321.791 650.5,320.5C 648.162,318.257 645.496,317.924 642.5,319.5C 642.611,318.883 642.944,318.383 643.5,318C 647.95,316.886 651.95,317.72 655.5,320.5C 656.474,318.257 656.808,315.924 656.5,313.5C 654.821,313.715 653.821,313.048 653.5,311.5 Z"/></g>
<g><path style="opacity:1" fill="#2c2b24" d="M 638.5,325.5 C 638.5,326.833 637.833,327.5 636.5,327.5C 636.167,326.5 635.5,325.833 634.5,325.5C 634.47,324.503 634.97,323.836 636,323.5C 637.011,324.056 637.844,324.722 638.5,325.5 Z"/></g>
<g><path style="opacity:1" fill="#bbb599" d="M 642.5,323.5 C 643.5,323.5 644.5,323.5 645.5,323.5C 646.239,323.369 646.906,323.536 647.5,324C 646.48,325.556 645.147,326.722 643.5,327.5C 641.944,326.453 640.277,325.786 638.5,325.5C 638.837,322.664 640.171,321.998 642.5,323.5 Z"/></g>
<g><path style="opacity:1" fill="#7c7865" d="M 645.5,323.5 C 646.705,322.314 648.039,322.314 649.5,323.5C 648.627,325.886 647.127,327.886 645,329.5C 644.221,331.906 645.054,333.573 647.5,334.5C 649.21,333.313 650.71,333.646 652,335.5C 653.997,334.34 655.831,334.34 657.5,335.5C 655.933,336.681 655.099,338.347 655,340.5C 654.51,339.207 654.343,337.873 654.5,336.5C 652.833,336.5 651.167,336.5 649.5,336.5C 647.5,336.5 645.5,336.5 643.5,336.5C 643.567,335.041 643.234,333.708 642.5,332.5C 643.434,331.432 643.768,330.099 643.5,328.5C 641.821,328.285 640.821,328.952 640.5,330.5C 639.559,327.875 638.393,327.875 637,330.5C 636.517,329.552 636.351,328.552 636.5,327.5C 637.833,327.5 638.5,326.833 638.5,325.5C 640.277,325.786 641.944,326.453 643.5,327.5C 645.147,326.722 646.48,325.556 647.5,324C 646.906,323.536 646.239,323.369 645.5,323.5 Z"/></g>
<g><path style="opacity:1" fill="#797563" d="M 657.5,321.5 C 657.369,324.367 658.703,326.033 661.5,326.5C 661.5,327.833 661.5,329.167 661.5,330.5C 659.821,330.285 658.821,330.952 658.5,332.5C 657.657,329.674 656.991,326.674 656.5,323.5C 656.543,322.584 656.876,321.917 657.5,321.5 Z"/></g>
<g><path style="opacity:1" fill="#b6af94" d="M 631.5,323.5 C 632.833,323.5 633.5,324.167 633.5,325.5C 631.118,326.351 629.118,327.684 627.5,329.5C 623.103,329.575 618.77,329.075 614.5,328C 613.259,326.513 613.759,325.68 616,325.5C 618.81,326.27 621.643,326.937 624.5,327.5C 627.275,326.754 629.608,325.421 631.5,323.5 Z"/></g>
<g><path style="opacity:0.925" fill="#4a483d" d="M 661.5,326.5 C 664.243,328.239 666.243,330.573 667.5,333.5C 667.167,333.5 666.833,333.5 666.5,333.5C 666.038,332.12 665.038,331.453 663.5,331.5C 661.865,332.046 660.199,332.38 658.5,332.5C 658.821,330.952 659.821,330.285 661.5,330.5C 661.5,329.167 661.5,327.833 661.5,326.5 Z"/></g>
<g><path style="opacity:1" fill="#464339" d="M 642.5,332.5 C 642.167,331.5 641.5,330.833 640.5,330.5C 640.821,328.952 641.821,328.285 643.5,328.5C 643.768,330.099 643.434,331.432 642.5,332.5 Z"/></g>
<g><path style="opacity:1" fill="#26251f" d="M 662.5,323.5 C 664.974,326.31 667.974,328.31 671.5,329.5C 671.427,331.027 672.094,332.027 673.5,332.5C 674.906,332.973 675.573,333.973 675.5,335.5C 675.631,336.376 675.298,337.043 674.5,337.5C 672.6,335.384 670.267,334.051 667.5,333.5C 666.243,330.573 664.243,328.239 661.5,326.5C 661.263,325.209 661.596,324.209 662.5,323.5 Z"/></g>
<g><path style="opacity:1" fill="#585548" d="M 671.5,329.5 C 672.906,329.973 673.573,330.973 673.5,332.5C 672.094,332.027 671.427,331.027 671.5,329.5 Z"/></g>
<g><path style="opacity:1" fill="#d6cfaf" d="M 633.5,325.5 C 633.833,325.5 634.167,325.5 634.5,325.5C 635.5,325.833 636.167,326.5 636.5,327.5C 636.351,328.552 636.517,329.552 637,330.5C 638.393,327.875 639.559,327.875 640.5,330.5C 641.5,330.833 642.167,331.5 642.5,332.5C 643.234,333.708 643.567,335.041 643.5,336.5C 645.5,336.5 647.5,336.5 649.5,336.5C 650.568,337.434 651.901,337.768 653.5,337.5C 652.759,340.634 651.759,343.634 650.5,346.5C 647.092,345.828 644.425,346.828 642.5,349.5C 642.957,350.298 643.624,350.631 644.5,350.5C 643.909,351.151 643.243,351.818 642.5,352.5C 643.59,353.609 643.59,354.609 642.5,355.5C 640.149,353.771 637.482,353.104 634.5,353.5C 636.292,352.691 638.292,352.191 640.5,352C 638.498,350.981 636.498,350.148 634.5,349.5C 634.833,348.833 635.167,348.167 635.5,347.5C 637.017,347.489 638.184,346.823 639,345.5C 639.528,344.184 639.028,343.517 637.5,343.5C 637.487,339.863 638.82,336.863 641.5,334.5C 640.904,331.754 639.237,330.92 636.5,332C 635.36,333.973 634.027,335.807 632.5,337.5C 632.167,337.167 631.833,336.833 631.5,336.5C 634.215,332.218 632.882,329.885 627.5,329.5C 629.118,327.684 631.118,326.351 633.5,325.5 Z"/></g>
<g><path style="opacity:1" fill="#aca68c" d="M 633.5,347.5 C 632.1,348.1 631.1,349.1 630.5,350.5C 630.5,351.167 630.167,351.5 629.5,351.5C 628.159,347.085 626.825,342.751 625.5,338.5C 625.322,337.305 624.989,336.138 624.5,335C 624.974,333.392 625.641,333.226 626.5,334.5C 627.855,338.44 629.022,342.44 630,346.5C 631.011,347.337 632.178,347.67 633.5,347.5 Z"/></g>
<g><path style="opacity:1" fill="#7a7664" d="M 677.5,338.5 C 678.906,338.973 679.573,339.973 679.5,341.5C 678.094,341.027 677.427,340.027 677.5,338.5 Z"/></g>
<g><path style="opacity:1" fill="#7f7a67" d="M 693.5,332.5 C 690.853,334.811 688.186,337.144 685.5,339.5C 683.914,341.173 683.247,343.173 683.5,345.5C 681.866,344.419 680.533,343.085 679.5,341.5C 684.352,338.325 688.685,334.325 692.5,329.5C 693.386,330.325 693.719,331.325 693.5,332.5 Z"/></g>
<g><path style="opacity:1" fill="#333129" d="M 667.5,333.5 C 670.267,334.051 672.6,335.384 674.5,337.5C 675.298,337.043 675.631,336.376 675.5,335.5C 676.401,336.29 677.068,337.29 677.5,338.5C 677.427,340.027 678.094,341.027 679.5,341.5C 680.533,343.085 681.866,344.419 683.5,345.5C 683.5,345.833 683.5,346.167 683.5,346.5C 683.719,347.675 683.386,348.675 682.5,349.5C 679.29,347.38 676.29,345.047 673.5,342.5C 671.5,339.5 669.5,336.5 667.5,333.5 Z"/></g>
<g><path style="opacity:1" fill="#8b8772" d="M 637.5,343.5 C 639.028,343.517 639.528,344.184 639,345.5C 638.184,346.823 637.017,347.489 635.5,347.5C 635.167,347.5 634.833,347.5 634.5,347.5C 635.789,346.363 636.789,345.03 637.5,343.5 Z"/></g>
<g><path style="opacity:1" fill="#beb79b" d="M 657.5,335.5 C 656.781,337.764 656.448,340.097 656.5,342.5C 655.5,342.5 654.5,342.5 653.5,342.5C 653.5,344.167 653.5,345.833 653.5,347.5C 650.813,347.336 648.146,347.503 645.5,348C 644.748,348.671 644.414,349.504 644.5,350.5C 643.624,350.631 642.957,350.298 642.5,349.5C 644.425,346.828 647.092,345.828 650.5,346.5C 651.759,343.634 652.759,340.634 653.5,337.5C 651.901,337.768 650.568,337.434 649.5,336.5C 651.167,336.5 652.833,336.5 654.5,336.5C 654.343,337.873 654.51,339.207 655,340.5C 655.099,338.347 655.933,336.681 657.5,335.5 Z"/></g>
<g><path style="opacity:1" fill="#605d4e" d="M 633.5,347.5 C 633.833,347.5 634.167,347.5 634.5,347.5C 634.833,347.5 635.167,347.5 635.5,347.5C 635.167,348.167 634.833,348.833 634.5,349.5C 633.566,350.568 633.232,351.901 633.5,353.5C 632.488,354.872 631.488,356.205 630.5,357.5C 630.682,355.325 631.349,353.325 632.5,351.5C 632.561,349.279 631.895,348.946 630.5,350.5C 631.1,349.1 632.1,348.1 633.5,347.5 Z"/></g>
<g><path style="opacity:0.859" fill="#5d5a4c" d="M 673.5,342.5 C 676.29,345.047 679.29,347.38 682.5,349.5C 683.386,348.675 683.719,347.675 683.5,346.5C 684.407,348.657 685.073,350.99 685.5,353.5C 685.923,355.781 685.256,357.448 683.5,358.5C 682.206,357.71 681.039,356.71 680,355.5C 678.295,350.852 676.129,346.519 673.5,342.5 Z"/></g>
<g><path style="opacity:1" fill="#95907a" d="M 634.5,349.5 C 636.498,350.148 638.498,350.981 640.5,352C 638.292,352.191 636.292,352.691 634.5,353.5C 634.167,353.5 633.833,353.5 633.5,353.5C 633.232,351.901 633.566,350.568 634.5,349.5 Z"/></g>
<g><path style="opacity:0.953" fill="#aea88e" d="M 685.5,353.5 C 687.412,354.799 689.412,355.799 691.5,356.5C 689.744,357.552 689.077,359.219 689.5,361.5C 687.588,360.201 685.588,359.201 683.5,358.5C 685.256,357.448 685.923,355.781 685.5,353.5 Z"/></g>
<g><path style="opacity:1" fill="#38362e" d="M 630.5,357.5 C 629.197,359.142 627.864,360.809 626.5,362.5C 624.716,363.72 623.05,363.72 621.5,362.5C 624.421,358.981 627.087,355.314 629.5,351.5C 630.167,351.5 630.5,351.167 630.5,350.5C 631.895,348.946 632.561,349.279 632.5,351.5C 631.349,353.325 630.682,355.325 630.5,357.5 Z"/></g>
<g><path style="opacity:1" fill="#ded6b5" d="M 625.5,338.5 C 626.825,342.751 628.159,347.085 629.5,351.5C 627.087,355.314 624.421,358.981 621.5,362.5C 619.597,362.796 617.93,363.463 616.5,364.5C 615.791,365.404 614.791,365.737 613.5,365.5C 610.058,364.828 607.391,365.828 605.5,368.5C 603.606,367.952 601.94,366.952 600.5,365.5C 600.167,365.833 599.833,366.167 599.5,366.5C 600.5,367.833 601.5,369.167 602.5,370.5C 602.069,371.293 601.735,372.127 601.5,373C 603.013,374.879 603.679,377.046 603.5,379.5C 602.71,380.401 601.71,381.068 600.5,381.5C 599.506,382.999 599.506,384.666 600.5,386.5C 598.958,384.12 596.958,382.12 594.5,380.5C 595.651,379.269 596.817,379.269 598,380.5C 597.6,377.509 596.433,374.676 594.5,372C 595.423,369.959 595.756,367.792 595.5,365.5C 593.801,365.34 592.134,365.506 590.5,366C 591.494,367.329 592.494,368.662 593.5,370C 593.167,370.5 592.833,371 592.5,371.5C 590.639,370.472 589.305,368.972 588.5,367C 587.128,366.598 585.795,366.098 584.5,365.5C 583.449,366.885 582.116,367.885 580.5,368.5C 579.269,367.349 579.269,366.183 580.5,365C 575.5,364.333 570.5,364.333 565.5,365C 563.987,367.846 561.821,370.013 559,371.5C 558.5,371.167 558,370.833 557.5,370.5C 558.628,369.738 559.795,369.071 561,368.5C 561.883,365.898 563.383,363.731 565.5,362C 575.559,361.896 585.559,361.229 595.5,360C 595.747,358.187 596.08,356.353 596.5,354.5C 597.167,355.5 597.833,356.5 598.5,357.5C 602.335,353.084 607.002,349.918 612.5,348C 613.09,346.491 613.756,344.991 614.5,343.5C 615.548,344.383 616.715,345.05 618,345.5C 620.231,343.8 622.731,342.8 625.5,342.5C 625.5,341.167 625.5,339.833 625.5,338.5 Z"/></g>
<g><path style="opacity:1" fill="#736f5d" d="M 621.5,362.5 C 623.05,363.72 624.716,363.72 626.5,362.5C 626.703,364.638 627.703,366.305 629.5,367.5C 626.581,368.932 625.248,367.932 625.5,364.5C 623.05,364.298 620.717,364.631 618.5,365.5C 618.158,364.662 617.492,364.328 616.5,364.5C 617.93,363.463 619.597,362.796 621.5,362.5 Z"/></g>
<g><path style="opacity:0.898" fill="#615d4f" d="M 691.5,356.5 C 692.29,357.609 692.79,358.942 693,360.5C 695.9,361.737 698.4,363.404 700.5,365.5C 700.5,366.167 700.833,366.5 701.5,366.5C 700.791,367.404 699.791,367.737 698.5,367.5C 695.482,365.474 692.482,363.474 689.5,361.5C 689.077,359.219 689.744,357.552 691.5,356.5 Z"/></g>
<g><path style="opacity:1" fill="#98937c" d="M 605.5,368.5 C 604.833,369.167 604.167,369.833 603.5,370.5C 604.551,373.656 604.551,376.656 603.5,379.5C 603.679,377.046 603.013,374.879 601.5,373C 601.735,372.127 602.069,371.293 602.5,370.5C 601.5,369.167 600.5,367.833 599.5,366.5C 599.833,366.167 600.167,365.833 600.5,365.5C 601.94,366.952 603.606,367.952 605.5,368.5 Z"/></g>
<g><path style="opacity:1" fill="#716d5c" d="M 613.5,365.5 C 610.224,367.277 606.891,368.944 603.5,370.5C 604.167,369.833 604.833,369.167 605.5,368.5C 607.391,365.828 610.058,364.828 613.5,365.5 Z"/></g>
<g><path style="opacity:1" fill="#9f9a82" d="M 701.5,366.5 C 704.545,366.508 707.545,366.841 710.5,367.5C 710.769,369.429 710.269,371.095 709,372.5C 708.517,371.552 708.351,370.552 708.5,369.5C 705.612,368.99 703.279,369.656 701.5,371.5C 700.662,371.842 700.328,372.508 700.5,373.5C 699.715,371.626 699.048,369.626 698.5,367.5C 699.791,367.737 700.791,367.404 701.5,366.5 Z"/></g>
<g><path style="opacity:1" fill="#d7d0b0" d="M 633.5,353.5 C 633.833,353.5 634.167,353.5 634.5,353.5C 634.92,355.094 635.586,356.594 636.5,358C 633.51,360.469 632.177,363.635 632.5,367.5C 633.5,367.5 634.5,367.5 635.5,367.5C 635.5,368.833 635.5,370.167 635.5,371.5C 632.756,371.248 630.256,371.915 628,373.5C 626.494,371.672 624.827,371.338 623,372.5C 621.8,370.588 620.133,369.255 618,368.5C 617.911,370.113 618.745,371.28 620.5,372C 616.102,373.9 612.435,376.733 609.5,380.5C 610.5,381.833 611.5,383.167 612.5,384.5C 614.017,383.089 615.351,383.256 616.5,385C 615.552,385.483 614.552,385.649 613.5,385.5C 613.066,388.934 611.4,391.601 608.5,393.5C 608.179,391.952 607.179,391.285 605.5,391.5C 605.02,388.995 604.02,386.662 602.5,384.5C 603.602,383.824 604.602,383.158 605.5,382.5C 606.748,381.666 607.415,380.333 607.5,378.5C 607.155,376.434 606.988,374.434 607,372.5C 610.948,370.383 614.782,368.05 618.5,365.5C 620.717,364.631 623.05,364.298 625.5,364.5C 625.248,367.932 626.581,368.932 629.5,367.5C 627.703,366.305 626.703,364.638 626.5,362.5C 627.864,360.809 629.197,359.142 630.5,357.5C 631.488,356.205 632.488,354.872 633.5,353.5 Z"/></g>
<g><path style="opacity:1" fill="#474439" d="M 616.5,364.5 C 617.492,364.328 618.158,364.662 618.5,365.5C 614.782,368.05 610.948,370.383 607,372.5C 606.988,374.434 607.155,376.434 607.5,378.5C 607.415,380.333 606.748,381.666 605.5,382.5C 603.856,382.286 602.356,382.62 601,383.5C 600.536,382.906 600.369,382.239 600.5,381.5C 601.71,381.068 602.71,380.401 603.5,379.5C 604.551,376.656 604.551,373.656 603.5,370.5C 606.891,368.944 610.224,367.277 613.5,365.5C 614.791,365.737 615.791,365.404 616.5,364.5 Z"/></g>
<g><path style="opacity:1" fill="#5d594b" d="M 600.5,381.5 C 600.369,382.239 600.536,382.906 601,383.5C 602.356,382.62 603.856,382.286 605.5,382.5C 604.602,383.158 603.602,383.824 602.5,384.5C 604.02,386.662 605.02,388.995 605.5,391.5C 605.5,392.167 605.5,392.833 605.5,393.5C 604.596,394.209 604.263,395.209 604.5,396.5C 603.566,395.432 603.232,394.099 603.5,392.5C 603.346,390.03 602.346,388.03 600.5,386.5C 599.506,384.666 599.506,382.999 600.5,381.5 Z"/></g>
<g><path style="opacity:1" fill="#605c4e" d="M 701.5,371.5 C 705.247,373.699 708.58,376.366 711.5,379.5C 711.268,385.396 708.268,388.729 702.5,389.5C 700.554,394.396 699.887,399.729 700.5,405.5C 699.673,400.349 699.173,395.016 699,389.5C 698.817,392.365 698.317,395.031 697.5,397.5C 697.5,394.5 697.5,391.5 697.5,388.5C 703.653,388.844 707.32,386.01 708.5,380C 706.083,377.612 703.416,375.445 700.5,373.5C 700.328,372.508 700.662,371.842 701.5,371.5 Z"/></g>
<g><path style="opacity:1" fill="#ded6b6" d="M 697.5,388.5 C 697.5,391.5 697.5,394.5 697.5,397.5C 697.806,400.385 697.473,403.052 696.5,405.5C 695.849,406.091 695.182,406.757 694.5,407.5C 692.401,405.48 690.067,405.146 687.5,406.5C 690.104,408.03 692.771,409.363 695.5,410.5C 695.427,412.027 696.094,413.027 697.5,413.5C 699.299,417.903 699.966,422.57 699.5,427.5C 697.5,427.5 695.5,427.5 693.5,427.5C 691.052,426.527 688.385,426.194 685.5,426.5C 685.279,428.664 684.279,430.33 682.5,431.5C 681.196,428.088 682.196,425.421 685.5,423.5C 681.865,420.958 681.532,417.958 684.5,414.5C 682.703,409.199 679.036,406.365 673.5,406C 672.167,405.333 672.167,404.667 673.5,404C 672.892,403.13 672.059,402.63 671,402.5C 669.306,404.429 667.139,405.429 664.5,405.5C 664.412,402.073 662.745,399.74 659.5,398.5C 656.588,397.932 653.588,397.932 650.5,398.5C 650.5,399.5 650.5,400.5 650.5,401.5C 648.833,401.5 647.167,401.5 645.5,401.5C 645.5,400.5 645.5,399.5 645.5,398.5C 646.822,398.33 647.989,398.663 649,399.5C 649.5,398.333 650.333,397.5 651.5,397C 654.107,396.182 656.774,395.682 659.5,395.5C 663.471,396.38 667.471,397.047 671.5,397.5C 671.281,396.325 671.614,395.325 672.5,394.5C 674.55,395.077 675.55,396.41 675.5,398.5C 676.5,398.5 677.5,398.5 678.5,398.5C 677.959,395.348 678.959,392.848 681.5,391C 682.996,390.493 684.163,390.993 685,392.5C 686.747,391.67 688.413,390.67 690,389.5C 691.584,389.988 692.751,390.988 693.5,392.5C 694.409,390.625 695.743,389.292 697.5,388.5 Z"/></g>
<g><path style="opacity:1" fill="#dcd4b3" d="M 709.5,428.5 C 710.85,427.176 710.683,426.176 709,425.5C 707.174,426.673 705.341,426.673 703.5,425.5C 703.666,420.821 703.499,416.155 703,411.5C 702.722,410.584 702.222,409.918 701.5,409.5C 701.5,408.833 701.5,408.167 701.5,407.5C 701.211,401.409 701.545,395.409 702.5,389.5C 708.268,388.729 711.268,385.396 711.5,379.5C 708.58,376.366 705.247,373.699 701.5,371.5C 703.279,369.656 705.612,368.99 708.5,369.5C 708.351,370.552 708.517,371.552 709,372.5C 710.269,371.095 710.769,369.429 710.5,367.5C 707.545,366.841 704.545,366.508 701.5,366.5C 700.833,366.5 700.5,366.167 700.5,365.5C 702.527,365.662 704.527,365.495 706.5,365C 709.029,362.971 711.696,361.138 714.5,359.5C 714.833,359.833 715.167,360.167 715.5,360.5C 713.31,362.524 710.977,364.357 708.5,366C 710.423,366.808 712.423,367.308 714.5,367.5C 717.171,366.643 719.837,366.143 722.5,366C 720.124,368.68 717.124,370.013 713.5,370C 718.757,371.327 724.09,372.494 729.5,373.5C 729.5,374.5 729.5,375.5 729.5,376.5C 725.444,376.223 721.444,375.556 717.5,374.5C 716.833,374.833 716.167,375.167 715.5,375.5C 713.862,378.446 712.695,381.446 712,384.5C 716.289,385.37 720.456,385.37 724.5,384.5C 719.831,387.021 714.831,388.021 709.5,387.5C 710.154,391.683 708.488,394.516 704.5,396C 705.641,396.741 705.641,397.575 704.5,398.5C 709.786,401.767 709.786,404.933 704.5,408C 705.357,408.689 706.023,409.522 706.5,410.5C 705.339,415.115 704.839,419.782 705,424.5C 706.746,422.543 708.912,421.543 711.5,421.5C 712.01,424.388 711.344,426.721 709.5,428.5 Z"/></g>
<g><path style="opacity:1" fill="#97927b" d="M 605.5,391.5 C 607.179,391.285 608.179,391.952 608.5,393.5C 607.5,393.5 606.5,393.5 605.5,393.5C 605.5,392.833 605.5,392.167 605.5,391.5 Z"/></g>
<g><path style="opacity:1" fill="#74705f" d="M 603.5,392.5 C 603.232,394.099 603.566,395.432 604.5,396.5C 603.033,401.804 604.033,406.637 607.5,411C 609.657,411.078 611.657,411.245 613.5,411.5C 611.646,413.224 610.312,415.224 609.5,417.5C 609.33,412.725 608.33,412.392 606.5,416.5C 606.768,414.901 606.434,413.568 605.5,412.5C 604.496,411.317 603.662,409.984 603,408.5C 602.501,404.179 602.334,399.846 602.5,395.5C 602.263,394.209 602.596,393.209 603.5,392.5 Z"/></g>
<g><path style="opacity:1" fill="#b8b297" d="M 702.5,389.5 C 701.545,395.409 701.211,401.409 701.5,407.5C 700.662,407.158 700.328,406.492 700.5,405.5C 699.887,399.729 700.554,394.396 702.5,389.5 Z"/></g>
<g><path style="opacity:1" fill="#918c76" d="M 696.5,405.5 C 696.371,407.216 696.038,408.883 695.5,410.5C 692.771,409.363 690.104,408.03 687.5,406.5C 690.067,405.146 692.401,405.48 694.5,407.5C 695.182,406.757 695.849,406.091 696.5,405.5 Z"/></g>
<g><path style="opacity:1" fill="#beb89b" d="M 602.5,395.5 C 602.334,399.846 602.501,404.179 603,408.5C 603.662,409.984 604.496,411.317 605.5,412.5C 604.417,412.461 603.417,412.127 602.5,411.5C 601.185,406.014 601.185,400.68 602.5,395.5 Z"/></g>
<g><path style="opacity:0.961" fill="#8a8571" d="M 695.5,410.5 C 696.906,410.973 697.573,411.973 697.5,413.5C 696.094,413.027 695.427,412.027 695.5,410.5 Z"/></g>
<g><path style="opacity:1" fill="#25241e" d="M 609.5,417.5 C 608.073,419.148 607.24,421.148 607,423.5C 606.503,421.19 606.337,418.857 606.5,416.5C 608.33,412.392 609.33,412.725 609.5,417.5 Z"/></g>
<g><path style="opacity:1" fill="#4c493e" d="M 606.5,416.5 C 606.337,418.857 606.503,421.19 607,423.5C 607.24,421.148 608.073,419.148 609.5,417.5C 609.5,420.167 609.5,422.833 609.5,425.5C 608.041,425.567 606.708,425.234 605.5,424.5C 605.194,421.615 605.527,418.948 606.5,416.5 Z"/></g>
<g><path style="opacity:1" fill="#33322a" d="M 700.5,405.5 C 700.328,406.492 700.662,407.158 701.5,407.5C 701.5,408.167 701.5,408.833 701.5,409.5C 701.952,414.998 702.619,420.331 703.5,425.5C 704.287,427.104 705.62,427.771 707.5,427.5C 707.715,429.179 707.048,430.179 705.5,430.5C 703.291,429.024 701.958,429.691 701.5,432.5C 700.833,431.5 700.167,430.5 699.5,429.5C 697.167,429.5 694.833,429.5 692.5,429.5C 691.167,429.5 689.833,429.5 688.5,429.5C 689.552,427.744 691.219,427.077 693.5,427.5C 695.5,427.5 697.5,427.5 699.5,427.5C 699.966,422.57 699.299,417.903 697.5,413.5C 697.573,411.973 696.906,410.973 695.5,410.5C 696.038,408.883 696.371,407.216 696.5,405.5C 697.473,403.052 697.806,400.385 697.5,397.5C 698.317,395.031 698.817,392.365 699,389.5C 699.173,395.016 699.673,400.349 700.5,405.5 Z"/></g>
<g><path style="opacity:1" fill="#9e9881" d="M 605.5,412.5 C 606.434,413.568 606.768,414.901 606.5,416.5C 605.527,418.948 605.194,421.615 605.5,424.5C 598.338,424.387 598.005,423.387 604.5,421.5C 603.833,420.833 603.167,420.167 602.5,419.5C 603.706,417.206 604.706,414.873 605.5,412.5 Z"/></g>
<g><path style="opacity:1" fill="#6c6858" d="M 701.5,409.5 C 702.222,409.918 702.722,410.584 703,411.5C 703.499,416.155 703.666,420.821 703.5,425.5C 702.619,420.331 701.952,414.998 701.5,409.5 Z"/></g>
<g><path style="opacity:1" fill="#96917a" d="M 692.5,429.5 C 694.833,429.5 697.167,429.5 699.5,429.5C 699.737,430.791 699.404,431.791 698.5,432.5C 696.844,430.94 694.844,429.94 692.5,429.5 Z"/></g>
<g><path style="opacity:1" fill="#444137" d="M 613.5,431.5 C 613.5,431.833 613.5,432.167 613.5,432.5C 613.5,435.5 613.5,438.5 613.5,441.5C 613.5,441.833 613.5,442.167 613.5,442.5C 612.681,445.305 612.181,448.305 612,451.5C 611.187,449.564 610.687,447.564 610.5,445.5C 610.5,442.167 610.5,438.833 610.5,435.5C 610.5,434.167 610.5,432.833 610.5,431.5C 608.5,431.5 606.5,431.5 604.5,431.5C 604.461,430.417 604.127,429.417 603.5,428.5C 607.42,427.397 610.754,428.397 613.5,431.5 Z"/></g>
<g><path style="opacity:1" fill="#b6b095" d="M 693.5,427.5 C 691.219,427.077 689.552,427.744 688.5,429.5C 685.593,430.734 683.259,432.734 681.5,435.5C 681.167,435.167 680.833,434.833 680.5,434.5C 681.193,433.482 681.859,432.482 682.5,431.5C 684.279,430.33 685.279,428.664 685.5,426.5C 688.385,426.194 691.052,426.527 693.5,427.5 Z"/></g>
<g><path style="opacity:1" fill="#5a574a" d="M 699.5,429.5 C 700.167,430.5 700.833,431.5 701.5,432.5C 701.167,433.167 700.833,433.833 700.5,434.5C 699.508,434.672 698.842,434.338 698.5,433.5C 698.5,433.167 698.5,432.833 698.5,432.5C 699.404,431.791 699.737,430.791 699.5,429.5 Z"/></g>
<g><path style="opacity:1" fill="#9d9780" d="M 604.5,431.5 C 606.5,431.5 608.5,431.5 610.5,431.5C 610.5,432.833 610.5,434.167 610.5,435.5C 608.616,435.288 607.283,434.288 606.5,432.5C 605.246,434.259 605.579,435.759 607.5,437C 606.5,437.667 605.5,437.667 604.5,437C 603.464,435.224 603.464,433.391 604.5,431.5 Z"/></g>
<g><path style="opacity:1" fill="#c2bb9f" d="M 605.5,424.5 C 606.708,425.234 608.041,425.567 609.5,425.5C 610.183,427.176 611.517,427.843 613.5,427.5C 613.5,428.833 613.5,430.167 613.5,431.5C 610.754,428.397 607.42,427.397 603.5,428.5C 604.127,429.417 604.461,430.417 604.5,431.5C 603.464,433.391 603.464,435.224 604.5,437C 605.5,437.667 606.5,437.667 607.5,437C 605.579,435.759 605.246,434.259 606.5,432.5C 607.283,434.288 608.616,435.288 610.5,435.5C 610.5,438.833 610.5,442.167 610.5,445.5C 610.167,445.5 609.833,445.5 609.5,445.5C 609.665,442.482 609.498,439.482 609,436.5C 606.731,439.054 604.398,439.054 602,436.5C 602.818,433.169 602.651,429.836 601.5,426.5C 603.483,426.843 604.817,426.176 605.5,424.5 Z"/></g>
<g><path style="opacity:1" fill="#b6b095" d="M 705.5,430.5 C 706.167,431.5 706.833,432.5 707.5,433.5C 705.589,433.426 704.422,432.426 704,430.5C 703.303,432.584 702.136,434.251 700.5,435.5C 700.5,435.167 700.5,434.833 700.5,434.5C 700.833,433.833 701.167,433.167 701.5,432.5C 701.958,429.691 703.291,429.024 705.5,430.5 Z"/></g>
<g><path style="opacity:1" fill="#afa98e" d="M 613.5,441.5 C 613.5,438.5 613.5,435.5 613.5,432.5C 616.554,431.679 619.554,431.679 622.5,432.5C 617.937,433.976 614.937,436.976 613.5,441.5 Z"/></g>
<g><path style="opacity:1" fill="#948f78" d="M 698.5,433.5 C 698.842,434.338 699.508,434.672 700.5,434.5C 700.5,434.833 700.5,435.167 700.5,435.5C 697.784,435.678 695.117,436.178 692.5,437C 691.385,439.707 690.052,442.207 688.5,444.5C 688.055,441.782 688.721,439.115 690.5,436.5C 693.073,435.192 695.74,434.192 698.5,433.5 Z"/></g>
<g><path style="opacity:1" fill="#74705f" d="M 703.5,425.5 C 705.341,426.673 707.174,426.673 709,425.5C 710.683,426.176 710.85,427.176 709.5,428.5C 708.427,429.251 708.26,430.251 709,431.5C 712.703,434.867 716.036,438.534 719,442.5C 723.748,445.791 728.581,448.958 733.5,452C 736.039,454.37 738.372,456.87 740.5,459.5C 740.5,460.167 740.167,460.5 739.5,460.5C 733.242,454.367 726.242,449.2 718.5,445C 715.276,440.612 711.609,436.778 707.5,433.5C 706.833,432.5 706.167,431.5 705.5,430.5C 707.048,430.179 707.715,429.179 707.5,427.5C 705.62,427.771 704.287,427.104 703.5,425.5 Z"/></g>
<g><path style="opacity:1" fill="#96917a" d="M 613.5,442.5 C 613.5,445.833 613.5,449.167 613.5,452.5C 612.833,452.5 612.167,452.5 611.5,452.5C 610.076,450.485 609.41,448.152 609.5,445.5C 609.833,445.5 610.167,445.5 610.5,445.5C 610.687,447.564 611.187,449.564 612,451.5C 612.181,448.305 612.681,445.305 613.5,442.5 Z"/></g>
<g><path style="opacity:1" fill="#c1ba9d" d="M 611.5,452.5 C 612.167,452.5 612.833,452.5 613.5,452.5C 614.002,457.838 614.169,463.172 614,468.5C 612.14,471.272 609.806,473.605 607,475.5C 605.236,478.179 603.569,480.846 602,483.5C 601.202,481.741 601.369,480.074 602.5,478.5C 605.316,474.186 608.649,470.353 612.5,467C 611.581,462.219 611.248,457.385 611.5,452.5 Z"/></g>
<g><path style="opacity:1" fill="#9d9780" d="M 740.5,459.5 C 746.506,464.009 752.006,469.009 757,474.5C 760.808,482.451 764.308,490.451 767.5,498.5C 767.5,499.167 767.167,499.5 766.5,499.5C 764.526,497.572 763.026,495.239 762,492.5C 760.206,486.252 757.872,480.252 755,474.5C 749.638,469.968 744.472,465.301 739.5,460.5C 740.167,460.5 740.5,460.167 740.5,459.5 Z"/></g>
<g><path style="opacity:0.854" fill="#c6bfa2" d="M 767.5,498.5 C 768.117,498.611 768.617,498.944 769,499.5C 770.24,508.306 773.407,516.306 778.5,523.5C 777.5,523.5 776.5,523.5 775.5,523.5C 773.354,521.259 771.854,518.592 771,515.5C 770.197,509.931 768.697,504.598 766.5,499.5C 767.167,499.5 767.5,499.167 767.5,498.5 Z"/></g>
<g><path style="opacity:1" fill="#aca68c" d="M 775.5,525.5 C 777.587,526.585 778.92,528.251 779.5,530.5C 777.413,529.415 776.08,527.749 775.5,525.5 Z"/></g>
<g><path style="opacity:0.941" fill="#918c77" d="M 779.5,530.5 C 780.906,530.973 781.573,531.973 781.5,533.5C 780.094,533.027 779.427,532.027 779.5,530.5 Z"/></g>
<g><path style="opacity:1" fill="#49473c" d="M 775.5,523.5 C 776.5,523.5 777.5,523.5 778.5,523.5C 782.61,528.721 785.943,534.387 788.5,540.5C 790.045,541.452 791.712,541.785 793.5,541.5C 794.167,542.167 794.833,542.833 795.5,543.5C 792.934,543.656 790.434,543.322 788,542.5C 787.5,542.833 787,543.167 786.5,543.5C 787.602,544.176 788.602,544.842 789.5,545.5C 786.044,546.27 783.377,548.27 781.5,551.5C 779.782,553.223 778.449,555.223 777.5,557.5C 776.833,557.5 776.5,557.833 776.5,558.5C 775.033,561.258 774.367,560.925 774.5,557.5C 775.434,556.432 775.768,555.099 775.5,553.5C 775.5,553.167 775.5,552.833 775.5,552.5C 778.797,549.704 781.964,546.704 785,543.5C 785.795,539.434 784.628,536.101 781.5,533.5C 781.573,531.973 780.906,530.973 779.5,530.5C 778.92,528.251 777.587,526.585 775.5,525.5C 775.5,524.833 775.5,524.167 775.5,523.5 Z"/></g>
<g><path style="opacity:0.875" fill="#a6a188" d="M 793.5,541.5 C 795.898,541.259 797.898,541.926 799.5,543.5C 798.167,543.5 796.833,543.5 795.5,543.5C 794.833,542.833 794.167,542.167 793.5,541.5 Z"/></g>
<g><path style="opacity:0.953" fill="#a29c84" d="M 800.5,543.5 C 803.152,543.41 805.485,544.076 807.5,545.5C 807.167,545.5 806.833,545.5 806.5,545.5C 804.214,545.405 802.214,544.738 800.5,543.5 Z"/></g>
<g><path style="opacity:1" fill="#a9a38a" d="M 789.5,545.5 C 791.698,545.875 793.698,546.542 795.5,547.5C 792.813,547.336 790.146,547.503 787.5,548C 786.944,548.383 786.611,548.883 786.5,549.5C 784.833,550.167 783.167,550.833 781.5,551.5C 783.377,548.27 786.044,546.27 789.5,545.5 Z"/></g>
<g><path style="opacity:1" fill="#282721" d="M 795.5,543.5 C 796.833,543.5 798.167,543.5 799.5,543.5C 799.833,543.5 800.167,543.5 800.5,543.5C 802.214,544.738 804.214,545.405 806.5,545.5C 808.219,546.022 809.552,547.022 810.5,548.5C 807.673,549.368 804.673,549.368 801.5,548.5C 799.621,547.659 797.621,547.325 795.5,547.5C 793.698,546.542 791.698,545.875 789.5,545.5C 788.602,544.842 787.602,544.176 786.5,543.5C 787,543.167 787.5,542.833 788,542.5C 790.434,543.322 792.934,543.656 795.5,543.5 Z"/></g>
<g><path style="opacity:1" fill="#bdb79a" d="M 811.5,545.5 C 816.414,545.362 821.081,546.028 825.5,547.5C 820.566,547.771 815.9,547.104 811.5,545.5 Z"/></g>
<g><path style="opacity:0.945" fill="#5c594b" d="M 806.5,545.5 C 806.833,545.5 807.167,545.5 807.5,545.5C 808.833,545.5 810.167,545.5 811.5,545.5C 815.9,547.104 820.566,547.771 825.5,547.5C 825.833,547.5 826.167,547.5 826.5,547.5C 826.611,548.117 826.944,548.617 827.5,549C 825.527,549.495 823.527,549.662 821.5,549.5C 819.5,549.5 817.5,549.5 815.5,549.5C 814.081,548.549 812.415,548.216 810.5,548.5C 809.552,547.022 808.219,546.022 806.5,545.5 Z"/></g>
<g><path style="opacity:1" fill="#a29c84" d="M 826.5,547.5 C 827.167,547.5 827.833,547.5 828.5,547.5C 828.762,548.978 828.429,550.311 827.5,551.5C 825.343,550.95 823.343,550.283 821.5,549.5C 823.527,549.662 825.527,549.495 827.5,549C 826.944,548.617 826.611,548.117 826.5,547.5 Z"/></g>
<g><path style="opacity:1" fill="#8d8873" d="M 801.5,548.5 C 804.673,549.368 807.673,549.368 810.5,548.5C 812.415,548.216 814.081,548.549 815.5,549.5C 814.167,549.5 812.833,549.5 811.5,549.5C 811.662,551.527 811.495,553.527 811,555.5C 810.79,553.942 810.29,552.609 809.5,551.5C 806.687,550.918 804.02,549.918 801.5,548.5 Z"/></g>
<g><path style="opacity:1" fill="#dad2b2" d="M 828.5,547.5 C 833.904,549.274 839.404,550.94 845,552.5C 853.332,551.541 861.498,549.875 869.5,547.5C 870.167,547.833 870.833,548.167 871.5,548.5C 862.551,551.536 853.384,553.869 844,555.5C 841.473,554.241 838.806,553.241 836,552.5C 834.188,552.493 832.688,553.16 831.5,554.5C 830.549,553.674 829.549,553.508 828.5,554C 831.457,558.496 835.457,559.663 840.5,557.5C 840.577,561.215 840.244,564.881 839.5,568.5C 838.348,567.375 837.348,567.375 836.5,568.5C 835.691,566.972 835.024,565.306 834.5,563.5C 832.783,561.25 830.449,558.75 827.5,556C 826.668,555.312 826.002,555.479 825.5,556.5C 826.77,557.288 827.77,558.288 828.5,559.5C 826.35,559.905 824.35,560.405 822.5,561C 823.476,558.853 823.309,556.686 822,554.5C 819.667,553.123 817.167,552.123 814.5,551.5C 813.637,553.771 813.637,556.105 814.5,558.5C 812.856,558.714 811.356,558.38 810,557.5C 809.505,555.527 809.338,553.527 809.5,551.5C 810.29,552.609 810.79,553.942 811,555.5C 811.495,553.527 811.662,551.527 811.5,549.5C 812.833,549.5 814.167,549.5 815.5,549.5C 817.5,549.5 819.5,549.5 821.5,549.5C 823.343,550.283 825.343,550.95 827.5,551.5C 828.429,550.311 828.762,548.978 828.5,547.5 Z"/></g>
<g><path style="opacity:1" fill="#ccc5a7" d="M 775.5,552.5 C 775.5,552.833 775.5,553.167 775.5,553.5C 773.143,553.337 770.81,553.503 768.5,554C 770.382,554.198 772.048,554.698 773.5,555.5C 771.208,555.756 769.041,555.423 767,554.5C 766.014,549.355 763.348,545.355 759,542.5C 758.182,539.773 758.348,537.106 759.5,534.5C 759.552,536.57 759.719,538.903 760,541.5C 761.444,543.155 763.278,543.822 765.5,543.5C 765.176,546.694 766.342,547.694 769,546.5C 769.595,547.899 769.428,549.232 768.5,550.5C 770.608,551.944 772.941,552.61 775.5,552.5 Z"/></g>
<g><path style="opacity:1" fill="#cfc8aa" d="M 786.5,549.5 C 784.461,555.644 786.794,558.477 793.5,558C 795.625,561.297 798.625,563.13 802.5,563.5C 800.887,564.427 799.221,565.261 797.5,566C 795.874,568.628 793.874,570.961 791.5,573C 790.563,573.692 789.897,573.525 789.5,572.5C 790.338,572.158 790.672,571.492 790.5,570.5C 794.818,568.693 795.985,565.693 794,561.5C 789.296,560.796 785.629,558.462 783,554.5C 782.676,556.569 781.842,556.902 780.5,555.5C 779.482,556.193 778.482,556.859 777.5,557.5C 778.449,555.223 779.782,553.223 781.5,551.5C 783.167,550.833 784.833,550.167 786.5,549.5 Z"/></g>
<g><path style="opacity:1" fill="#8f8974" d="M 775.5,553.5 C 775.768,555.099 775.434,556.432 774.5,557.5C 774.672,556.508 774.338,555.842 773.5,555.5C 772.048,554.698 770.382,554.198 768.5,554C 770.81,553.503 773.143,553.337 775.5,553.5 Z"/></g>
<g><path style="opacity:1" fill="#a19b83" d="M 774.5,557.5 C 774.367,560.925 775.033,561.258 776.5,558.5C 776.5,559.5 776.5,560.5 776.5,561.5C 775.209,561.737 774.209,561.404 773.5,560.5C 773.263,559.209 773.596,558.209 774.5,557.5 Z"/></g>
<g><path style="opacity:1" fill="#aca58c" d="M 834.5,563.5 C 832.246,562.585 830.246,561.252 828.5,559.5C 827.77,558.288 826.77,557.288 825.5,556.5C 826.002,555.479 826.668,555.312 827.5,556C 830.449,558.75 832.783,561.25 834.5,563.5 Z"/></g>
<g><path style="opacity:1" fill="#d2cbab" d="M 777.5,557.5 C 777.909,566.699 773.909,572.365 765.5,574.5C 767.984,571.706 769.151,568.373 769,564.5C 770.371,562.959 771.871,561.625 773.5,560.5C 774.209,561.404 775.209,561.737 776.5,561.5C 776.5,560.5 776.5,559.5 776.5,558.5C 776.5,557.833 776.833,557.5 777.5,557.5 Z"/></g>
<g><path style="opacity:1" fill="#a59f86" d="M 836.5,568.5 C 837.348,567.375 838.348,567.375 839.5,568.5C 840.8,569.601 841.3,570.934 841,572.5C 839.629,570.959 838.129,569.625 836.5,568.5 Z"/></g>
<g><path style="opacity:1" fill="#8c8772" d="M 790.5,570.5 C 790.672,571.492 790.338,572.158 789.5,572.5C 784.063,567.367 784.397,566.701 790.5,570.5 Z"/></g>
</svg>
