<?xml version="1.0" encoding="UTF-8"?>
<!DOCTYPE svg PUBLIC "-//W3C//DTD SVG 1.1//EN" "http://www.w3.org/Graphics/SVG/1.1/DTD/svg11.dtd">
<svg xmlns="http://www.w3.org/2000/svg" version="1.1" width="1920px" height="1080px" style="shape-rendering:geometricPrecision; text-rendering:geometricPrecision; image-rendering:optimizeQuality; fill-rule:evenodd; clip-rule:evenodd" xmlns:xlink="http://www.w3.org/1999/xlink">
<g><path style="opacity:0.999" fill="#e6debc" d="M -0.5,-0.5 C 639.5,-0.5 1279.5,-0.5 1919.5,-0.5C 1919.5,359.5 1919.5,719.5 1919.5,1079.5C 1279.5,1079.5 639.5,1079.5 -0.5,1079.5C -0.5,719.5 -0.5,359.5 -0.5,-0.5 Z"/></g>
<g><path style="opacity:1" fill="#e4dcbb" d="M 511.5,0.5 C 512.833,0.5 514.167,0.5 515.5,0.5C 515.785,2.28801 515.452,3.95467 514.5,5.5C 512.679,4.2723 511.679,2.60563 511.5,0.5 Z"/></g>
<g><path style="opacity:1" fill="#e4ddba" d="M 534.5,0.5 C 537.001,0.510921 537.168,1.17759 535,2.5C 534.536,1.90558 534.369,1.23891 534.5,0.5 Z"/></g>
<g><path style="opacity:1" fill="#e4ddba" d="M 1604.5,15.5 C 1605.5,15.5 1606.5,15.5 1607.5,15.5C 1606.75,19.31 1605.75,19.31 1604.5,15.5 Z"/></g>
<g><path style="opacity:1" fill="#e4ddba" d="M 515.5,20.5 C 517.332,21.1405 517.665,22.1405 516.5,23.5C 514.481,22.8671 514.147,21.8671 515.5,20.5 Z"/></g>
<g><path style="opacity:1" fill="#e4ddba" d="M 523.5,21.5 C 524.386,20.2241 525.386,20.2241 526.5,21.5C 525.767,22.087 524.767,22.087 523.5,21.5 Z"/></g>
<g><path style="opacity:1" fill="#e4ddba" d="M 488.5,26.5 C 492.624,27.9113 494.624,30.578 494.5,34.5C 491.52,32.527 489.52,29.8603 488.5,26.5 Z"/></g>
<g><path style="opacity:1" fill="#e4ddba" d="M 311.5,43.5 C 312.529,44.1257 313.529,44.959 314.5,46C 311.812,49.0753 310.812,48.2419 311.5,43.5 Z"/></g>
<g><path style="opacity:1" fill="#e4ddba" d="M 1605.5,46.5 C 1606.78,47.6936 1607.44,49.3603 1607.5,51.5C 1606.58,57.7474 1605.58,57.4141 1604.5,50.5C 1604.62,49.0755 1604.96,47.7421 1605.5,46.5 Z"/></g>
<g><path style="opacity:1" fill="#e4ddba" d="M 724.5,63.5 C 726.225,63.8425 726.725,64.8425 726,66.5C 724.961,65.7562 724.461,64.7562 724.5,63.5 Z"/></g>
<g><path style="opacity:1" fill="#e4ddba" d="M 485.5,73.5 C 487.337,73.6395 487.67,74.3061 486.5,75.5C 485.702,75.0431 485.369,74.3764 485.5,73.5 Z"/></g>
<g><path style="opacity:1" fill="#e4ddba" d="M 1100.5,73.5 C 1102.34,73.6395 1102.67,74.3061 1101.5,75.5C 1100.7,75.0431 1100.37,74.3764 1100.5,73.5 Z"/></g>
<g><path style="opacity:1" fill="#e4ddba" d="M 311.5,83.5 C 312.973,84.0715 314.64,84.0715 316.5,83.5C 316.5,84.5 316.5,85.5 316.5,86.5C 314.833,86.5 313.167,86.5 311.5,86.5C 311.5,85.5 311.5,84.5 311.5,83.5 Z"/></g>
<g><path style="opacity:1" fill="#e4ddba" d="M 824.5,83.5 C 826.337,83.6395 826.67,84.3061 825.5,85.5C 824.702,85.0431 824.369,84.3764 824.5,83.5 Z"/></g>
<g><path style="opacity:1" fill="#e4ddba" d="M 1605.5,108.5 C 1606.69,108.97 1607.36,109.97 1607.5,111.5C 1607.29,113.85 1606.13,115.516 1604,116.5C 1601.56,115.729 1599.06,115.562 1596.5,116C 1597.67,114.833 1598.83,113.667 1600,112.5C 1600.41,112.957 1600.91,113.291 1601.5,113.5C 1602.95,111.815 1604.29,110.149 1605.5,108.5 Z"/></g>
<g><path style="opacity:1" fill="#e4ddba" d="M 603.5,111.5 C 605.465,111.948 605.798,112.948 604.5,114.5C 602.481,113.867 602.147,112.867 603.5,111.5 Z"/></g>
<g><path style="opacity:1" fill="#e4ddba" d="M 1588.5,112.5 C 1590.98,112.747 1590.98,113.413 1588.5,114.5C 1587.54,114.03 1587.54,113.363 1588.5,112.5 Z"/></g>
<g><path style="opacity:1" fill="#e4ddba" d="M 1587.5,116.5 C 1590.34,116.528 1591.51,117.862 1591,120.5C 1589.49,119.91 1587.99,119.244 1586.5,118.5C 1586.86,117.817 1587.2,117.15 1587.5,116.5 Z"/></g>
<g><path style="opacity:1" fill="#e4ddba" d="M 1594.5,124.5 C 1595.5,124.5 1596.5,124.5 1597.5,124.5C 1597.5,125.5 1597.5,126.5 1597.5,127.5C 1596.5,127.5 1595.5,127.5 1594.5,127.5C 1594.5,126.5 1594.5,125.5 1594.5,124.5 Z"/></g>
<g><path style="opacity:1" fill="#e4ddba" d="M 1597.5,135.5 C 1598.5,135.5 1599.5,135.5 1600.5,135.5C 1600.29,137.92 1600.63,140.253 1601.5,142.5C 1601.19,143.308 1600.69,143.975 1600,144.5C 1598.62,141.632 1597.78,138.632 1597.5,135.5 Z"/></g>
<g><path style="opacity:1" fill="#e4ddba" d="M 1195.5,141.5 C 1197.81,142.405 1197.81,143.738 1195.5,145.5C 1192.88,144.135 1192.88,142.802 1195.5,141.5 Z"/></g>
<g><path style="opacity:1" fill="#e4ddba" d="M 531.5,143.5 C 532.675,143.281 533.675,143.614 534.5,144.5C 532.948,145.798 531.948,145.465 531.5,143.5 Z"/></g>
<g><path style="opacity:1" fill="#e4ddba" d="M 863.5,143.5 C 866.797,143.329 867.131,143.995 864.5,145.5C 863.702,145.043 863.369,144.376 863.5,143.5 Z"/></g>
<g><path style="opacity:1" fill="#e4ddba" d="M 495.5,166.5 C 493.48,164.194 491.813,161.527 490.5,158.5C 490.608,157.558 490.941,156.725 491.5,156C 495.389,154.972 498.723,155.805 501.5,158.5C 505.228,156.652 509.228,155.652 513.5,155.5C 513.177,151.774 513.511,148.107 514.5,144.5C 516.036,148.37 516.702,152.704 516.5,157.5C 514.833,157.5 513.167,157.5 511.5,157.5C 511.5,158.5 511.5,159.5 511.5,160.5C 508.15,160.335 504.817,160.502 501.5,161C 500.26,163.744 498.26,165.577 495.5,166.5 Z"/></g>
<g><path style="opacity:1" fill="#e4ddba" d="M 1509.5,144.5 C 1510.78,145.708 1510.78,147.042 1509.5,148.5C 1508.37,147.192 1508.37,145.858 1509.5,144.5 Z"/></g>
<g><path style="opacity:1" fill="#e4ddba" d="M 1489.5,150.5 C 1490.77,151.077 1490.77,151.743 1489.5,152.5C 1488.54,152.03 1488.54,151.363 1489.5,150.5 Z"/></g>
<g><path style="opacity:1" fill="#e4ddba" d="M 1497.5,160.5 C 1497.42,159.07 1497.75,157.736 1498.5,156.5C 1501.13,155.551 1503.79,155.551 1506.5,156.5C 1506.28,157.675 1506.61,158.675 1507.5,159.5C 1508.32,156.893 1508.82,154.226 1509,151.5C 1510.49,150.259 1511.32,150.759 1511.5,153C 1510.93,157.029 1509.93,160.862 1508.5,164.5C 1505.05,165.244 1503.38,163.91 1503.5,160.5C 1501.5,160.5 1499.5,160.5 1497.5,160.5 Z"/></g>
<g><path style="opacity:1" fill="#e4ddba" d="M 844.5,154.5 C 846.103,154.312 847.437,154.812 848.5,156C 847.095,157.269 845.429,157.769 843.5,157.5C 843.5,158.5 843.5,159.5 843.5,160.5C 840.15,160.335 836.817,160.502 833.5,161C 831.821,164.297 829.154,165.297 825.5,164C 824.556,161.281 824.223,158.448 824.5,155.5C 828.471,154.758 831.304,156.091 833,159.5C 835.157,156.329 837.99,155.329 841.5,156.5C 843.038,156.547 844.038,155.88 844.5,154.5 Z"/></g>
<g><path style="opacity:1" fill="#e4ddba" d="M 1177.5,154.5 C 1178.4,155.209 1178.74,156.209 1178.5,157.5C 1177.5,157.5 1176.5,157.5 1175.5,157.5C 1175.5,158.5 1175.5,159.5 1175.5,160.5C 1172.17,160.5 1168.83,160.5 1165.5,160.5C 1165.42,159.07 1165.75,157.736 1166.5,156.5C 1168.98,155.327 1171.48,155.327 1174,156.5C 1175.46,156.192 1176.63,155.525 1177.5,154.5 Z"/></g>
<g><path style="opacity:1" fill="#e4ddba" d="M 1497.5,160.5 C 1495.78,164.174 1492.78,165.507 1488.5,164.5C 1488.38,162.048 1487.38,160.048 1485.5,158.5C 1486.12,156.884 1487.12,155.551 1488.5,154.5C 1490.85,155.06 1493.19,155.727 1495.5,156.5C 1495.99,158.026 1496.66,159.359 1497.5,160.5 Z"/></g>
<g><path style="opacity:1" fill="#e4ddba" d="M 1155.5,155.5 C 1159.03,155.032 1162.03,156.032 1164.5,158.5C 1163.83,159.946 1162.66,160.612 1161,160.5C 1159.45,160.05 1157.95,159.883 1156.5,160C 1157.45,160.718 1157.62,161.551 1157,162.5C 1155.05,161.253 1153.22,159.92 1151.5,158.5C 1152.9,157.479 1154.23,156.479 1155.5,155.5 Z"/></g>
<g><path style="opacity:1" fill="#e4ddba" d="M 1164.5,163.5 C 1166.23,163.843 1166.73,164.843 1166,166.5C 1164.96,165.756 1164.46,164.756 1164.5,163.5 Z"/></g>
<g><path style="opacity:1" fill="#e4ddba" d="M 495.5,166.5 C 496.502,168.011 497.169,169.678 497.5,171.5C 495.176,171.338 493.509,170.172 492.5,168C 493.527,167.487 494.527,166.987 495.5,166.5 Z"/></g>
<g><path style="opacity:1" fill="#e4ddba" d="M 833.5,168.5 C 844.999,169.406 845.165,170.406 834,171.5C 832.317,170.824 832.15,169.824 833.5,168.5 Z"/></g>
<g><path style="opacity:1" fill="#e4ddba" d="M 1036.5,168.5 C 1038.08,169.002 1038.58,170.002 1038,171.5C 1036.96,170.756 1036.46,169.756 1036.5,168.5 Z"/></g>
<g><path style="opacity:1" fill="#e4ddba" d="M 1164.5,168.5 C 1177.76,169.534 1177.76,170.534 1164.5,171.5C 1164.5,170.5 1164.5,169.5 1164.5,168.5 Z"/></g>
<g><path style="opacity:1" fill="#e4ddba" d="M 1496.5,168.5 C 1498.46,168.948 1498.8,169.948 1497.5,171.5C 1496.61,170.675 1496.28,169.675 1496.5,168.5 Z"/></g>
<g><path style="opacity:1" fill="#e4ddba" d="M 1604.5,169.5 C 1605.5,169.414 1606.33,169.748 1607,170.5C 1607.67,174.5 1607.67,178.5 1607,182.5C 1605.57,181.788 1604.07,181.621 1602.5,182C 1604.1,178.017 1604.77,173.85 1604.5,169.5 Z"/></g>
<g><path style="opacity:1" fill="#e4ddba" d="M 1456.5,183.5 C 1458.08,184.002 1458.58,185.002 1458,186.5C 1456.74,188.607 1454.9,189.607 1452.5,189.5C 1452.5,188.5 1452.5,187.5 1452.5,186.5C 1454.97,186.912 1456.31,185.912 1456.5,183.5 Z"/></g>
<g><path style="opacity:1" fill="#e4ddba" d="M 793.5,184.5 C 795.337,184.639 795.67,185.306 794.5,186.5C 793.702,186.043 793.369,185.376 793.5,184.5 Z"/></g>
<g><path style="opacity:1" fill="#e4ddba" d="M 1124.5,184.5 C 1126.1,184.312 1127.44,184.812 1128.5,186C 1126.78,188.724 1124.12,189.891 1120.5,189.5C 1120.5,188.5 1120.5,187.5 1120.5,186.5C 1122.38,186.771 1123.71,186.104 1124.5,184.5 Z"/></g>
<g><path style="opacity:1" fill="#e4ddba" d="M 457.5,186.5 C 459.09,186.628 460.423,187.295 461.5,188.5C 459.833,189.833 458.167,189.833 456.5,188.5C 456.863,187.817 457.196,187.15 457.5,186.5 Z"/></g>
<g><path style="opacity:1" fill="#e4ddba" d="M 1606.5,216.5 C 1607.63,218.628 1607.8,220.961 1607,223.5C 1604.01,221.431 1603.85,219.097 1606.5,216.5 Z"/></g>
<g><path style="opacity:1" fill="#e4ddba" d="M 321.5,218.5 C 323.337,218.639 323.67,219.306 322.5,220.5C 321.702,220.043 321.369,219.376 321.5,218.5 Z"/></g>
<g><path style="opacity:1" fill="#e4ddba" d="M 93.5,227.5 C 95.337,227.639 95.6704,228.306 94.5,229.5C 93.7025,229.043 93.3691,228.376 93.5,227.5 Z"/></g>
<g><path style="opacity:1" fill="#e4ddba" d="M 96.5,227.5 C 99.8984,227.18 103.232,227.513 106.5,228.5C 104.833,228.833 103.167,229.167 101.5,229.5C 99.3603,229.444 97.6936,228.777 96.5,227.5 Z"/></g>
<g><path style="opacity:1" fill="#e4ddba" d="M 131.5,227.5 C 135.226,227.177 138.893,227.511 142.5,228.5C 139.79,230.52 137.29,230.52 135,228.5C 133.244,229.985 132.077,229.652 131.5,227.5 Z"/></g>
<g><path style="opacity:1" fill="#e4ddba" d="M 278.5,228.5 C 282.351,227.191 286.351,227.191 290.5,228.5C 289.829,229.946 288.662,230.612 287,230.5C 284.083,230.018 281.249,229.351 278.5,228.5 Z"/></g>
<g><path style="opacity:1" fill="#e4ddba" d="M 316.5,227.5 C 319.898,227.18 323.232,227.513 326.5,228.5C 326.192,229.308 325.692,229.975 325,230.5C 323.887,229.289 322.72,229.289 321.5,230.5C 319.241,230.216 317.574,229.216 316.5,227.5 Z"/></g>
<g><path style="opacity:1" fill="#e4ddba" d="M 406.5,228.5 C 407.077,227.227 407.743,227.227 408.5,228.5C 408.03,229.463 407.363,229.463 406.5,228.5 Z"/></g>
<g><path style="opacity:1" fill="#e4ddba" d="M 462.5,228.5 C 466.351,227.191 470.351,227.191 474.5,228.5C 473.829,229.946 472.662,230.612 471,230.5C 468.178,229.725 465.344,229.058 462.5,228.5 Z"/></g>
<g><path style="opacity:1" fill="#e4ddba" d="M 501.5,228.5 C 504.355,227.197 507.355,227.197 510.5,228.5C 510,229.881 509,230.547 507.5,230.5C 505.675,229.349 503.675,228.682 501.5,228.5 Z"/></g>
<g><path style="opacity:1" fill="#e4ddba" d="M 646.5,227.5 C 650.555,227.176 654.555,227.509 658.5,228.5C 655.323,230.596 651.99,230.596 648.5,228.5C 647.056,229.981 646.389,229.648 646.5,227.5 Z"/></g>
<g><path style="opacity:1" fill="#e4ddba" d="M 685.5,227.5 C 689.226,227.177 692.893,227.511 696.5,228.5C 692.909,229.252 689.409,229.585 686,229.5C 685.536,228.906 685.369,228.239 685.5,227.5 Z"/></g>
<g><path style="opacity:1" fill="#e4ddba" d="M 1603.5,228.5 C 1604.6,229.601 1604.76,230.934 1604,232.5C 1602.23,231.318 1602.07,229.985 1603.5,228.5 Z"/></g>
<g><path style="opacity:1" fill="#e4ddba" d="M 87.5,232.5 C 88.4972,232.47 89.1639,232.97 89.5,234C 90.9465,237.919 90.7798,241.752 89,245.5C 87.6326,241.3 87.1326,236.967 87.5,232.5 Z"/></g>
<g><path style="opacity:1" fill="#e4ddba" d="M 414.5,235.5 C 416.042,236.301 417.708,236.634 419.5,236.5C 419.5,237.5 419.5,238.5 419.5,239.5C 416.633,239.631 414.967,238.297 414.5,235.5 Z"/></g>
<g><path style="opacity:1" fill="#e4ddba" d="M 1410.5,237.5 C 1411.57,236.566 1412.9,236.232 1414.5,236.5C 1414.03,241.329 1412.7,241.662 1410.5,237.5 Z"/></g>
<g><path style="opacity:1" fill="#e4ddba" d="M 742.5,238.5 C 745.484,238.787 746.817,240.454 746.5,243.5C 743.53,243.254 742.197,241.588 742.5,238.5 Z"/></g>
<g><path style="opacity:1" fill="#e4ddba" d="M 1421.5,238.5 C 1422.83,238.5 1424.17,238.5 1425.5,238.5C 1425.5,241.833 1423.83,243.5 1420.5,243.5C 1420.37,241.708 1420.7,240.042 1421.5,238.5 Z"/></g>
<g><path style="opacity:1" fill="#e4ddba" d="M 1604.5,242.5 C 1605.21,241.596 1606.21,241.263 1607.5,241.5C 1607.33,246.275 1606.33,246.608 1604.5,242.5 Z"/></g>
<g><path style="opacity:1" fill="#e5ddbb" d="M 1603.5,246.5 C 1604.98,246.238 1606.31,246.571 1607.5,247.5C 1606.94,249.426 1606.77,251.426 1607,253.5C 1606.02,257.126 1603.85,259.793 1600.5,261.5C 1600.71,262.086 1601.04,262.586 1601.5,263C 1600.21,263.49 1598.87,263.657 1597.5,263.5C 1597.33,259.486 1597.5,255.486 1598,251.5C 1600.19,250.167 1602.02,248.5 1603.5,246.5 Z"/></g>
<g><path style="opacity:1" fill="#e4ddba" d="M 1300.5,249.5 C 1302,249.415 1303,250.081 1303.5,251.5C 1301.6,252.639 1300.6,251.973 1300.5,249.5 Z"/></g>
<g><path style="opacity:1" fill="#e4ddba" d="M 805.5,270.5 C 806.748,271.334 807.415,272.667 807.5,274.5C 807.631,279.493 806.631,279.66 804.5,275C 804.989,273.436 805.322,271.936 805.5,270.5 Z"/></g>
<g><path style="opacity:1" fill="#e4ddba" d="M 485.5,275.5 C 486.376,275.369 487.043,275.702 487.5,276.5C 485.192,277.873 484.525,277.54 485.5,275.5 Z"/></g>
<g><path style="opacity:1" fill="#e4ddba" d="M 491.5,276.5 C 492.773,277.077 492.773,277.743 491.5,278.5C 490.537,278.03 490.537,277.363 491.5,276.5 Z"/></g>
<g><path style="opacity:1" fill="#e4ddba" d="M 1606.5,276.5 C 1607.62,278.288 1607.79,280.288 1607,282.5C 1605.31,280.68 1605.14,278.68 1606.5,276.5 Z"/></g>
<g><path style="opacity:1" fill="#e4ddba" d="M 87.5,281.5 C 90.6465,282.755 90.9799,284.421 88.5,286.5C 87.5481,284.955 87.2148,283.288 87.5,281.5 Z"/></g>
<g><path style="opacity:1" fill="#e4dcbb" d="M 692.5,282.5 C 695.95,284.971 699.95,286.137 704.5,286C 702.9,287.815 700.9,288.982 698.5,289.5C 697.269,290.651 697.269,291.817 698.5,293C 698,293.5 697.5,294 697,294.5C 695.713,291.572 693.713,289.238 691,287.5C 690.387,285.505 690.887,283.838 692.5,282.5 Z"/></g>
<g><path style="opacity:1" fill="#e4ddba" d="M 1605.5,290.5 C 1606.78,291.708 1606.78,293.042 1605.5,294.5C 1604.71,293.3 1604.71,291.967 1605.5,290.5 Z"/></g>
<g><path style="opacity:1" fill="#e4ddba" d="M 686.5,294.5 C 688.701,294.858 690.035,296.192 690.5,298.5C 686.477,299.794 685.144,298.461 686.5,294.5 Z"/></g>
<g><path style="opacity:1" fill="#e4ddba" d="M 1084.5,296.5 C 1085.83,296.5 1087.17,296.5 1088.5,296.5C 1087.76,301.503 1086.43,301.503 1084.5,296.5 Z"/></g>
<g><path style="opacity:1" fill="#e4ddba" d="M 1416.5,296.5 C 1417.83,296.5 1419.17,296.5 1420.5,296.5C 1419.76,301.503 1418.43,301.503 1416.5,296.5 Z"/></g>
<g><path style="opacity:1" fill="#e4ddba" d="M 311.5,302.5 C 312.364,303.688 313.364,304.855 314.5,306C 313.929,308.611 313.096,311.111 312,313.5C 311.501,309.848 311.335,306.182 311.5,302.5 Z"/></g>
<g><path style="opacity:1" fill="#e4ddba" d="M 561.5,308.5 C 562.776,309.386 562.776,310.386 561.5,311.5C 560.438,310.575 560.438,309.575 561.5,308.5 Z"/></g>
<g><path style="opacity:1" fill="#e4ddba" d="M 781.5,308.5 C 784.001,308.511 784.168,309.178 782,310.5C 781.536,309.906 781.369,309.239 781.5,308.5 Z"/></g>
<g><path style="opacity:1" fill="#e4ddba" d="M 893.5,308.5 C 894.776,309.386 894.776,310.386 893.5,311.5C 892.438,310.575 892.438,309.575 893.5,308.5 Z"/></g>
<g><path style="opacity:1" fill="#e4ddba" d="M 1566.5,308.5 C 1568.34,308.639 1568.67,309.306 1567.5,310.5C 1566.7,310.043 1566.37,309.376 1566.5,308.5 Z"/></g>
<g><path style="opacity:1" fill="#e4ddba" d="M 1219.5,310.5 C 1221.76,311.238 1221.93,312.238 1220,313.5C 1219.52,312.552 1219.35,311.552 1219.5,310.5 Z"/></g>
<g><path style="opacity:1" fill="#e4ddba" d="M 87.5,322.5 C 89.7213,324.33 89.8879,326.33 88,328.5C 87.5045,326.527 87.3379,324.527 87.5,322.5 Z"/></g>
<g><path style="opacity:1" fill="#e4ddba" d="M 428.5,332.5 C 430.465,332.948 430.798,333.948 429.5,335.5C 428.614,334.675 428.281,333.675 428.5,332.5 Z"/></g>
<g><path style="opacity:1" fill="#e4ddba" d="M 802.5,332.5 C 803.496,332.414 804.329,332.748 805,333.5C 805.79,336.634 805.457,339.634 804,342.5C 800.58,339.421 800.08,336.088 802.5,332.5 Z"/></g>
<g><path style="opacity:1" fill="#e4ddba" d="M 1236.5,332.5 C 1237.68,332.281 1238.68,332.614 1239.5,333.5C 1237.95,334.798 1236.95,334.465 1236.5,332.5 Z"/></g>
<g><path style="opacity:1" fill="#e4ddba" d="M 617.5,334.5 C 619.167,334.5 620.833,334.5 622.5,334.5C 622.5,336.167 622.5,337.833 622.5,339.5C 621.127,339.657 619.793,339.49 618.5,339C 619.602,336.609 618.936,336.109 616.5,337.5C 616.167,337.167 615.833,336.833 615.5,336.5C 616.243,335.818 616.909,335.151 617.5,334.5 Z"/></g>
<g><path style="opacity:1" fill="#e4ddba" d="M 247.5,335.5 C 249.833,335.5 252.167,335.5 254.5,335.5C 254.592,339.071 252.926,340.238 249.5,339C 248.177,338.184 247.511,337.017 247.5,335.5 Z"/></g>
<g><path style="opacity:1" fill="#e4ddba" d="M 431.5,335.5 C 433.01,336.728 434.51,336.728 436,335.5C 439.462,337.715 439.128,339.048 435,339.5C 432.673,339.178 431.506,337.844 431.5,335.5 Z"/></g>
<g><path style="opacity:1" fill="#e4ddba" d="M 1604.5,347.5 C 1605.5,347.5 1606.5,347.5 1607.5,347.5C 1606.75,351.31 1605.75,351.31 1604.5,347.5 Z"/></g>
<g><path style="opacity:1" fill="#e4ddba" d="M 1506.5,352.5 C 1507.08,351.227 1507.74,351.227 1508.5,352.5C 1508.03,353.463 1507.36,353.463 1506.5,352.5 Z"/></g>
<g><path style="opacity:1" fill="#e4ddba" d="M 98.5,360.5 C 99.675,360.281 100.675,360.614 101.5,361.5C 100.277,362.614 98.9437,362.781 97.5,362C 98.056,361.617 98.3893,361.117 98.5,360.5 Z"/></g>
<g><path style="opacity:1" fill="#e4ddba" d="M 315.5,365.5 C 318.001,365.511 318.168,366.178 316,367.5C 315.536,366.906 315.369,366.239 315.5,365.5 Z"/></g>
<g><path style="opacity:1" fill="#e4ddba" d="M 907.5,366.5 C 909.337,366.639 909.67,367.306 908.5,368.5C 907.702,368.043 907.369,367.376 907.5,366.5 Z"/></g>
<g><path style="opacity:1" fill="#e4ddba" d="M 597.5,372.5 C 598.413,374.933 599.413,377.433 600.5,380C 600,380.5 599.5,381 599,381.5C 596.593,378.732 596.093,375.732 597.5,372.5 Z"/></g>
<g><path style="opacity:1" fill="#e4ddba" d="M 228.5,373.5 C 229.675,373.281 230.675,373.614 231.5,374.5C 230.985,376.225 230.318,377.892 229.5,379.5C 228.692,379.192 228.025,378.692 227.5,378C 227.47,376.571 227.803,375.071 228.5,373.5 Z"/></g>
<g><path style="opacity:1" fill="#e4ddba" d="M 785.5,374.5 C 786.79,376.14 788.457,376.64 790.5,376C 789.304,375.346 789.304,374.846 790.5,374.5C 792.401,375.935 792.734,377.602 791.5,379.5C 792.025,380.192 792.692,380.692 793.5,381C 791.75,382.319 789.75,382.819 787.5,382.5C 787.5,381.167 787.5,379.833 787.5,378.5C 785.876,378.36 784.71,379.027 784,380.5C 781.952,378.494 782.452,377.494 785.5,377.5C 785.5,376.5 785.5,375.5 785.5,374.5 Z"/></g>
<g><path style="opacity:1" fill="#e4ddba" d="M 236.5,375.5 C 238.216,376.574 239.216,378.241 239.5,380.5C 237.838,381.327 236.505,382.493 235.5,384C 233.054,383.791 230.721,382.958 228.5,381.5C 230.473,380.669 232.473,380.502 234.5,381C 235.849,379.462 236.516,377.629 236.5,375.5 Z"/></g>
<g><path style="opacity:1" fill="#e4ddba" d="M 419.5,376.5 C 420.5,376.5 421.5,376.5 422.5,376.5C 423.052,378.331 423.052,379.997 422.5,381.5C 421.305,379.879 420.305,378.213 419.5,376.5 Z"/></g>
<g><path style="opacity:1" fill="#e4ddba" d="M 603.5,376.5 C 605.973,376.736 607.64,378.069 608.5,380.5C 606.833,383.167 605.167,383.167 603.5,380.5C 604.363,379.274 604.363,377.94 603.5,376.5 Z"/></g>
<g><path style="opacity:1" fill="#e4ddba" d="M 805.5,378.5 C 806.649,378.791 807.316,379.624 807.5,381C 806.922,383.929 805.256,385.262 802.5,385C 803.406,382.779 804.406,380.612 805.5,378.5 Z"/></g>
<g><path style="opacity:1" fill="#e4ddba" d="M 1605.5,378.5 C 1606.8,380.223 1607.47,382.39 1607.5,385C 1607.17,387.167 1606.83,389.333 1606.5,391.5C 1604.68,387.232 1604.34,382.899 1605.5,378.5 Z"/></g>
<g><path style="opacity:1" fill="#e4ddba" d="M 800.5,383.5 C 801.043,383.56 801.376,383.893 801.5,384.5C 800.635,385.583 799.635,385.749 798.5,385C 799.416,384.722 800.082,384.222 800.5,383.5 Z"/></g>
<g><path style="opacity:1" fill="#e4ddba" d="M 518.5,392.5 C 520.337,392.639 520.67,393.306 519.5,394.5C 518.702,394.043 518.369,393.376 518.5,392.5 Z"/></g>
<g><path style="opacity:1" fill="#e4ddba" d="M 703.5,392.5 C 704.773,393.077 704.773,393.743 703.5,394.5C 702.537,394.03 702.537,393.363 703.5,392.5 Z"/></g>
<g><path style="opacity:1" fill="#e4dcbb" d="M 404.5,394.5 C 406.81,396.145 406.977,398.145 405,400.5C 404.667,400.167 404.333,399.833 404,399.5C 399.873,405.021 398.373,404.354 399.5,397.5C 401.733,398.016 403.4,397.016 404.5,394.5 Z"/></g>
<g><path style="opacity:1" fill="#e4ddba" d="M 220.5,395.5 C 222.934,396.354 222.767,397.354 220,398.5C 219.53,397.423 219.697,396.423 220.5,395.5 Z"/></g>
<g><path style="opacity:1" fill="#e4ddba" d="M 588.5,395.5 C 592.3,395.819 592.466,396.819 589,398.5C 588.517,397.552 588.351,396.552 588.5,395.5 Z"/></g>
<g><path style="opacity:1" fill="#e4ddba" d="M 87.5,396.5 C 89.9238,398.228 90.0904,400.228 88,402.5C 88.3466,400.39 88.1799,398.39 87.5,396.5 Z"/></g>
<g><path style="opacity:1" fill="#e4ddba" d="M 581.5,397.5 C 584.838,397.849 585.838,399.516 584.5,402.5C 582.738,401.312 581.738,399.645 581.5,397.5 Z"/></g>
<g><path style="opacity:1" fill="#e4ddba" d="M 214.5,398.5 C 216.377,399.659 216.877,401.326 216,403.5C 214.731,402.095 214.231,400.429 214.5,398.5 Z"/></g>
<g><path style="opacity:1" fill="#e4ddba" d="M 389.5,398.5 C 392.372,398.635 393.872,399.969 394,402.5C 392.509,400.996 390.676,400.163 388.5,400C 389.056,399.617 389.389,399.117 389.5,398.5 Z"/></g>
<g><path style="opacity:1" fill="#e4ddba" d="M 766.5,398.5 C 769.361,399.237 770.361,400.904 769.5,403.5C 768.048,402.06 767.048,400.394 766.5,398.5 Z"/></g>
<g><path style="opacity:1" fill="#e4ddba" d="M 1395.5,398.5 C 1396.74,399.743 1396.4,400.743 1394.5,401.5C 1394.17,401.167 1393.83,400.833 1393.5,400.5C 1394.24,399.818 1394.91,399.151 1395.5,398.5 Z"/></g>
<g><path style="opacity:1" fill="#e4ddba" d="M 489.5,402.5 C 491.973,402.947 492.14,403.947 490,405.5C 489.517,404.552 489.351,403.552 489.5,402.5 Z"/></g>
<g><path style="opacity:1" fill="#e4ddba" d="M 1432.5,404.5 C 1434.62,405.368 1434.79,406.368 1433,407.5C 1431.32,406.824 1431.15,405.824 1432.5,404.5 Z"/></g>
<g><path style="opacity:1" fill="#e4ddba" d="M 823.5,409.5 C 824.376,409.369 825.043,409.702 825.5,410.5C 824.902,411.795 824.402,413.128 824,414.5C 823.667,413.833 823.333,413.167 823,412.5C 821.137,417.632 820.137,417.632 820,412.5C 821.145,411.364 822.312,410.364 823.5,409.5 Z"/></g>
<g><path style="opacity:1" fill="#e4ddba" d="M 503.5,410.5 C 506.797,410.329 507.131,410.995 504.5,412.5C 503.702,412.043 503.369,411.376 503.5,410.5 Z"/></g>
<g><path style="opacity:1" fill="#e4ddba" d="M 314.5,414.5 C 316.476,415.427 316.809,416.76 315.5,418.5C 310.864,417.512 310.53,416.179 314.5,414.5 Z"/></g>
<g><path style="opacity:1" fill="#e4ddba" d="M 87.5,418.5 C 91.9871,421.112 92.3204,424.112 88.5,427.5C 87.5159,424.572 87.1826,421.572 87.5,418.5 Z"/></g>
<g><path style="opacity:1" fill="#e4ddba" d="M 1603.5,438.5 C 1606,438.511 1606.17,439.178 1604,440.5C 1603.54,439.906 1603.37,439.239 1603.5,438.5 Z"/></g>
<g><path style="opacity:1" fill="#e4ddba" d="M 1261.5,440.5 C 1262.6,441.601 1262.76,442.934 1262,444.5C 1260.23,443.318 1260.07,441.985 1261.5,440.5 Z"/></g>
<g><path style="opacity:1" fill="#e4ddba" d="M 1605.5,440.5 C 1607.37,442.635 1608.04,445.302 1607.5,448.5C 1605.5,448.5 1603.5,448.5 1601.5,448.5C 1601.42,446.071 1600.42,444.071 1598.5,442.5C 1600.97,441.832 1603.3,441.165 1605.5,440.5 Z"/></g>
<g><path style="opacity:1" fill="#e4ddba" d="M 1174.5,442.5 C 1176.34,442.639 1176.67,443.306 1175.5,444.5C 1174.7,444.043 1174.37,443.376 1174.5,442.5 Z"/></g>
<g><path style="opacity:1" fill="#e4ddba" d="M 1596.5,446.5 C 1597.68,446.281 1598.68,446.614 1599.5,447.5C 1598.17,448.5 1598.17,449.5 1599.5,450.5C 1598.31,451.429 1596.98,451.762 1595.5,451.5C 1595.37,449.708 1595.7,448.042 1596.5,446.5 Z"/></g>
<g><path style="opacity:1" fill="#e4ddba" d="M 1587.5,448.5 C 1590.34,448.528 1591.51,449.862 1591,452.5C 1589.39,451.853 1587.89,451.02 1586.5,450C 1587.06,449.617 1587.39,449.117 1587.5,448.5 Z"/></g>
<g><path style="opacity:1" fill="#e4ddba" d="M 805.5,454.5 C 806.748,455.334 807.415,456.667 807.5,458.5C 806.957,463.396 805.624,463.396 803.5,458.5C 803.752,456.927 804.418,455.594 805.5,454.5 Z"/></g>
<g><path style="opacity:1" fill="#e4ddba" d="M 571.5,457.5 C 573.085,458.002 573.585,459.002 573,460.5C 571.961,459.756 571.461,458.756 571.5,457.5 Z"/></g>
<g><path style="opacity:1" fill="#e4ddba" d="M 87.5,465.5 C 89.0257,466.105 90.0257,467.271 90.5,469C 89.9747,469.692 89.3081,470.192 88.5,470.5C 87.5481,468.955 87.2148,467.288 87.5,465.5 Z"/></g>
<g><path style="opacity:1" fill="#e4ddba" d="M 262.5,471.5 C 263.995,471.415 264.995,472.081 265.5,473.5C 263.604,474.639 262.604,473.973 262.5,471.5 Z"/></g>
<g><path style="opacity:1" fill="#e4ddba" d="M 533.5,472.5 C 535.035,475.33 534.035,476.663 530.5,476.5C 530.5,475.5 530.5,474.5 530.5,473.5C 531.791,473.737 532.791,473.404 533.5,472.5 Z"/></g>
<g><path style="opacity:1" fill="#e4ddba" d="M 631.5,472.5 C 634.797,472.329 635.131,472.995 632.5,474.5C 631.702,474.043 631.369,473.376 631.5,472.5 Z"/></g>
<g><path style="opacity:1" fill="#e4ddba" d="M 569.5,474.5 C 570.773,475.077 570.773,475.743 569.5,476.5C 568.537,476.03 568.537,475.363 569.5,474.5 Z"/></g>
<g><path style="opacity:1" fill="#e4ddba" d="M 1177.5,476.5 C 1179.76,476.441 1180.1,477.274 1178.5,479C 1178.82,481.797 1179.82,484.297 1181.5,486.5C 1180.68,488.111 1179.35,488.778 1177.5,488.5C 1177.5,484.5 1177.5,480.5 1177.5,476.5 Z"/></g>
<g><path style="opacity:1" fill="#e4ddba" d="M 1509.5,484.5 C 1512.18,484.525 1513.51,485.858 1513.5,488.5C 1511.83,488.5 1510.17,488.5 1508.5,488.5C 1508.43,487.041 1508.77,485.708 1509.5,484.5 Z"/></g>
<g><path style="opacity:1" fill="#e4ddba" d="M 513.5,486.5 C 514.376,486.369 515.043,486.702 515.5,487.5C 514.675,488.386 513.675,488.719 512.5,488.5C 512.67,489.822 512.337,490.989 511.5,492C 507.179,492.499 502.846,492.666 498.5,492.5C 499.093,495.596 498.093,497.929 495.5,499.5C 498.133,500.884 498.133,502.218 495.5,503.5C 494.618,502.24 493.618,501.074 492.5,500C 495.904,498.137 496.071,496.303 493,494.5C 492.503,492.19 492.337,489.857 492.5,487.5C 496.219,486.772 499.219,487.772 501.5,490.5C 503.987,487.536 506.987,486.869 510.5,488.5C 511.739,488.058 512.739,487.391 513.5,486.5 Z"/></g>
<g><path style="opacity:1" fill="#e4ddba" d="M 844.5,486.5 C 846.308,486.491 847.975,486.991 849.5,488C 850.833,488.667 850.833,489.333 849.5,490C 848.17,489.923 846.836,489.423 845.5,488.5C 839.654,491.313 833.654,493.646 827.5,495.5C 823.264,494.452 821.931,491.952 823.5,488C 826.167,487.333 828.833,487.333 831.5,488C 832.126,488.75 832.626,489.584 833,490.5C 835.12,488.179 837.62,487.512 840.5,488.5C 842.026,488.006 843.359,487.339 844.5,486.5 Z"/></g>
<g><path style="opacity:1" fill="#e4ddba" d="M 1155.5,486.5 C 1158.32,486.539 1160.99,487.205 1163.5,488.5C 1164.25,489.736 1164.58,491.07 1164.5,492.5C 1163.5,492.5 1162.5,492.5 1161.5,492.5C 1161.84,495.144 1161.17,497.477 1159.5,499.5C 1160.85,500.524 1161.52,501.857 1161.5,503.5C 1157.02,502.714 1156.02,500.547 1158.5,497C 1154.77,494.223 1153.77,490.723 1155.5,486.5 Z"/></g>
<g><path style="opacity:1" fill="#e4ddba" d="M 1488.5,486.5 C 1491.82,486.708 1494.49,488.041 1496.5,490.5C 1495.18,491.935 1493.51,492.935 1491.5,493.5C 1492.03,494.192 1492.69,494.692 1493.5,495C 1491.87,495.494 1490.2,495.66 1488.5,495.5C 1488.5,492.5 1488.5,489.5 1488.5,486.5 Z"/></g>
<g><path style="opacity:1" fill="#e4ddba" d="M 1169.5,487.5 C 1171.48,487.995 1173.48,488.495 1175.5,489C 1174.36,489.741 1174.36,490.575 1175.5,491.5C 1172.23,492.487 1168.9,492.82 1165.5,492.5C 1165.5,491.167 1165.5,489.833 1165.5,488.5C 1167.1,488.768 1168.43,488.434 1169.5,487.5 Z"/></g>
<g><path style="opacity:1" fill="#e4ddba" d="M 1498.5,487.5 C 1501.27,487.421 1503.94,487.921 1506.5,489C 1504.09,491.638 1501.09,492.805 1497.5,492.5C 1497.37,490.708 1497.7,489.042 1498.5,487.5 Z"/></g>
<g><path style="opacity:1" fill="#e4ddba" d="M 419.5,489.5 C 422.674,489.952 423.007,490.952 420.5,492.5C 418.481,491.867 418.147,490.867 419.5,489.5 Z"/></g>
<g><path style="opacity:1" fill="#e4ddba" d="M 603.5,489.5 C 608.729,490.751 608.729,491.585 603.5,492C 602.402,491.23 602.402,490.397 603.5,489.5 Z"/></g>
<g><path style="opacity:1" fill="#e4ddba" d="M 787.5,490.5 C 790.797,490.329 791.131,490.995 788.5,492.5C 787.702,492.043 787.369,491.376 787.5,490.5 Z"/></g>
<g><path style="opacity:1" fill="#e4ddba" d="M 781.5,492.5 C 783.975,492.747 783.975,493.413 781.5,494.5C 780.537,494.03 780.537,493.363 781.5,492.5 Z"/></g>
<g><path style="opacity:1" fill="#e4ddba" d="M 841.5,492.5 C 844.134,493.658 843.967,494.658 841,495.5C 840.53,494.423 840.697,493.423 841.5,492.5 Z"/></g>
<g><path style="opacity:1" fill="#e4ddba" d="M 501.5,496.5 C 503.337,496.639 503.67,497.306 502.5,498.5C 501.702,498.043 501.369,497.376 501.5,496.5 Z"/></g>
<g><path style="opacity:1" fill="#e4ddba" d="M 1078.5,499.5 C 1079.08,498.227 1079.74,498.227 1080.5,499.5C 1080.03,500.463 1079.36,500.463 1078.5,499.5 Z"/></g>
<g><path style="opacity:1" fill="#e4ddba" d="M 500.5,500.5 C 504.048,500.095 507.381,500.595 510.5,502C 507.147,503.119 503.814,503.619 500.5,503.5C 500.5,502.5 500.5,501.5 500.5,500.5 Z"/></g>
<g><path style="opacity:1" fill="#e4ddba" d="M 1164.5,500.5 C 1177.7,501.365 1177.7,502.365 1164.5,503.5C 1164.5,502.5 1164.5,501.5 1164.5,500.5 Z"/></g>
<g><path style="opacity:1" fill="#e4ddba" d="M 1604.5,501.5 C 1605.5,501.414 1606.33,501.748 1607,502.5C 1607.5,506.152 1607.67,509.818 1607.5,513.5C 1606.07,513.421 1604.74,513.754 1603.5,514.5C 1603.17,514 1602.83,513.5 1602.5,513C 1604.18,509.362 1604.85,505.529 1604.5,501.5 Z"/></g>
<g><path style="opacity:1" fill="#e4ddba" d="M 87.5,506.5 C 89.1053,508.308 89.4387,510.308 88.5,512.5C 87.5344,510.604 87.2011,508.604 87.5,506.5 Z"/></g>
<g><path style="opacity:1" fill="#e4ddba" d="M 736.5,516.5 C 737.386,515.224 738.386,515.224 739.5,516.5C 738.575,517.562 737.575,517.562 736.5,516.5 Z"/></g>
<g><path style="opacity:1" fill="#e4ddba" d="M 1124.5,515.5 C 1126.98,516.964 1126.98,518.631 1124.5,520.5C 1123.31,521.429 1121.98,521.762 1120.5,521.5C 1120.5,520.5 1120.5,519.5 1120.5,518.5C 1122.97,518.912 1124.31,517.912 1124.5,515.5 Z"/></g>
<g><path style="opacity:1" fill="#e4ddba" d="M 792.5,516.5 C 793.376,516.369 794.043,516.702 794.5,517.5C 793.833,520.833 791.833,522.167 788.5,521.5C 788.5,520.5 788.5,519.5 788.5,518.5C 790.38,518.771 791.713,518.104 792.5,516.5 Z"/></g>
<g><path style="opacity:1" fill="#e4ddba" d="M 1456.5,516.5 C 1458.03,516.517 1458.53,517.184 1458,518.5C 1456.74,520.607 1454.9,521.607 1452.5,521.5C 1452.5,520.5 1452.5,519.5 1452.5,518.5C 1454.38,518.771 1455.71,518.104 1456.5,516.5 Z"/></g>
<g><path style="opacity:1" fill="#e4ddba" d="M 803.5,517.5 C 805.12,518.841 806.12,520.674 806.5,523C 804.283,526.467 802.449,526.301 801,522.5C 800.51,521.207 800.343,519.873 800.5,518.5C 801.791,518.737 802.791,518.404 803.5,517.5 Z"/></g>
<g><path style="opacity:1" fill="#e4ddba" d="M 456.5,518.5 C 458.288,518.215 459.955,518.548 461.5,519.5C 460.332,521.217 458.665,521.884 456.5,521.5C 456.5,520.5 456.5,519.5 456.5,518.5 Z"/></g>
<g><path style="opacity:1" fill="#e4ddba" d="M 619.5,518.5 C 620.5,518.5 621.5,518.5 622.5,518.5C 622.5,520.167 622.5,521.833 622.5,523.5C 621.127,523.657 619.793,523.49 618.5,523C 619.552,521.284 618.886,520.284 616.5,520C 617.737,519.768 618.737,519.268 619.5,518.5 Z"/></g>
<g><path style="opacity:1" fill="#e4ddba" d="M 87.5,534.5 C 90.0009,534.511 90.1676,535.178 88,536.5C 87.5357,535.906 87.369,535.239 87.5,534.5 Z"/></g>
<g><path style="opacity:1" fill="#e4ddba" d="M 141.5,539.5 C 142.077,538.227 142.743,538.227 143.5,539.5C 143.03,540.463 142.363,540.463 141.5,539.5 Z"/></g>
<g><path style="opacity:1" fill="#e4ddba" d="M 326.5,538.5 C 327.289,538.783 327.956,539.283 328.5,540C 327.184,540.528 326.517,540.028 326.5,538.5 Z"/></g>
<g><path style="opacity:1" fill="#e4ddba" d="M 661.5,541.5 C 662.598,542.601 662.765,543.934 662,545.5C 660.489,544.436 660.323,543.103 661.5,541.5 Z"/></g>
<g><path style="opacity:1" fill="#e4ddba" d="M 316.5,542.5 C 317.776,543.386 317.776,544.386 316.5,545.5C 315.232,546.428 313.899,546.595 312.5,546C 314.324,545.34 315.657,544.173 316.5,542.5 Z"/></g>
<g><path style="opacity:1" fill="#e4ddba" d="M 1605.5,547.5 C 1606.76,548.514 1607.43,550.014 1607.5,552C 1607.33,553.5 1607.17,555 1607,556.5C 1606.22,554.714 1605.05,553.214 1603.5,552C 1604.58,550.67 1605.25,549.17 1605.5,547.5 Z"/></g>
<g><path style="opacity:1" fill="#e4ddba" d="M 321.5,549.5 C 324.674,549.952 325.007,550.952 322.5,552.5C 321.614,551.675 321.281,550.675 321.5,549.5 Z"/></g>
<g><path style="opacity:1" fill="#e4ddba" d="M 684.5,549.5 C 686.657,550.053 686.49,551.053 684,552.5C 683.53,551.423 683.697,550.423 684.5,549.5 Z"/></g>
<g><path style="opacity:1" fill="#e4ddba" d="M 228.5,557.5 C 231.487,557.422 232.153,558.589 230.5,561C 231.029,562.559 231.696,564.059 232.5,565.5C 231.311,566.429 229.978,566.762 228.5,566.5C 228.703,564.61 228.037,563.11 226.5,562C 227.167,561.667 227.833,561.333 228.5,561C 227.316,559.855 227.316,558.688 228.5,557.5 Z"/></g>
<g><path style="opacity:1" fill="#e4ddba" d="M 596.5,557.5 C 597.5,557.5 598.5,557.5 599.5,557.5C 598.386,560.994 599.386,563.994 602.5,566.5C 602.192,567.308 601.692,567.975 601,568.5C 599.666,565.411 597.499,563.078 594.5,561.5C 595.853,560.476 596.52,559.143 596.5,557.5 Z"/></g>
<g><path style="opacity:1" fill="#e4ddba" d="M 788.5,559.5 C 789.209,558.596 790.209,558.263 791.5,558.5C 791.33,559.822 791.663,560.989 792.5,562C 788.622,562.949 788.622,564.115 792.5,565.5C 790.926,566.631 789.259,566.798 787.5,566C 788.299,564.251 787.632,562.918 785.5,562C 787.167,561.667 788.833,561.333 790.5,561C 789.956,560.283 789.289,559.783 788.5,559.5 Z"/></g>
<g><path style="opacity:1" fill="#e4ddba" d="M 419.5,559.5 C 420.5,559.5 421.5,559.5 422.5,559.5C 422.178,561.722 422.845,563.556 424.5,565C 423.584,565.374 422.75,565.874 422,566.5C 419.662,564.453 418.829,562.119 419.5,559.5 Z"/></g>
<g><path style="opacity:1" fill="#e4ddba" d="M 236.5,560.5 C 238.185,561.184 239.185,562.517 239.5,564.5C 238.081,566.915 236.415,567.081 234.5,565C 235.833,564 235.833,563 234.5,562C 235.416,561.722 236.082,561.222 236.5,560.5 Z"/></g>
<g><path style="opacity:1" fill="#e4ddba" d="M 339.5,560.5 C 341.279,561.67 342.279,563.336 342.5,565.5C 340.876,565.36 339.71,566.027 339,567.5C 338.5,566.333 337.667,565.5 336.5,565C 337.883,563.729 338.883,562.229 339.5,560.5 Z"/></g>
<g><path style="opacity:1" fill="#e4ddba" d="M 605.5,560.5 C 607.648,560.389 607.981,561.056 606.5,562.5C 606.977,563.478 607.643,564.311 608.5,565C 607.128,565.402 605.795,565.902 604.5,566.5C 604.277,565.033 603.944,563.533 603.5,562C 604.416,561.722 605.082,561.222 605.5,560.5 Z"/></g>
<g><path style="opacity:1" fill="#e4ddba" d="M 1603.5,560.5 C 1603.86,563.719 1605.19,566.553 1607.5,569C 1604.77,568.654 1602.44,567.321 1600.5,565C 1601.83,564 1601.83,563 1600.5,562C 1601.74,561.768 1602.74,561.268 1603.5,560.5 Z"/></g>
<g><path style="opacity:1" fill="#e4ddba" d="M 1605.5,561.5 C 1607.34,561.639 1607.67,562.306 1606.5,563.5C 1605.7,563.043 1605.37,562.376 1605.5,561.5 Z"/></g>
<g><path style="opacity:1" fill="#e4ddba" d="M 805.5,562.5 C 808.53,566.203 807.53,568.869 802.5,570.5C 798.645,568.993 798.979,568.326 803.5,568.5C 804.167,566.5 804.833,564.5 805.5,562.5 Z"/></g>
<g><path style="opacity:1" fill="#e4ddba" d="M 413.5,568.5 C 415.259,568.046 417.259,568.046 419.5,568.5C 419.5,569.5 419.5,570.5 419.5,571.5C 417.284,570.956 415.284,569.956 413.5,568.5 Z"/></g>
<g><path style="opacity:1" fill="#e4ddba" d="M 427.5,568.5 C 431.845,572.158 431.178,574.491 425.5,575.5C 425.394,572.921 426.061,570.588 427.5,568.5 Z"/></g>
<g><path style="opacity:1" fill="#e4ddba" d="M 746.5,569.5 C 747.919,568.549 749.585,568.216 751.5,568.5C 751.5,569.5 751.5,570.5 751.5,571.5C 749.446,571.635 747.779,570.968 746.5,569.5 Z"/></g>
<g><path style="opacity:1" fill="#e4ddba" d="M 410.5,569.5 C 412.269,570.421 413.935,571.588 415.5,573C 414.333,576.167 412.833,576.333 411,573.5C 410.51,572.207 410.343,570.873 410.5,569.5 Z"/></g>
<g><path style="opacity:1" fill="#e4ddba" d="M 1405.5,569.5 C 1409.35,570.712 1409.85,572.379 1407,574.5C 1405.73,573.095 1405.23,571.429 1405.5,569.5 Z"/></g>
<g><path style="opacity:1" fill="#e4ddba" d="M 1421.5,570.5 C 1422.83,570.5 1424.17,570.5 1425.5,570.5C 1425.5,573.833 1423.83,575.5 1420.5,575.5C 1420.37,573.708 1420.7,572.042 1421.5,570.5 Z"/></g>
<g><path style="opacity:1" fill="#e4ddba" d="M 1604.5,571.5 C 1605.5,571.414 1606.33,571.748 1607,572.5C 1607.67,574.167 1607.67,575.833 1607,577.5C 1604.96,576.022 1604.13,574.022 1604.5,571.5 Z"/></g>
<g><path style="opacity:1" fill="#e4ddba" d="M 653.5,572.5 C 655.337,572.639 655.67,573.306 654.5,574.5C 653.702,574.043 653.369,573.376 653.5,572.5 Z"/></g>
<g><path style="opacity:1" fill="#e4ddba" d="M 1600.5,576.5 C 1603.16,576.659 1605.49,577.659 1607.5,579.5C 1606.3,580.967 1606.3,582.467 1607.5,584C 1605.51,588.135 1603.68,592.301 1602,596.5C 1600.75,595.427 1599.42,595.427 1598,596.5C 1597.5,596.333 1597,596.167 1596.5,596C 1596.88,589.29 1598.21,582.79 1600.5,576.5 Z"/></g>
<g><path style="opacity:1" fill="#e4ddba" d="M 515.5,578.5 C 517.035,577.212 518.701,577.212 520.5,578.5C 518.997,579.052 517.331,579.052 515.5,578.5 Z"/></g>
<g><path style="opacity:1" fill="#e4ddba" d="M 87.5,578.5 C 89.8289,580.996 89.9956,583.663 88,586.5C 87.5026,583.854 87.3359,581.187 87.5,578.5 Z"/></g>
<g><path style="opacity:1" fill="#e4ddba" d="M 219.5,580.5 C 222.797,580.329 223.131,580.995 220.5,582.5C 219.702,582.043 219.369,581.376 219.5,580.5 Z"/></g>
<g><path style="opacity:1" fill="#e4ddba" d="M 588.5,580.5 C 591.001,580.511 591.168,581.178 589,582.5C 588.536,581.906 588.369,581.239 588.5,580.5 Z"/></g>
<g><path style="opacity:1" fill="#e4ddba" d="M 212.5,582.5 C 213.386,581.224 214.386,581.224 215.5,582.5C 217.412,584.542 217.579,586.542 216,588.5C 215.284,586.121 214.117,584.121 212.5,582.5 Z"/></g>
<g><path style="opacity:1" fill="#e4ddba" d="M 398.5,581.5 C 400.821,583.09 401.821,585.423 401.5,588.5C 400.5,588.5 399.5,588.5 398.5,588.5C 398.5,586.167 398.5,583.833 398.5,581.5 Z"/></g>
<g><path style="opacity:1" fill="#e4ddba" d="M 581.5,581.5 C 584.109,581.83 585.776,583.33 586.5,586C 585.874,586.75 585.374,587.584 585,588.5C 583.295,586.423 582.128,584.09 581.5,581.5 Z"/></g>
<g><path style="opacity:1" fill="#e4ddba" d="M 765.5,581.5 C 768.109,581.83 769.776,583.33 770.5,586C 767.279,586.477 765.612,584.977 765.5,581.5 Z"/></g>
<g><path style="opacity:1" fill="#e4ddba" d="M 172.5,582.5 C 174.337,582.639 174.67,583.306 173.5,584.5C 172.702,584.043 172.369,583.376 172.5,582.5 Z"/></g>
<g><path style="opacity:1" fill="#e4ddba" d="M 489.5,586.5 C 491.97,587.36 492.137,588.694 490,590.5C 489.51,589.207 489.343,587.873 489.5,586.5 Z"/></g>
<g><path style="opacity:1" fill="#e4ddba" d="M 87.5,601.5 C 89.6109,602.77 90.6109,604.77 90.5,607.5C 90.6578,609.319 89.9911,610.652 88.5,611.5C 87.513,608.232 87.1796,604.898 87.5,601.5 Z"/></g>
<g><path style="opacity:1" fill="#e4ddba" d="M 485.5,607.5 C 487.337,607.639 487.67,608.306 486.5,609.5C 485.702,609.043 485.369,608.376 485.5,607.5 Z"/></g>
<g><path style="opacity:1" fill="#e4ddba" d="M 1606.5,608.5 C 1607.62,610.288 1607.79,612.288 1607,614.5C 1605.2,612.635 1605.03,610.635 1606.5,608.5 Z"/></g>
<g><path style="opacity:1" fill="#e5ddbb" d="M 1027.5,617.5 C 1030.25,617.187 1032.91,617.52 1035.5,618.5C 1033.82,619.782 1031.99,620.782 1030,621.5C 1029.67,623.167 1029.33,624.833 1029,626.5C 1027.61,623.722 1027.11,620.722 1027.5,617.5 Z"/></g>
<g><path style="opacity:1" fill="#e4ddba" d="M 363.5,623.5 C 364.289,623.783 364.956,624.283 365.5,625C 364.184,625.528 363.517,625.028 363.5,623.5 Z"/></g>
<g><path style="opacity:1" fill="#e4ddba" d="M 311.5,633.5 C 314.77,636.568 315.103,639.902 312.5,643.5C 311.513,640.232 311.18,636.898 311.5,633.5 Z"/></g>
<g><path style="opacity:1" fill="#e4ddba" d="M 1255.5,635.5 C 1258.67,635.952 1259.01,636.952 1256.5,638.5C 1255.61,637.675 1255.28,636.675 1255.5,635.5 Z"/></g>
<g><path style="opacity:1" fill="#e4ddba" d="M 573.5,638.5 C 576.001,638.511 576.168,639.178 574,640.5C 573.536,639.906 573.369,639.239 573.5,638.5 Z"/></g>
<g><path style="opacity:1" fill="#e4ddba" d="M 806.5,638.5 C 807.8,641.024 807.8,643.691 806.5,646.5C 804.953,645.232 803.953,643.565 803.5,641.5C 804.77,640.712 805.77,639.712 806.5,638.5 Z"/></g>
<g><path style="opacity:1" fill="#e4ddba" d="M 915.5,638.5 C 918.101,639.922 917.934,641.256 915,642.5C 914.5,642.333 914,642.167 913.5,642C 914.305,640.887 914.972,639.721 915.5,638.5 Z"/></g>
<g><path style="opacity:1" fill="#e4ddba" d="M 1234.5,640.5 C 1237,640.511 1237.17,641.178 1235,642.5C 1234.54,641.906 1234.37,641.239 1234.5,640.5 Z"/></g>
<g><path style="opacity:1" fill="#e4ddba" d="M 1566.5,640.5 C 1569,640.511 1569.17,641.178 1567,642.5C 1566.54,641.906 1566.37,641.239 1566.5,640.5 Z"/></g>
<g><path style="opacity:1" fill="#e4ddba" d="M 1571.5,643.5 C 1574.78,643.882 1574.78,645.215 1571.5,647.5C 1570.71,646.3 1570.71,644.967 1571.5,643.5 Z"/></g>
<g><path style="opacity:1" fill="#e4ddba" d="M 87.5,649.5 C 88.914,651.044 89.2474,652.711 88.5,654.5C 87.5481,652.955 87.2148,651.288 87.5,649.5 Z"/></g>
<g><path style="opacity:1" fill="#e4ddba" d="M 257.5,652.5 C 258.708,653.234 260.041,653.567 261.5,653.5C 261.5,654.5 261.5,655.5 261.5,656.5C 258.5,656.833 257.167,655.5 257.5,652.5 Z"/></g>
<g><path style="opacity:1" fill="#e4ddba" d="M 442.5,653.5 C 445.548,653.494 446.048,654.494 444,656.5C 442.961,655.756 442.461,654.756 442.5,653.5 Z"/></g>
<g><path style="opacity:1" fill="#e4ddba" d="M 1535.5,656.5 C 1537.34,656.639 1537.67,657.306 1536.5,658.5C 1535.7,658.043 1535.37,657.376 1535.5,656.5 Z"/></g>
<g><path style="opacity:1" fill="#e4ddba" d="M 418.5,675.5 C 420.035,674.212 421.701,674.212 423.5,675.5C 421.833,676.666 420.166,676.666 418.5,675.5 Z"/></g>
<g><path style="opacity:1" fill="#e4ddba" d="M 318.5,676.5 C 320.337,676.639 320.67,677.306 319.5,678.5C 318.702,678.043 318.369,677.376 318.5,676.5 Z"/></g>
<g><path style="opacity:1" fill="#e4ddba" d="M 1603.5,678.5 C 1606.56,678.603 1607.56,679.936 1606.5,682.5C 1604.71,681.717 1603.71,680.384 1603.5,678.5 Z"/></g>
<g><path style="opacity:1" fill="#e4ddba" d="M 195.5,684.5 C 197.273,685.314 197.773,686.648 197,688.5C 195.812,687.437 195.312,686.103 195.5,684.5 Z"/></g>
<g><path style="opacity:1" fill="#e4ddba" d="M 87.5,690.5 C 89.1053,692.308 89.4387,694.308 88.5,696.5C 87.5344,694.604 87.2011,692.604 87.5,690.5 Z"/></g>
<g><path style="opacity:1" fill="#e4ddba" d="M 556.5,698.5 C 558.337,698.639 558.67,699.306 557.5,700.5C 556.702,700.043 556.369,699.376 556.5,698.5 Z"/></g>
<g><path style="opacity:1" fill="#e4ddba" d="M 740.5,698.5 C 742.337,698.639 742.67,699.306 741.5,700.5C 740.702,700.043 740.369,699.376 740.5,698.5 Z"/></g>
<g><path style="opacity:1" fill="#e4ddba" d="M 802.5,700.5 C 803.15,700.804 803.817,701.137 804.5,701.5C 805.48,704.086 805.813,706.753 805.5,709.5C 802.304,709.101 799.304,708.101 796.5,706.5C 799.391,705.381 801.391,703.381 802.5,700.5 Z"/></g>
<g><path style="opacity:1" fill="#e4ddba" d="M 552.5,701.5 C 553.773,702.077 553.773,702.743 552.5,703.5C 551.537,703.03 551.537,702.363 552.5,701.5 Z"/></g>
<g><path style="opacity:1" fill="#e4ddba" d="M 617.5,703.5 C 619.117,704.038 620.784,704.371 622.5,704.5C 622.5,705.833 622.5,707.167 622.5,708.5C 618.247,708.92 616.58,707.254 617.5,703.5 Z"/></g>
<g><path style="opacity:1" fill="#e4ddba" d="M 247.5,704.5 C 249.698,705.067 252.031,705.067 254.5,704.5C 254.592,708.071 252.926,709.238 249.5,708C 248.177,707.184 247.511,706.017 247.5,704.5 Z"/></g>
<g><path style="opacity:1" fill="#e4ddba" d="M 431.5,704.5 C 434.916,703.894 437.582,704.894 439.5,707.5C 435.556,709.42 432.89,708.42 431.5,704.5 Z"/></g>
<g><path style="opacity:1" fill="#e4ddba" d="M 1604.5,713.5 C 1605.75,713.577 1606.58,714.244 1607,715.5C 1607.67,717.833 1607.67,720.167 1607,722.5C 1605.4,719.753 1604.56,716.753 1604.5,713.5 Z"/></g>
<g><path style="opacity:1" fill="#e4ddba" d="M 510.5,722.5 C 511.675,722.281 512.675,722.614 513.5,723.5C 511.948,724.798 510.948,724.465 510.5,722.5 Z"/></g>
<g><path style="opacity:1" fill="#e4ddba" d="M 694.5,723.5 C 695.675,723.281 696.675,723.614 697.5,724.5C 695.948,725.798 694.948,725.465 694.5,723.5 Z"/></g>
<g><path style="opacity:1" fill="#e4ddba" d="M 1004.5,731.5 C 1006.34,731.639 1006.67,732.306 1005.5,733.5C 1004.7,733.043 1004.37,732.376 1004.5,731.5 Z"/></g>
<g><path style="opacity:1" fill="#e4ddba" d="M 495.5,737.5 C 497.337,737.639 497.67,738.306 496.5,739.5C 495.702,739.043 495.369,738.376 495.5,737.5 Z"/></g>
<g><path style="opacity:1" fill="#e4ddba" d="M 826.5,737.5 C 828.337,737.639 828.67,738.306 827.5,739.5C 826.702,739.043 826.369,738.376 826.5,737.5 Z"/></g>
<g><path style="opacity:1" fill="#e4ddba" d="M 491.5,740.5 C 493.337,740.639 493.67,741.306 492.5,742.5C 491.702,742.043 491.369,741.376 491.5,740.5 Z"/></g>
<g><path style="opacity:1" fill="#e4ddba" d="M 790.5,742.5 C 792.281,745.183 792.781,748.183 792,751.5C 791.259,750.359 790.425,750.359 789.5,751.5C 787.732,749.298 786.565,746.965 786,744.5C 788.869,747.318 790.369,746.652 790.5,742.5 Z"/></g>
<g><path style="opacity:1" fill="#e4ddba" d="M 235.5,743.5 C 236.496,743.414 237.329,743.748 238,744.5C 238.813,746.436 239.313,748.436 239.5,750.5C 238.167,750.5 236.833,750.5 235.5,750.5C 234.562,748.09 234.562,745.756 235.5,743.5 Z"/></g>
<g><path style="opacity:1" fill="#e4ddba" d="M 603.5,744.5 C 604.5,744.5 605.5,744.5 606.5,744.5C 606.297,746.39 606.963,747.89 608.5,749C 606.76,750.827 605.093,750.66 603.5,748.5C 602.193,747.135 602.193,745.802 603.5,744.5 Z"/></g>
<g><path style="opacity:1" fill="#e4ddba" d="M 229.5,745.5 C 230.649,745.791 231.316,746.624 231.5,748C 231.612,749.662 230.946,750.829 229.5,751.5C 228.769,749.599 228.769,747.599 229.5,745.5 Z"/></g>
<g><path style="opacity:1" fill="#e4ddba" d="M 314.5,746.5 C 315.434,747.568 315.768,748.901 315.5,750.5C 314.167,750.5 312.833,750.5 311.5,750.5C 311.5,749.5 311.5,748.5 311.5,747.5C 312.791,747.737 313.791,747.404 314.5,746.5 Z"/></g>
<g><path style="opacity:1" fill="#e4ddba" d="M 782.5,746.5 C 783.289,746.783 783.956,747.283 784.5,748C 783.184,748.528 782.517,748.028 782.5,746.5 Z"/></g>
<g><path style="opacity:1" fill="#e4ddba" d="M 806.5,746.5 C 807.613,747.946 807.78,749.613 807,751.5C 805.817,752.731 804.651,752.731 803.5,751.5C 804.26,749.64 805.26,747.973 806.5,746.5 Z"/></g>
<g><path style="opacity:1" fill="#e4ddba" d="M 355.5,748.5 C 356.773,749.077 356.773,749.743 355.5,750.5C 354.537,750.03 354.537,749.363 355.5,748.5 Z"/></g>
<g><path style="opacity:1" fill="#e4ddba" d="M 421.5,748.5 C 423.337,748.639 423.67,749.306 422.5,750.5C 421.702,750.043 421.369,749.376 421.5,748.5 Z"/></g>
<g><path style="opacity:1" fill="#e4ddba" d="M 219.5,763.5 C 221.973,763.947 222.14,764.947 220,766.5C 219.517,765.552 219.351,764.552 219.5,763.5 Z"/></g>
<g><path style="opacity:1" fill="#e4ddba" d="M 87.5,764.5 C 89.7213,766.33 89.8879,768.33 88,770.5C 87.5045,768.527 87.3379,766.527 87.5,764.5 Z"/></g>
<g><path style="opacity:1" fill="#e4ddba" d="M 311.5,764.5 C 313.973,764.947 314.14,765.947 312,767.5C 311.517,766.552 311.351,765.552 311.5,764.5 Z"/></g>
<g><path style="opacity:1" fill="#e4ddba" d="M 355.5,764.5 C 356.776,765.386 356.776,766.386 355.5,767.5C 354.438,766.575 354.438,765.575 355.5,764.5 Z"/></g>
<g><path style="opacity:1" fill="#e4ddba" d="M 587.5,764.5 C 591.195,763.874 592.029,764.874 590,767.5C 588.144,769.406 585.977,770.24 583.5,770C 582.253,768.506 582.253,767.006 583.5,765.5C 584.251,766.376 584.751,767.376 585,768.5C 585.48,766.867 586.313,765.534 587.5,764.5 Z"/></g>
<g><path style="opacity:1" fill="#e4ddba" d="M 771.5,764.5 C 772.552,764.351 773.552,764.517 774.5,765C 772.393,766.264 771.393,768.097 771.5,770.5C 768.167,771.167 766.167,769.833 765.5,766.5C 767.631,765.831 769.631,765.165 771.5,764.5 Z"/></g>
<g><path style="opacity:1" fill="#e4ddba" d="M 396.5,765.5 C 400.665,766.161 401.999,768.494 400.5,772.5C 398.89,770.275 397.557,767.941 396.5,765.5 Z"/></g>
<g><path style="opacity:1" fill="#e4ddba" d="M 212.5,767.5 C 214.41,766.295 215.743,766.962 216.5,769.5C 216.167,769.833 215.833,770.167 215.5,770.5C 214.712,769.23 213.712,768.23 212.5,767.5 Z"/></g>
<g><path style="opacity:1" fill="#e4ddba" d="M 493.5,766.5 C 497.099,766.262 497.433,767.262 494.5,769.5C 493.614,768.675 493.281,767.675 493.5,766.5 Z"/></g>
<g><path style="opacity:1" fill="#e4ddba" d="M 850.5,769.5 C 851.251,768.427 852.251,768.26 853.5,769C 852.648,770.728 851.648,770.895 850.5,769.5 Z"/></g>
<g><path style="opacity:1" fill="#e4ddba" d="M 304.5,771.5 C 306.337,771.639 306.67,772.306 305.5,773.5C 304.702,773.043 304.369,772.376 304.5,771.5 Z"/></g>
<g><path style="opacity:1" fill="#e4ddba" d="M 120.5,773.5 C 121.386,772.224 122.386,772.224 123.5,773.5C 122.575,774.562 121.575,774.562 120.5,773.5 Z"/></g>
<g><path style="opacity:1" fill="#e4ddba" d="M 1606.5,772.5 C 1608.46,777.853 1606.46,780.52 1600.5,780.5C 1600.35,779.448 1600.52,778.448 1601,777.5C 1603.33,776.336 1605.16,774.67 1606.5,772.5 Z"/></g>
<g><path style="opacity:1" fill="#e4ddba" d="M 321.5,778.5 C 322.289,778.783 322.956,779.283 323.5,780C 322.184,780.528 321.517,780.028 321.5,778.5 Z"/></g>
<g><path style="opacity:1" fill="#e4ddba" d="M 1584.5,778.5 C 1587.15,779.491 1589.48,780.991 1591.5,783C 1591.33,783.5 1591.17,784 1591,784.5C 1589.21,782.771 1587.04,782.104 1584.5,782.5C 1584.5,781.167 1584.5,779.833 1584.5,778.5 Z"/></g>
<g><path style="opacity:1" fill="#e4ddba" d="M 1597.5,779.5 C 1599.27,782.676 1598.27,784.343 1594.5,784.5C 1594.34,783.127 1594.51,781.793 1595,780.5C 1596.46,781.883 1597.29,781.549 1597.5,779.5 Z"/></g>
<g><path style="opacity:1" fill="#e4ddba" d="M 928.5,781.5 C 931.495,779.983 932.661,780.983 932,784.5C 930.641,783.635 929.474,782.635 928.5,781.5 Z"/></g>
<g><path style="opacity:1" fill="#e4ddba" d="M 87.5,785.5 C 91.5227,788.959 92.0227,792.959 89,797.5C 87.6463,793.637 87.1463,789.637 87.5,785.5 Z"/></g>
<g><path style="opacity:1" fill="#e4ddba" d="M 1592.5,785.5 C 1593.5,785.5 1594.5,785.5 1595.5,785.5C 1594.75,789.31 1593.75,789.31 1592.5,785.5 Z"/></g>
<g><path style="opacity:1" fill="#e4ddba" d="M 1599.5,785.5 C 1601.34,786.204 1601.84,787.537 1601,789.5C 1600.21,788.255 1599.71,786.922 1599.5,785.5 Z"/></g>
<g><path style="opacity:1" fill="#e4ddba" d="M 1084.5,788.5 C 1087.96,788.667 1088.29,789.667 1085.5,791.5C 1084.61,790.675 1084.28,789.675 1084.5,788.5 Z"/></g>
<g><path style="opacity:1" fill="#e4ddba" d="M 1091.5,793.5 C 1093.34,793.639 1093.67,794.306 1092.5,795.5C 1091.7,795.043 1091.37,794.376 1091.5,793.5 Z"/></g>
<g><path style="opacity:1" fill="#e4ddba" d="M 1183.5,808.5 C 1184.92,808.75 1185.92,809.583 1186.5,811C 1184.51,811.519 1183.51,810.686 1183.5,808.5 Z"/></g>
<g><path style="opacity:1" fill="#e4ddba" d="M 1597.5,808.5 C 1599.97,808.947 1600.14,809.947 1598,811.5C 1597.52,810.552 1597.35,809.552 1597.5,808.5 Z"/></g>
<g><path style="opacity:1" fill="#e4ddba" d="M 1508.5,809.5 C 1509.5,809.414 1510.33,809.748 1511,810.5C 1511.27,814.543 1512.27,818.21 1514,821.5C 1511.16,825.738 1509.16,825.404 1508,820.5C 1506.31,821.325 1506.15,822.325 1507.5,823.5C 1504.23,824.487 1500.9,824.82 1497.5,824.5C 1497.18,822.278 1497.84,820.444 1499.5,819C 1502.46,819.692 1505.46,819.526 1508.5,818.5C 1508.5,815.5 1508.5,812.5 1508.5,809.5 Z"/></g>
<g><path style="opacity:1" fill="#e4ddba" d="M 493.5,812.5 C 495.97,813.36 496.137,814.694 494,816.5C 493.51,815.207 493.343,813.873 493.5,812.5 Z"/></g>
<g><path style="opacity:1" fill="#e4ddba" d="M 1177.5,812.5 C 1179.1,813.737 1180.26,815.404 1181,817.5C 1181.49,819.134 1181.66,820.801 1181.5,822.5C 1179.18,822.338 1177.51,821.172 1176.5,819C 1177.42,816.959 1177.76,814.792 1177.5,812.5 Z"/></g>
<g><path style="opacity:1" fill="#e4ddba" d="M 1157.5,814.5 C 1159.98,814.747 1159.98,815.413 1157.5,816.5C 1156.54,816.03 1156.54,815.363 1157.5,814.5 Z"/></g>
<g><path style="opacity:1" fill="#e4ddba" d="M 515.5,816.5 C 517.484,816.484 518.484,817.484 518.5,819.5C 517.566,821.939 516.399,824.272 515,826.5C 514.026,824.122 513.359,824.456 513,827.5C 511.314,825.081 508.981,824.081 506,824.5C 502.622,824.587 499.622,825.587 497,827.5C 495.564,827.441 494.231,827.108 493,826.5C 492.231,823.901 492.398,821.401 493.5,819C 497.708,817.701 500.375,819.201 501.5,823.5C 501.582,819.162 503.915,817.829 508.5,819.5C 511.292,819.239 513.625,818.239 515.5,816.5 Z"/></g>
<g><path style="opacity:1" fill="#e4ddba" d="M 847.5,816.5 C 848.922,816.75 849.922,817.583 850.5,819C 848.406,820.352 846.073,820.852 843.5,820.5C 843.244,822.912 844.244,824.579 846.5,825.5C 846.192,826.308 845.692,826.975 845,827.5C 844.097,826.299 842.931,825.465 841.5,825C 838.833,824.667 836.167,824.333 833.5,824C 833.383,819.33 835.716,817.83 840.5,819.5C 843.176,819.061 845.509,818.061 847.5,816.5 Z"/></g>
<g><path style="opacity:1" fill="#e4ddba" d="M 823.5,818.5 C 825.857,818.337 828.19,818.503 830.5,819C 831.574,819.739 832.241,820.739 832.5,822C 831.387,823.394 830.053,824.561 828.5,825.5C 831.284,827.952 830.951,829.952 827.5,831.5C 828.167,832.167 828.833,832.833 829.5,833.5C 825.613,834.473 824.613,832.973 826.5,829C 824.99,826.325 822.99,824.159 820.5,822.5C 821.524,821.148 822.524,819.815 823.5,818.5 Z"/></g>
<g><path style="opacity:1" fill="#e4ddba" d="M 1157.5,818.5 C 1161.22,817.773 1163.89,819.106 1165.5,822.5C 1166.25,821.624 1166.75,820.624 1167,819.5C 1167.71,821.081 1168.54,822.581 1169.5,824C 1166.85,824.497 1164.19,824.664 1161.5,824.5C 1161.84,827.144 1161.17,829.477 1159.5,831.5C 1160.17,832.167 1160.83,832.833 1161.5,833.5C 1160.35,834.731 1159.18,834.731 1158,833.5C 1157.35,831.765 1157.52,830.098 1158.5,828.5C 1156.22,825.361 1155.88,822.028 1157.5,818.5 Z"/></g>
<g><path style="opacity:1" fill="#e4ddba" d="M 1488.5,818.5 C 1492.01,817.891 1494.67,819.058 1496.5,822C 1495.28,823.74 1493.62,824.74 1491.5,825C 1493.16,826.444 1493.82,828.278 1493.5,830.5C 1489.9,830.678 1489.9,831.678 1493.5,833.5C 1488.82,834.145 1487.82,832.478 1490.5,828.5C 1488.71,825.444 1488.04,822.111 1488.5,818.5 Z"/></g>
<g><path style="opacity:1" fill="#e4ddba" d="M 812.5,819.5 C 814.337,819.639 814.67,820.306 813.5,821.5C 812.702,821.043 812.369,820.376 812.5,819.5 Z"/></g>
<g><path style="opacity:1" fill="#e4ddba" d="M 1170.5,820.5 C 1171.92,819.549 1173.59,819.216 1175.5,819.5C 1175.66,822.187 1174.83,824.52 1173,826.5C 1172.16,824.389 1171.32,822.389 1170.5,820.5 Z"/></g>
<g><path style="opacity:1" fill="#e5debb" d="M 511.5,821.5 C 513.337,821.639 513.67,822.306 512.5,823.5C 511.702,823.043 511.369,822.376 511.5,821.5 Z"/></g>
<g><path style="opacity:1" fill="#e4ddba" d="M 806.5,823.5 C 807.797,825.693 807.797,828.027 806.5,830.5C 805.28,830.113 804.613,829.28 804.5,828C 805.414,826.594 806.08,825.094 806.5,823.5 Z"/></g>
<g><path style="opacity:1" fill="#e4ddba" d="M 372.5,832.5 C 375.001,832.511 375.168,833.178 373,834.5C 372.536,833.906 372.369,833.239 372.5,832.5 Z"/></g>
<g><path style="opacity:1" fill="#e4ddba" d="M 1164.5,832.5 C 1165.5,832.47 1166.16,832.97 1166.5,834C 1165.64,835.451 1165.48,836.951 1166,838.5C 1164.68,836.75 1164.18,834.75 1164.5,832.5 Z"/></g>
<g><path style="opacity:1" fill="#e4ddba" d="M 1169.5,832.5 C 1171.34,832.639 1171.67,833.306 1170.5,834.5C 1169.7,834.043 1169.37,833.376 1169.5,832.5 Z"/></g>
<g><path style="opacity:1" fill="#e4ddba" d="M 1604.5,833.5 C 1605.5,833.414 1606.33,833.748 1607,834.5C 1607.93,839.351 1607.6,844.017 1606,848.5C 1604.75,847.789 1603.58,846.956 1602.5,846C 1603.92,842.254 1604.59,838.088 1604.5,833.5 Z"/></g>
<g><path style="opacity:1" fill="#e4ddba" d="M 87.5,834.5 C 89.4646,834.948 89.7979,835.948 88.5,837.5C 87.6143,836.675 87.281,835.675 87.5,834.5 Z"/></g>
<g><path style="opacity:1" fill="#e4dcbb" d="M 1120.5,834.5 C 1122.35,834.222 1123.68,834.889 1124.5,836.5C 1124.06,839.282 1124.06,841.949 1124.5,844.5C 1122.58,846.071 1121.58,848.071 1121.5,850.5C 1126.12,849.975 1127.12,851.308 1124.5,854.5C 1123.25,853.96 1122.09,853.293 1121,852.5C 1120.52,853.448 1120.35,854.448 1120.5,855.5C 1116.94,855.731 1115.44,854.398 1116,851.5C 1115.16,853.007 1114,853.507 1112.5,853C 1115.7,847.018 1118.36,840.851 1120.5,834.5 Z"/></g>
<g><path style="opacity:1" fill="#e4ddba" d="M 636.5,839.5 C 639.125,840.466 639.125,841.466 636.5,842.5C 635.438,841.575 635.438,840.575 636.5,839.5 Z"/></g>
<g><path style="opacity:1" fill="#e5debb" d="M 1118.5,848.5 C 1120.34,848.639 1120.67,849.306 1119.5,850.5C 1118.7,850.043 1118.37,849.376 1118.5,848.5 Z"/></g>
<g><path style="opacity:1" fill="#e4ddba" d="M 789.5,850.5 C 792.957,850.667 793.29,851.667 790.5,853.5C 789.614,852.675 789.281,851.675 789.5,850.5 Z"/></g>
<g><path style="opacity:1" fill="#e4ddba" d="M 87.5,875.5 C 89.3003,876.895 89.6336,878.561 88.5,880.5C 87.5481,878.955 87.2148,877.288 87.5,875.5 Z"/></g>
<g><path style="opacity:1" fill="#e4ddba" d="M 1605.5,876.5 C 1607.41,880.194 1607.91,884.194 1607,888.5C 1606.55,886.464 1605.71,884.63 1604.5,883C 1605.29,880.901 1605.62,878.734 1605.5,876.5 Z"/></g>
<g><path style="opacity:1" fill="#e4ddba" d="M 1603.5,892.5 C 1604.78,893.386 1604.78,894.386 1603.5,895.5C 1602.44,894.575 1602.44,893.575 1603.5,892.5 Z"/></g>
<g><path style="opacity:1" fill="#e4ddba" d="M 1604.5,900.5 C 1605.08,899.227 1605.74,899.227 1606.5,900.5C 1606.03,901.463 1605.36,901.463 1604.5,900.5 Z"/></g>
<g><path style="opacity:1" fill="#e4ddba" d="M 1412.5,900.5 C 1413.38,900.369 1414.04,900.702 1414.5,901.5C 1412.99,905.355 1412.33,905.021 1412.5,900.5 Z"/></g>
<g><path style="opacity:1" fill="#e4ddba" d="M 425.5,902.5 C 428.956,903.536 429.29,905.203 426.5,907.5C 425.548,905.955 425.215,904.288 425.5,902.5 Z"/></g>
<g><path style="opacity:1" fill="#e4ddba" d="M 1602.5,902.5 C 1604.17,902.5 1605.83,902.5 1607.5,902.5C 1608.54,910.753 1607.04,918.42 1603,925.5C 1601.41,926.376 1599.91,927.376 1598.5,928.5C 1595.04,919.755 1597.04,912.088 1604.5,905.5C 1603.39,904.735 1602.72,903.735 1602.5,902.5 Z"/></g>
<g><path style="opacity:1" fill="#e4ddba" d="M 1124.5,932.5 C 1127,932.511 1127.17,933.178 1125,934.5C 1124.54,933.906 1124.37,933.239 1124.5,932.5 Z"/></g>
<g><path style="opacity:1" fill="#e4ddba" d="M 1606.5,939.5 C 1607.62,941.288 1607.79,943.288 1607,945.5C 1606.08,944.953 1605.24,944.287 1604.5,943.5C 1605.63,942.378 1606.3,941.044 1606.5,939.5 Z"/></g>
<g><path style="opacity:1" fill="#e4ddba" d="M 1602.5,954.5 C 1603.83,954.5 1605.17,954.5 1606.5,954.5C 1606.67,957.797 1606,958.131 1604.5,955.5C 1603.06,956.981 1602.39,956.648 1602.5,954.5 Z"/></g>
<g><path style="opacity:1" fill="#e4ddba" d="M 311.5,969.5 C 315.089,970.372 315.423,972.039 312.5,974.5C 311.548,972.955 311.215,971.288 311.5,969.5 Z"/></g>
<g><path style="opacity:1" fill="#e4ddba" d="M 560.5,972.5 C 562.337,972.639 562.67,973.306 561.5,974.5C 560.702,974.043 560.369,973.376 560.5,972.5 Z"/></g>
<g><path style="opacity:1" fill="#e4ddba" d="M 1224.5,972.5 C 1226.34,972.639 1226.67,973.306 1225.5,974.5C 1224.7,974.043 1224.37,973.376 1224.5,972.5 Z"/></g>
<g><path style="opacity:1" fill="#e4ddba" d="M 1566.5,972.5 C 1569,972.511 1569.17,973.178 1567,974.5C 1566.54,973.906 1566.37,973.239 1566.5,972.5 Z"/></g>
<g><path style="opacity:1" fill="#e4ddba" d="M 1220.5,974.5 C 1221.77,975.077 1221.77,975.743 1220.5,976.5C 1219.54,976.03 1219.54,975.363 1220.5,974.5 Z"/></g>
<g><path style="opacity:1" fill="#e4ddba" d="M 1550.5,974.5 C 1553.96,974.667 1554.29,975.667 1551.5,977.5C 1550.61,976.675 1550.28,975.675 1550.5,974.5 Z"/></g>
<g><path style="opacity:1" fill="#e4ddba" d="M 1603.5,1010.5 C 1604.83,1010.5 1606.17,1010.5 1607.5,1010.5C 1606.76,1015.5 1605.43,1015.5 1603.5,1010.5 Z"/></g>
<g><path style="opacity:1" fill="#e4ddba" d="M 555.5,1029.5 C 557.337,1029.64 557.67,1030.31 556.5,1031.5C 555.702,1031.04 555.369,1030.38 555.5,1029.5 Z"/></g>
<g><path style="opacity:1" fill="#e4ddba" d="M 1604.5,1045.5 C 1605.5,1045.41 1606.33,1045.75 1607,1046.5C 1607.8,1048.26 1607.63,1049.93 1606.5,1051.5C 1605.23,1049.7 1604.57,1047.7 1604.5,1045.5 Z"/></g>
</svg>
