<?xml version="1.0" encoding="UTF-8"?>
<!DOCTYPE svg PUBLIC "-//W3C//DTD SVG 1.1//EN" "http://www.w3.org/Graphics/SVG/1.1/DTD/svg11.dtd">
<svg xmlns="http://www.w3.org/2000/svg" version="1.1" width="1920px" height="1080px" style="shape-rendering:geometricPrecision; text-rendering:geometricPrecision; image-rendering:optimizeQuality; fill-rule:evenodd; clip-rule:evenodd" xmlns:xlink="http://www.w3.org/1999/xlink">
<g><path style="opacity:0.999" fill="#e5ddbb" d="M -0.5,-0.5 C 639.5,-0.5 1279.5,-0.5 1919.5,-0.5C 1919.5,359.5 1919.5,719.5 1919.5,1079.5C 1279.5,1079.5 639.5,1079.5 -0.5,1079.5C -0.5,719.5 -0.5,359.5 -0.5,-0.5 Z"/></g>
<g><path style="opacity:1" fill="#e0d9b7" d="M 639.5,85.5 C 638.905,82.8875 638.071,82.8875 637,85.5C 635.191,91.4423 633.691,97.4423 632.5,103.5C 631.512,104.795 630.512,106.128 629.5,107.5C 627.5,108.833 625.5,108.833 623.5,107.5C 621.716,107.107 620.05,106.441 618.5,105.5C 617.529,102.338 615.862,101.504 613.5,103C 614.315,104.98 615.648,106.48 617.5,107.5C 618.5,108.167 619.5,108.833 620.5,109.5C 620.703,111.044 621.37,112.378 622.5,113.5C 621.311,114.429 619.978,114.762 618.5,114.5C 616.283,113.631 613.95,113.298 611.5,113.5C 610.167,113.5 608.833,113.5 607.5,113.5C 607.843,111.517 607.176,110.183 605.5,109.5C 604.833,108.5 604.167,107.5 603.5,106.5C 604.167,103.833 604.833,101.167 605.5,98.5C 605.557,97.391 605.89,96.391 606.5,95.5C 614.475,95.7405 615.475,93.2405 609.5,88C 603.395,85.752 597.061,84.9186 590.5,85.5C 588.821,85.7148 587.821,85.0481 587.5,83.5C 587.5,82.1667 587.5,80.8333 587.5,79.5C 585.088,79.756 583.421,78.756 582.5,76.5C 583.64,74.9222 584.14,73.2555 584,71.5C 582.921,73.3937 581.587,73.727 580,72.5C 579.598,73.8721 579.098,75.2054 578.5,76.5C 581.03,79.2698 582.03,82.6031 581.5,86.5C 582.5,86.5 583.5,86.5 584.5,86.5C 584.351,87.552 584.517,88.552 585,89.5C 586.49,88.2721 587.99,88.2721 589.5,89.5C 589.5,90.1667 589.5,90.8333 589.5,91.5C 587.409,95.786 587.076,100.119 588.5,104.5C 588.5,105.167 588.833,105.5 589.5,105.5C 590.11,106.391 590.443,107.391 590.5,108.5C 587.029,107.367 585.029,105.033 584.5,101.5C 583.5,101.5 582.5,101.5 581.5,101.5C 580.129,97.9313 578.462,94.4313 576.5,91C 576.645,90.228 576.978,89.5613 577.5,89C 574.854,88.5026 572.187,88.3359 569.5,88.5C 569.308,81.8801 571.641,76.3801 576.5,72C 575.123,69.6922 573.123,68.1922 570.5,67.5C 568.776,64.947 567.276,62.2803 566,59.5C 565.066,52.3547 563.232,45.5213 560.5,39C 561.737,35.3055 562.57,31.8055 563,28.5C 564.635,31.6319 566.468,34.6319 568.5,37.5C 566.043,45.4278 565.877,53.4278 568,61.5C 568.833,62.3333 569.667,63.1667 570.5,64C 575.619,65.6468 580.619,67.4801 585.5,69.5C 586.022,76.2564 587.855,76.9231 591,71.5C 592.829,73.7299 592.662,75.8965 590.5,78C 592.091,81.4622 594.758,82.7955 598.5,82C 594.436,81.582 592.936,79.4153 594,75.5C 597.463,72.7155 601.296,70.3821 605.5,68.5C 602.787,66.8173 602.287,64.8173 604,62.5C 605.57,63.3578 607.237,64.0245 609,64.5C 610.9,62.112 613.4,60.7787 616.5,60.5C 616.281,59.325 616.614,58.325 617.5,57.5C 618.308,59.4233 618.808,61.4233 619,63.5C 620.119,60.9429 620.285,58.4429 619.5,56C 621.174,54.4941 622.174,52.6607 622.5,50.5C 624.39,50.7035 625.89,50.0368 627,48.5C 629.292,49.7899 631.292,51.4565 633,53.5C 633.165,55.678 632.332,57.5114 630.5,59C 634.382,60.7516 635.382,63.5849 633.5,67.5C 632.167,66.8333 630.833,66.1667 629.5,65.5C 629.113,63.2692 628.947,60.9359 629,58.5C 627.413,57.273 626.079,57.6063 625,59.5C 624.667,61.1667 624.333,62.8333 624,64.5C 620.45,67.2812 618.283,70.9479 617.5,75.5C 618.36,77.2716 619.693,78.6049 621.5,79.5C 624.022,77.144 626.688,74.9773 629.5,73C 633.974,73.4216 638.307,73.9216 642.5,74.5C 643.478,74.0233 644.311,73.3567 645,72.5C 647.627,74.9883 650.46,75.1549 653.5,73C 654.684,67.8167 656.851,67.3167 660,71.5C 661.167,68.5 662.333,65.5 663.5,62.5C 664.728,60.679 666.394,59.679 668.5,59.5C 668.799,61.604 668.466,63.604 667.5,65.5C 664.721,66.6735 664.054,68.5068 665.5,71C 658.973,74.4221 651.973,77.7554 644.5,81C 642.98,82.728 641.314,84.228 639.5,85.5 Z"/></g>
<g><path style="opacity:0.886" fill="#a29c84" d="M 587.5,83.5 C 586.176,82.1501 585.176,82.3167 584.5,84C 585.866,86.2392 587.533,88.0726 589.5,89.5C 587.99,88.2721 586.49,88.2721 585,89.5C 584.517,88.552 584.351,87.552 584.5,86.5C 583.5,86.5 582.5,86.5 581.5,86.5C 582.03,82.6031 581.03,79.2698 578.5,76.5C 579.098,75.2054 579.598,73.8721 580,72.5C 581.587,73.727 582.921,73.3937 584,71.5C 584.14,73.2555 583.64,74.9222 582.5,76.5C 583.421,78.756 585.088,79.756 587.5,79.5C 587.5,80.8333 587.5,82.1667 587.5,83.5 Z"/></g>
<g><path style="opacity:0.905" fill="#686455" d="M 587.5,83.5 C 587.821,85.0481 588.821,85.7148 590.5,85.5C 590.232,87.099 590.566,88.4324 591.5,89.5C 591.328,90.4916 591.662,91.1583 592.5,91.5C 592.631,92.3764 592.298,93.0431 591.5,93.5C 590.818,92.7573 590.151,92.0906 589.5,91.5C 589.5,90.8333 589.5,90.1667 589.5,89.5C 587.533,88.0726 585.866,86.2392 584.5,84C 585.176,82.3167 586.176,82.1501 587.5,83.5 Z"/></g>
<g><path style="opacity:1" fill="#99947d" d="M 590.5,85.5 C 597.061,84.9186 603.395,85.752 609.5,88C 615.475,93.2405 614.475,95.7405 606.5,95.5C 605.222,95.7822 604.222,96.4489 603.5,97.5C 603.5,96.1667 603.5,94.8333 603.5,93.5C 605.833,93.5 608.167,93.5 610.5,93.5C 610.719,92.325 610.386,91.325 609.5,90.5C 603.379,87.1481 597.379,86.8148 591.5,89.5C 590.566,88.4324 590.232,87.099 590.5,85.5 Z"/></g>
<g><path style="opacity:1" fill="#6b6858" d="M 639.5,85.5 C 637.844,90.7184 636.178,96.0518 634.5,101.5C 634.685,102.584 635.018,103.584 635.5,104.5C 634.391,104.443 633.391,104.11 632.5,103.5C 633.691,97.4423 635.191,91.4423 637,85.5C 638.071,82.8875 638.905,82.8875 639.5,85.5 Z"/></g>
<g><path style="opacity:0.999" fill="#ddd5b5" d="M 603.5,97.5 C 603.167,98.1667 602.833,98.8333 602.5,99.5C 598.896,100.521 595.229,100.521 591.5,99.5C 591.321,97.0459 591.987,94.8792 593.5,93C 593.43,92.2352 593.097,91.7352 592.5,91.5C 591.662,91.1583 591.328,90.4916 591.5,89.5C 597.379,86.8148 603.379,87.1481 609.5,90.5C 610.386,91.325 610.719,92.325 610.5,93.5C 608.167,93.5 605.833,93.5 603.5,93.5C 603.5,94.8333 603.5,96.1667 603.5,97.5 Z"/></g>
<g><path style="opacity:1" fill="#6b6757" d="M 606.5,95.5 C 605.89,96.391 605.557,97.391 605.5,98.5C 604.685,99.4293 603.852,100.429 603,101.5C 602.536,100.906 602.369,100.239 602.5,99.5C 602.833,98.8333 603.167,98.1667 603.5,97.5C 604.222,96.4489 605.222,95.7822 606.5,95.5 Z"/></g>
<g><path style="opacity:0.979" fill="#c7c0a3" d="M 589.5,91.5 C 590.151,92.0906 590.818,92.7573 591.5,93.5C 592.298,93.0431 592.631,92.3764 592.5,91.5C 593.097,91.7352 593.43,92.2352 593.5,93C 591.987,94.8792 591.321,97.0459 591.5,99.5C 595.229,100.521 598.896,100.521 602.5,99.5C 602.369,100.239 602.536,100.906 603,101.5C 603.852,100.429 604.685,99.4293 605.5,98.5C 604.833,101.167 604.167,103.833 603.5,106.5C 602.167,106.5 601.5,107.167 601.5,108.5C 597.833,108.5 594.167,108.5 590.5,108.5C 590.443,107.391 590.11,106.391 589.5,105.5C 591.176,104.817 591.843,103.483 591.5,101.5C 590.5,101.5 589.5,101.5 588.5,101.5C 588.5,102.5 588.5,103.5 588.5,104.5C 587.076,100.119 587.409,95.786 589.5,91.5 Z"/></g>
<g><path style="opacity:1" fill="#454238" d="M 618.5,105.5 C 617.662,105.842 617.328,106.508 617.5,107.5C 615.648,106.48 614.315,104.98 613.5,103C 615.862,101.504 617.529,102.338 618.5,105.5 Z"/></g>
<g><path style="opacity:1" fill="#797563" d="M 589.5,105.5 C 588.833,105.5 588.5,105.167 588.5,104.5C 588.5,103.5 588.5,102.5 588.5,101.5C 589.5,101.5 590.5,101.5 591.5,101.5C 591.843,103.483 591.176,104.817 589.5,105.5 Z"/></g>
<g><path style="opacity:1" fill="#a59f86" d="M 655.5,103.5 C 659.102,103.678 659.102,104.678 655.5,106.5C 654.438,105.575 654.438,104.575 655.5,103.5 Z"/></g>
<g><path style="opacity:1" fill="#49473c" d="M 632.5,103.5 C 633.391,104.11 634.391,104.443 635.5,104.5C 634.258,106.25 632.758,107.917 631,109.5C 630.517,110.448 630.351,111.448 630.5,112.5C 628.887,111.308 627.22,110.308 625.5,109.5C 627.38,109.771 628.713,109.104 629.5,107.5C 630.512,106.128 631.512,104.795 632.5,103.5 Z"/></g>
<g><path style="opacity:1" fill="#88836f" d="M 603.5,106.5 C 604.167,107.5 604.833,108.5 605.5,109.5C 606.504,111.677 605.838,112.011 603.5,110.5C 603.167,109.5 602.5,108.833 601.5,108.5C 601.5,107.167 602.167,106.5 603.5,106.5 Z"/></g>
<g><path style="opacity:1" fill="#97927c" d="M 623.5,107.5 C 625.5,108.833 627.5,108.833 629.5,107.5C 628.713,109.104 627.38,109.771 625.5,109.5C 624.5,109.167 623.833,108.5 623.5,107.5 Z"/></g>
<g><path style="opacity:0.855" fill="#908b76" d="M 620.5,109.5 C 622.975,110.687 623.975,112.687 623.5,115.5C 621.833,115.5 620.167,115.5 618.5,115.5C 618.5,115.167 618.5,114.833 618.5,114.5C 619.978,114.762 621.311,114.429 622.5,113.5C 621.37,112.378 620.703,111.044 620.5,109.5 Z"/></g>
<g><path style="opacity:1" fill="#5c594b" d="M 611.5,113.5 C 613.95,113.298 616.283,113.631 618.5,114.5C 618.5,114.833 618.5,115.167 618.5,115.5C 618.062,115.435 617.728,115.601 617.5,116C 618.737,116.232 619.737,116.732 620.5,117.5C 616.817,116.325 613.15,116.325 609.5,117.5C 609.527,115.801 610.194,114.467 611.5,113.5 Z"/></g>
<g><path style="opacity:1" fill="#c7c0a3" d="M 605.5,109.5 C 607.176,110.183 607.843,111.517 607.5,113.5C 608.833,113.5 610.167,113.5 611.5,113.5C 610.194,114.467 609.527,115.801 609.5,117.5C 613.15,116.325 616.817,116.325 620.5,117.5C 621.167,118.167 621.833,118.833 622.5,119.5C 623.363,121.421 624.029,123.421 624.5,125.5C 621.448,124.223 620.115,121.89 620.5,118.5C 616.818,118.335 613.152,118.501 609.5,119C 608.382,120.074 607.382,121.24 606.5,122.5C 606.167,122.167 605.833,121.833 605.5,121.5C 607.171,119.49 607.838,117.157 607.5,114.5C 605.801,114.473 604.467,113.806 603.5,112.5C 603.5,111.833 603.5,111.167 603.5,110.5C 605.838,112.011 606.504,111.677 605.5,109.5 Z"/></g>
<g><path style="opacity:0.925" fill="#4b483d" d="M 632.5,115.5 C 634.417,118.331 636.083,121.331 637.5,124.5C 635.887,124.056 634.72,123.056 634,121.5C 633.107,122.711 632.274,122.711 631.5,121.5C 632.025,120.808 632.692,120.308 633.5,120C 632.62,118.644 632.286,117.144 632.5,115.5 Z"/></g>
<g><path style="opacity:1" fill="#5f5b4d" d="M 622.5,119.5 C 626.765,119.357 629.431,121.357 630.5,125.5C 630.634,127.292 630.301,128.958 629.5,130.5C 628.061,128.64 626.395,126.973 624.5,125.5C 624.029,123.421 623.363,121.421 622.5,119.5 Z"/></g>
<g><path style="opacity:0.89" fill="#9e9880" d="M 641.5,127.5 C 642.167,127.833 642.833,128.167 643.5,128.5C 644.6,129.605 645.267,130.938 645.5,132.5C 644.167,131.5 642.833,130.5 641.5,129.5C 641.5,128.833 641.5,128.167 641.5,127.5 Z"/></g>
<g><path style="opacity:1" fill="#2b2923" d="M 618.5,105.5 C 620.05,106.441 621.716,107.107 623.5,107.5C 623.833,108.5 624.5,109.167 625.5,109.5C 627.22,110.308 628.887,111.308 630.5,112.5C 631.167,113.5 631.833,114.5 632.5,115.5C 632.286,117.144 632.62,118.644 633.5,120C 632.692,120.308 632.025,120.808 631.5,121.5C 632.274,122.711 633.107,122.711 634,121.5C 634.72,123.056 635.887,124.056 637.5,124.5C 638.795,125.488 640.128,126.488 641.5,127.5C 641.5,128.167 641.5,128.833 641.5,129.5C 643.477,134.475 647.143,137.141 652.5,137.5C 655.92,139.222 659.586,139.889 663.5,139.5C 663.5,139.833 663.5,140.167 663.5,140.5C 663.98,143.005 664.98,145.338 666.5,147.5C 664.282,148.057 661.949,148.057 659.5,147.5C 657.777,145.782 655.777,144.449 653.5,143.5C 652.5,142.833 651.5,142.167 650.5,141.5C 649.365,139.787 647.698,139.12 645.5,139.5C 645.5,139.167 645.5,138.833 645.5,138.5C 642.713,137.523 639.713,137.19 636.5,137.5C 636.785,135.712 636.452,134.045 635.5,132.5C 633.074,130.625 631.407,128.291 630.5,125.5C 629.431,121.357 626.765,119.357 622.5,119.5C 621.833,118.833 621.167,118.167 620.5,117.5C 619.737,116.732 618.737,116.232 617.5,116C 617.728,115.601 618.062,115.435 618.5,115.5C 620.167,115.5 621.833,115.5 623.5,115.5C 623.975,112.687 622.975,110.687 620.5,109.5C 619.5,108.833 618.5,108.167 617.5,107.5C 617.328,106.508 617.662,105.842 618.5,105.5 Z"/></g>
<g><path style="opacity:1" fill="#605c4e" d="M 641.5,129.5 C 642.833,130.5 644.167,131.5 645.5,132.5C 647.455,134.706 649.788,136.372 652.5,137.5C 647.143,137.141 643.477,134.475 641.5,129.5 Z"/></g>
<g><path style="opacity:1" fill="#dfd7b6" d="M 687.5,141.5 C 687.808,139.076 687.474,136.743 686.5,134.5C 685.794,136.704 684.794,138.704 683.5,140.5C 682.5,141.5 681.5,142.5 680.5,143.5C 679.735,143.923 678.902,144.257 678,144.5C 676.493,143.445 674.993,142.445 673.5,141.5C 673.167,140.5 672.5,139.833 671.5,139.5C 670.773,135.776 672.106,133.109 675.5,131.5C 674.998,130.479 674.332,130.312 673.5,131C 671.808,132.307 670.475,133.807 669.5,135.5C 667.777,137.218 665.777,138.551 663.5,139.5C 657.163,138.196 651.163,135.863 645.5,132.5C 645.267,130.938 644.6,129.605 643.5,128.5C 648.529,128.334 652.362,130.334 655,134.5C 656.284,133.428 656.617,132.095 656,130.5C 657.491,128.996 659.324,128.163 661.5,128C 659.519,127.395 659.185,126.395 660.5,125C 662.259,124.202 663.926,124.369 665.5,125.5C 664.538,127.883 665.538,128.883 668.5,128.5C 668.222,126.654 668.889,125.32 670.5,124.5C 671.833,125.833 673.167,127.167 674.5,128.5C 675.086,128.291 675.586,127.957 676,127.5C 679.25,129.896 682.75,130.563 686.5,129.5C 686.647,125.273 686.647,121.106 686.5,117C 689.297,114.748 692.131,112.581 695,110.5C 695.49,109.207 695.657,107.873 695.5,106.5C 700.131,105.301 704.798,103.968 709.5,102.5C 710.167,102.833 710.833,103.167 711.5,103.5C 710.01,106.004 708.343,108.338 706.5,110.5C 705.571,111.689 705.238,113.022 705.5,114.5C 704.07,114.421 702.736,114.754 701.5,115.5C 700.289,114.726 700.289,113.893 701.5,113C 699.064,112.564 697.064,113.397 695.5,115.5C 696.429,118.838 696.929,122.171 697,125.5C 695.615,124.449 694.615,123.116 694,121.5C 692.175,125.234 691.175,129.234 691,133.5C 689.108,135.887 687.942,138.553 687.5,141.5 Z"/></g>
<g><path style="opacity:1" fill="#9a957e" d="M 671.5,139.5 C 670.833,138.167 670.167,136.833 669.5,135.5C 670.475,133.807 671.808,132.307 673.5,131C 674.332,130.312 674.998,130.479 675.5,131.5C 672.106,133.109 670.773,135.776 671.5,139.5 Z"/></g>
<g><path style="opacity:0.859" fill="#898470" d="M 645.5,132.5 C 651.163,135.863 657.163,138.196 663.5,139.5C 659.586,139.889 655.92,139.222 652.5,137.5C 649.788,136.372 647.455,134.706 645.5,132.5 Z"/></g>
<g><path style="opacity:1" fill="#a49f86" d="M 687.5,141.5 C 687.5,142.833 686.833,143.5 685.5,143.5C 685.715,141.821 685.048,140.821 683.5,140.5C 684.794,138.704 685.794,136.704 686.5,134.5C 687.474,136.743 687.808,139.076 687.5,141.5 Z"/></g>
<g><path style="opacity:1" fill="#827d6a" d="M 645.5,138.5 C 645.5,138.833 645.5,139.167 645.5,139.5C 641.731,138.96 639.064,140.294 637.5,143.5C 637.286,141.856 637.62,140.356 638.5,139C 640.81,138.503 643.143,138.337 645.5,138.5 Z"/></g>
<g><path style="opacity:1" fill="#504d41" d="M 630.5,125.5 C 631.407,128.291 633.074,130.625 635.5,132.5C 636.452,134.045 636.785,135.712 636.5,137.5C 639.713,137.19 642.713,137.523 645.5,138.5C 643.143,138.337 640.81,138.503 638.5,139C 637.62,140.356 637.286,141.856 637.5,143.5C 637.5,144.5 637.5,145.5 637.5,146.5C 636.833,146.5 636.167,146.5 635.5,146.5C 635.631,145.624 635.298,144.957 634.5,144.5C 633.5,145.167 632.5,145.833 631.5,146.5C 630.702,146.043 630.369,145.376 630.5,144.5C 631.906,142.244 633.573,140.078 635.5,138C 633.68,135.348 631.68,132.848 629.5,130.5C 630.301,128.958 630.634,127.292 630.5,125.5 Z"/></g>
<g><path style="opacity:1" fill="#635f51" d="M 669.5,135.5 C 670.167,136.833 670.833,138.167 671.5,139.5C 672.5,139.833 673.167,140.5 673.5,141.5C 673.5,143.167 673.5,144.833 673.5,146.5C 672.71,145.391 672.21,144.058 672,142.5C 671.261,143.574 670.261,144.241 669,144.5C 667.569,142.562 665.735,141.229 663.5,140.5C 663.5,140.167 663.5,139.833 663.5,139.5C 665.777,138.551 667.777,137.218 669.5,135.5 Z"/></g>
<g><path style="opacity:1" fill="#696656" d="M 653.5,143.5 C 655.777,144.449 657.777,145.782 659.5,147.5C 658.833,147.5 658.167,147.5 657.5,147.5C 655.833,146.5 654.5,145.167 653.5,143.5 Z"/></g>
<g><path style="opacity:1" fill="#87826e" d="M 673.5,141.5 C 674.993,142.445 676.493,143.445 678,144.5C 678.902,144.257 679.735,143.923 680.5,143.5C 679.35,148.068 677.016,149.068 673.5,146.5C 673.5,144.833 673.5,143.167 673.5,141.5 Z"/></g>
<g><path style="opacity:1" fill="#625f50" d="M 683.5,140.5 C 685.048,140.821 685.715,141.821 685.5,143.5C 683.317,144.85 681.65,146.684 680.5,149C 681.429,150.077 682.096,151.244 682.5,152.5C 681.432,153.434 680.099,153.768 678.5,153.5C 678.81,156.713 678.477,159.713 677.5,162.5C 677.234,158.429 677.567,154.429 678.5,150.5C 678.043,149.702 677.376,149.369 676.5,149.5C 674.5,149.5 673.5,148.5 673.5,146.5C 677.016,149.068 679.35,148.068 680.5,143.5C 681.5,142.5 682.5,141.5 683.5,140.5 Z"/></g>
<g><path style="opacity:0.956" fill="#3d3b32" d="M 663.5,140.5 C 665.735,141.229 667.569,142.562 669,144.5C 670.261,144.241 671.261,143.574 672,142.5C 672.21,144.058 672.71,145.391 673.5,146.5C 673.5,148.5 674.5,149.5 676.5,149.5C 675.415,151.582 673.915,151.916 672,150.5C 670.961,151.244 670.461,152.244 670.5,153.5C 670.167,153.5 669.833,153.5 669.5,153.5C 668.395,152.4 667.062,151.733 665.5,151.5C 663.77,149.879 661.77,148.545 659.5,147.5C 661.949,148.057 664.282,148.057 666.5,147.5C 664.98,145.338 663.98,143.005 663.5,140.5 Z"/></g>
<g><path style="opacity:1" fill="#dbd4b3" d="M 665.5,151.5 C 667.062,151.733 668.395,152.4 669.5,153.5C 670.038,155.117 670.371,156.784 670.5,158.5C 666.657,158.694 664.324,156.861 663.5,153C 663.836,151.97 664.503,151.47 665.5,151.5 Z"/></g>
<g><path style="opacity:1" fill="#b9b397" d="M 657.5,147.5 C 658.167,147.5 658.833,147.5 659.5,147.5C 661.77,148.545 663.77,149.879 665.5,151.5C 664.503,151.47 663.836,151.97 663.5,153C 664.324,156.861 666.657,158.694 670.5,158.5C 670.371,156.784 670.038,155.117 669.5,153.5C 669.833,153.5 670.167,153.5 670.5,153.5C 670.833,154.5 671.5,155.167 672.5,155.5C 670.726,158.118 669.726,161.118 669.5,164.5C 666.416,160.237 663.083,156.071 659.5,152C 659.645,151.228 659.978,150.561 660.5,150C 659.058,149.623 658.058,148.79 657.5,147.5 Z"/></g>
<g><path style="opacity:1" fill="#2d2b24" d="M 676.5,149.5 C 677.376,149.369 678.043,149.702 678.5,150.5C 677.567,154.429 677.234,158.429 677.5,162.5C 676.699,164.042 676.366,165.708 676.5,167.5C 679.327,167.584 681.994,168.25 684.5,169.5C 684.833,169.5 685.167,169.5 685.5,169.5C 685.672,170.492 685.338,171.158 684.5,171.5C 682.468,172.048 681.468,173.381 681.5,175.5C 680.167,175.5 678.833,175.5 677.5,175.5C 677.5,174.833 677.5,174.167 677.5,173.5C 678.573,172.749 678.74,171.749 678,170.5C 676.333,169.833 674.667,169.167 673,168.5C 672.848,163.968 672.681,159.635 672.5,155.5C 671.5,155.167 670.833,154.5 670.5,153.5C 670.461,152.244 670.961,151.244 672,150.5C 673.915,151.916 675.415,151.582 676.5,149.5 Z"/></g>
<g><path style="opacity:0.911" fill="#87826e" d="M 682.5,152.5 C 683.404,153.209 683.737,154.209 683.5,155.5C 682.157,157.698 680.824,160.031 679.5,162.5C 680.421,164.756 682.088,165.756 684.5,165.5C 684.5,166.833 684.5,168.167 684.5,169.5C 681.994,168.25 679.327,167.584 676.5,167.5C 676.366,165.708 676.699,164.042 677.5,162.5C 678.477,159.713 678.81,156.713 678.5,153.5C 680.099,153.768 681.432,153.434 682.5,152.5 Z"/></g>
<g><path style="opacity:1" fill="#49473c" d="M 672.5,155.5 C 672.681,159.635 672.848,163.968 673,168.5C 674.667,169.167 676.333,169.833 678,170.5C 678.74,171.749 678.573,172.749 677.5,173.5C 677.53,172.503 677.03,171.836 676,171.5C 672.121,174.475 669.954,173.475 669.5,168.5C 670.686,167.295 670.686,165.961 669.5,164.5C 669.726,161.118 670.726,158.118 672.5,155.5 Z"/></g>
<g><path style="opacity:1" fill="#b4ad93" d="M 683.5,155.5 C 683.461,156.583 683.127,157.583 682.5,158.5C 684.041,160.204 685.375,162.037 686.5,164C 685.852,165.44 685.519,166.94 685.5,168.5C 688.443,168.353 691.276,167.687 694,166.5C 694.5,166.833 695,167.167 695.5,167.5C 692.942,168.956 690.275,170.29 687.5,171.5C 687.5,170.167 686.833,169.5 685.5,169.5C 685.167,169.5 684.833,169.5 684.5,169.5C 684.5,168.167 684.5,166.833 684.5,165.5C 682.088,165.756 680.421,164.756 679.5,162.5C 680.824,160.031 682.157,157.698 683.5,155.5 Z"/></g>
<g><path style="opacity:1" fill="#8f8974" d="M 697.5,171.5 C 700.247,171.187 702.914,171.52 705.5,172.5C 704.167,172.833 702.833,173.167 701.5,173.5C 699.667,173.415 698.334,172.748 697.5,171.5 Z"/></g>
<g><path style="opacity:1" fill="#9d9780" d="M 649.5,174.5 C 649.735,173.903 650.235,173.57 651,173.5C 655.813,173.452 659.813,175.119 663,178.5C 663.688,179.332 663.521,179.998 662.5,180.5C 661.167,179.833 660.167,178.833 659.5,177.5C 657.955,176.548 656.288,176.215 654.5,176.5C 652.716,176.107 651.05,175.441 649.5,174.5 Z"/></g>
<g><path style="opacity:1" fill="#524f43" d="M 684.5,171.5 C 683.85,173.435 683.517,175.435 683.5,177.5C 683.5,178.167 683.5,178.833 683.5,179.5C 682.833,180.167 682.167,180.833 681.5,181.5C 681.53,180.503 681.03,179.836 680,179.5C 678.121,181.013 675.954,181.679 673.5,181.5C 674.5,180.833 675.5,180.167 676.5,179.5C 679.814,178.59 680.148,177.257 677.5,175.5C 678.833,175.5 680.167,175.5 681.5,175.5C 681.468,173.381 682.468,172.048 684.5,171.5 Z"/></g>
<g><path style="opacity:1" fill="#817d6a" d="M 685.5,169.5 C 686.833,169.5 687.5,170.167 687.5,171.5C 686.347,173.636 685.014,175.636 683.5,177.5C 683.517,175.435 683.85,173.435 684.5,171.5C 685.338,171.158 685.672,170.492 685.5,169.5 Z"/></g>
<g><path style="opacity:1" fill="#c9c3a5" d="M 669.5,168.5 C 669.954,173.475 672.121,174.475 676,171.5C 677.03,171.836 677.53,172.503 677.5,173.5C 677.5,174.167 677.5,174.833 677.5,175.5C 680.148,177.257 679.814,178.59 676.5,179.5C 674.786,178.262 672.786,177.595 670.5,177.5C 671.244,174.05 669.91,172.384 666.5,172.5C 665.95,176.339 664.95,176.339 663.5,172.5C 665.529,171.156 667.529,169.823 669.5,168.5 Z"/></g>
<g><path style="opacity:1" fill="#dfd8b6" d="M 603.5,112.5 C 604.467,113.806 605.801,114.473 607.5,114.5C 607.838,117.157 607.171,119.49 605.5,121.5C 605.833,121.833 606.167,122.167 606.5,122.5C 607.382,121.24 608.382,120.074 609.5,119C 613.152,118.501 616.818,118.335 620.5,118.5C 620.115,121.89 621.448,124.223 624.5,125.5C 626.395,126.973 628.061,128.64 629.5,130.5C 631.68,132.848 633.68,135.348 635.5,138C 633.573,140.078 631.906,142.244 630.5,144.5C 628.537,142.033 627.371,139.033 627,135.5C 626.821,138.553 626.321,141.553 625.5,144.5C 622.832,145.515 622.166,147.182 623.5,149.5C 624.27,147.728 625.603,146.728 627.5,146.5C 629.135,147.046 630.801,147.38 632.5,147.5C 632.238,148.978 632.571,150.311 633.5,151.5C 634.452,150.467 634.452,149.3 633.5,148C 633.836,146.97 634.503,146.47 635.5,146.5C 636.167,151.833 636.833,151.833 637.5,146.5C 637.5,145.5 637.5,144.5 637.5,143.5C 639.064,140.294 641.731,138.96 645.5,139.5C 647.698,139.12 649.365,139.787 650.5,141.5C 647.214,140.793 643.881,140.46 640.5,140.5C 641.829,149.833 637.829,154.499 628.5,154.5C 627.117,157.076 626.283,156.742 626,153.5C 624.156,155.171 623.49,157.171 624,159.5C 624.333,159.167 624.667,158.833 625,158.5C 625.49,159.793 625.657,161.127 625.5,162.5C 623.801,162.34 622.134,162.506 620.5,163C 627.209,166.65 627.043,170.15 620,173.5C 619.257,175.441 619.424,177.274 620.5,179C 619.552,179.483 618.552,179.649 617.5,179.5C 617.747,182.505 616.747,185.005 614.5,187C 614.957,187.414 615.291,187.914 615.5,188.5C 608.352,197.256 605.352,196.089 606.5,185C 607.469,183.242 608.636,182.742 610,183.5C 611.171,182.107 612.671,181.273 614.5,181C 615.126,180.25 615.626,179.416 616,178.5C 616.752,172.818 617.585,167.151 618.5,161.5C 618.392,160.558 618.059,159.725 617.5,159C 619.645,156.67 620.978,154.337 621.5,152C 620.216,151.316 619.049,151.483 618,152.5C 615.467,149.193 616.301,147.527 620.5,147.5C 620.384,144.14 620.051,140.807 619.5,137.5C 618.5,137.5 617.5,137.5 616.5,137.5C 616.617,135.516 615.95,133.85 614.5,132.5C 615.428,131.232 615.595,129.899 615,128.5C 611.883,126.716 608.55,125.383 605,124.5C 604.667,122.167 604.333,119.833 604,117.5C 600.914,115.998 600.748,114.331 603.5,112.5 Z"/></g>
<g><path style="opacity:1" fill="#817c69" d="M 635.5,146.5 C 636.167,146.5 636.833,146.5 637.5,146.5C 636.833,151.833 636.167,151.833 635.5,146.5 Z"/></g>
<g><path style="opacity:1" fill="#a7a188" d="M 630.5,144.5 C 630.369,145.376 630.702,146.043 631.5,146.5C 632.5,145.833 633.5,145.167 634.5,144.5C 635.298,144.957 635.631,145.624 635.5,146.5C 634.503,146.47 633.836,146.97 633.5,148C 634.452,149.3 634.452,150.467 633.5,151.5C 632.571,150.311 632.238,148.978 632.5,147.5C 630.801,147.38 629.135,147.046 627.5,146.5C 625.603,146.728 624.27,147.728 623.5,149.5C 622.166,147.182 622.832,145.515 625.5,144.5C 626.321,141.553 626.821,138.553 627,135.5C 627.371,139.033 628.537,142.033 630.5,144.5 Z"/></g>
<g><path style="opacity:1" fill="#8b8671" d="M 672.5,181.5 C 672.843,183.483 672.176,184.817 670.5,185.5C 670.989,184.005 671.655,182.671 672.5,181.5 Z"/></g>
<g><path style="opacity:1" fill="#4a483d" d="M 667.5,188.5 C 670.518,188.335 673.518,188.502 676.5,189C 677.444,191.719 677.777,194.552 677.5,197.5C 674.782,193.781 671.449,190.781 667.5,188.5 Z"/></g>
<g><path style="opacity:1" fill="#34322a" d="M 681.5,181.5 C 679.197,185.571 678.863,189.904 680.5,194.5C 680.5,197.833 680.5,201.167 680.5,204.5C 679.736,206.74 678.902,209.073 678,211.5C 677.51,210.207 677.343,208.873 677.5,207.5C 677.5,204.167 677.5,200.833 677.5,197.5C 677.777,194.552 677.444,191.719 676.5,189C 673.518,188.502 670.518,188.335 667.5,188.5C 666.2,187.399 665.7,186.066 666,184.5C 667.356,185.38 668.856,185.714 670.5,185.5C 672.176,184.817 672.843,183.483 672.5,181.5C 672.833,181.5 673.167,181.5 673.5,181.5C 675.954,181.679 678.121,181.013 680,179.5C 681.03,179.836 681.53,180.503 681.5,181.5 Z"/></g>
<g><path style="opacity:1" fill="#5c594b" d="M 680.5,194.5 C 681.21,199.702 681.876,205.035 682.5,210.5C 682.137,211.183 681.804,211.85 681.5,212.5C 680.539,216.335 679.705,220.335 679,224.5C 676.492,226.545 675.992,228.878 677.5,231.5C 677.5,231.833 677.5,232.167 677.5,232.5C 676.659,234.379 676.325,236.379 676.5,238.5C 675.5,238.5 674.5,238.5 673.5,238.5C 673.5,237.5 673.5,236.5 673.5,235.5C 672.021,228.888 673.688,223.221 678.5,218.5C 679.658,213.901 680.325,209.234 680.5,204.5C 680.5,201.167 680.5,197.833 680.5,194.5 Z"/></g>
<g><path style="opacity:1" fill="#403e34" d="M 680.5,204.5 C 680.325,209.234 679.658,213.901 678.5,218.5C 673.688,223.221 672.021,228.888 673.5,235.5C 672.883,235.389 672.383,235.056 672,234.5C 671.501,230.848 671.335,227.182 671.5,223.5C 670.5,223.5 669.5,223.5 668.5,223.5C 670.8,221.363 672.967,219.03 675,216.5C 675.406,213.258 676.239,210.258 677.5,207.5C 677.343,208.873 677.51,210.207 678,211.5C 678.902,209.073 679.736,206.74 680.5,204.5 Z"/></g>
<g><path style="opacity:1" fill="#86826d" d="M 662.5,222.5 C 661.624,222.369 660.957,222.702 660.5,223.5C 661.524,224.852 662.524,226.185 663.5,227.5C 663.167,227.5 662.833,227.5 662.5,227.5C 660.025,226.313 659.025,224.313 659.5,221.5C 660.791,221.263 661.791,221.596 662.5,222.5 Z"/></g>
<g><path style="opacity:1" fill="#918c76" d="M 662.5,222.5 C 664.435,223.15 666.435,223.483 668.5,223.5C 668.167,224.167 667.833,224.833 667.5,225.5C 665.326,225.25 663.659,224.25 662.5,222.5 Z"/></g>
<g><path style="opacity:1" fill="#bab397" d="M 681.5,212.5 C 681.012,215.711 681.679,218.544 683.5,221C 680.35,223.95 678.35,227.45 677.5,231.5C 675.992,228.878 676.492,226.545 679,224.5C 679.705,220.335 680.539,216.335 681.5,212.5 Z"/></g>
<g><path style="opacity:1" fill="#3a382f" d="M 662.5,222.5 C 663.659,224.25 665.326,225.25 667.5,225.5C 667.5,228.833 667.5,232.167 667.5,235.5C 667.167,235.5 666.833,235.5 666.5,235.5C 666.339,232.32 665.339,229.653 663.5,227.5C 662.524,226.185 661.524,224.852 660.5,223.5C 660.957,222.702 661.624,222.369 662.5,222.5 Z"/></g>
<g><path style="opacity:1" fill="#b3ad92" d="M 662.5,227.5 C 662.833,227.5 663.167,227.5 663.5,227.5C 665.339,229.653 666.339,232.32 666.5,235.5C 666.237,239.6 666.57,243.6 667.5,247.5C 666.125,240.886 664.458,234.219 662.5,227.5 Z"/></g>
<g><path style="opacity:1" fill="#a39d85" d="M 677.5,232.5 C 678.5,232.5 679.5,232.5 680.5,232.5C 680.141,234.766 680.808,236.599 682.5,238C 680.866,238.494 679.199,238.66 677.5,238.5C 677.5,239.833 677.5,241.167 677.5,242.5C 676.662,242.158 676.328,241.492 676.5,240.5C 676.5,239.833 676.5,239.167 676.5,238.5C 676.325,236.379 676.659,234.379 677.5,232.5 Z"/></g>
<g><path style="opacity:1" fill="#25241e" d="M 668.5,223.5 C 669.5,223.5 670.5,223.5 671.5,223.5C 671.335,227.182 671.501,230.848 672,234.5C 672.383,235.056 672.883,235.389 673.5,235.5C 673.5,236.5 673.5,237.5 673.5,238.5C 674.5,238.5 675.5,238.5 676.5,238.5C 676.5,239.167 676.5,239.833 676.5,240.5C 675.549,241.919 675.216,243.585 675.5,245.5C 675.5,246.167 675.5,246.833 675.5,247.5C 675.167,247.5 674.833,247.5 674.5,247.5C 673.842,248.398 673.176,249.398 672.5,250.5C 671.511,246.893 671.177,243.226 671.5,239.5C 669.801,239.473 668.467,238.806 667.5,237.5C 667.5,236.833 667.5,236.167 667.5,235.5C 667.5,232.167 667.5,228.833 667.5,225.5C 667.833,224.833 668.167,224.167 668.5,223.5 Z"/></g>
<g><path style="opacity:1" fill="#656252" d="M 676.5,240.5 C 676.328,241.492 676.662,242.158 677.5,242.5C 680.482,242.104 683.149,242.771 685.5,244.5C 682.232,245.487 678.898,245.82 675.5,245.5C 675.216,243.585 675.549,241.919 676.5,240.5 Z"/></g>
<g><path style="opacity:0.965" fill="#636051" d="M 666.5,235.5 C 666.833,235.5 667.167,235.5 667.5,235.5C 667.5,236.167 667.5,236.833 667.5,237.5C 667.5,240.167 667.5,242.833 667.5,245.5C 668.5,245.5 669.5,245.5 670.5,245.5C 670.969,248.393 669.969,250.393 667.5,251.5C 668.686,250.039 668.686,248.705 667.5,247.5C 666.57,243.6 666.237,239.6 666.5,235.5 Z"/></g>
<g><path style="opacity:1" fill="#e1d9b8" d="M 650.5,141.5 C 651.5,142.167 652.5,142.833 653.5,143.5C 654.5,145.167 655.833,146.5 657.5,147.5C 658.058,148.79 659.058,149.623 660.5,150C 659.978,150.561 659.645,151.228 659.5,152C 663.083,156.071 666.416,160.237 669.5,164.5C 670.686,165.961 670.686,167.295 669.5,168.5C 667.529,169.823 665.529,171.156 663.5,172.5C 664.95,176.339 665.95,176.339 666.5,172.5C 669.91,172.384 671.244,174.05 670.5,177.5C 672.786,177.595 674.786,178.262 676.5,179.5C 675.5,180.167 674.5,180.833 673.5,181.5C 673.167,181.5 672.833,181.5 672.5,181.5C 671.655,182.671 670.989,184.005 670.5,185.5C 668.856,185.714 667.356,185.38 666,184.5C 665.7,186.066 666.2,187.399 667.5,188.5C 671.449,190.781 674.782,193.781 677.5,197.5C 677.5,200.833 677.5,204.167 677.5,207.5C 676.239,210.258 675.406,213.258 675,216.5C 672.967,219.03 670.8,221.363 668.5,223.5C 666.435,223.483 664.435,223.15 662.5,222.5C 661.791,221.596 660.791,221.263 659.5,221.5C 659.025,224.313 660.025,226.313 662.5,227.5C 664.458,234.219 666.125,240.886 667.5,247.5C 668.686,248.705 668.686,250.039 667.5,251.5C 666.833,251.5 666.5,251.833 666.5,252.5C 664.833,252.5 663.167,252.5 661.5,252.5C 661.263,253.791 661.596,254.791 662.5,255.5C 662.5,256.833 662.5,258.167 662.5,259.5C 660.738,260.262 659.738,261.596 659.5,263.5C 659.167,263.5 658.833,263.5 658.5,263.5C 657.5,263.5 656.5,263.5 655.5,263.5C 655.5,262.833 655.5,262.167 655.5,261.5C 655.5,259.167 655.5,256.833 655.5,254.5C 653.833,254.5 652.167,254.5 650.5,254.5C 650.5,255.833 650.5,257.167 650.5,258.5C 648.076,258.192 645.743,258.526 643.5,259.5C 646.086,260.48 648.753,260.813 651.5,260.5C 651.5,260.833 651.5,261.167 651.5,261.5C 651.337,263.857 651.503,266.19 652,268.5C 656.046,269.555 657.546,272.221 656.5,276.5C 655.209,276.263 654.209,276.596 653.5,277.5C 656.066,283.179 656.066,288.845 653.5,294.5C 655.743,295.474 658.076,295.808 660.5,295.5C 661.167,295.5 661.833,295.5 662.5,295.5C 662.5,295.833 662.5,296.167 662.5,296.5C 662.167,298.5 661.833,300.5 661.5,302.5C 660.523,305.287 660.19,308.287 660.5,311.5C 659.5,311.5 658.5,311.5 657.5,311.5C 655.357,309.926 653.024,308.592 650.5,307.5C 649.321,302.162 649.321,296.828 650.5,291.5C 649.5,291.5 648.5,291.5 647.5,291.5C 646.558,296.805 646.391,302.139 647,307.5C 649.943,309.052 652.777,310.719 655.5,312.5C 657.148,314.456 657.815,316.789 657.5,319.5C 657.5,320.833 657.5,322.167 657.5,323.5C 653.734,325.43 650.734,328.264 648.5,332C 647.552,332.483 646.552,332.649 645.5,332.5C 644.4,331.395 643.733,330.062 643.5,328.5C 645.797,326.706 647.963,324.706 650,322.5C 650.617,321.551 650.451,320.718 649.5,320C 646.833,319.333 644.167,319.333 641.5,320C 638.674,322.565 635.507,323.065 632,321.5C 630.316,321.683 630.15,322.35 631.5,323.5C 630.414,323.38 629.747,322.713 629.5,321.5C 629.833,320.833 630.167,320.167 630.5,319.5C 632.818,319.033 634.985,319.033 637,319.5C 637.445,317.406 636.612,315.906 634.5,315C 634.957,314.586 635.291,314.086 635.5,313.5C 638.145,312.808 640.645,311.808 643,310.5C 644.08,312.996 645.414,315.33 647,317.5C 647.5,317 648,316.5 648.5,316C 646.18,312.515 643.513,309.349 640.5,306.5C 639.335,307.491 638.168,308.491 637,309.5C 635.946,308.518 635.446,307.351 635.5,306C 633.645,305.578 631.811,305.078 630,304.5C 627.991,305.482 627.491,306.815 628.5,308.5C 627.924,311.124 626.59,311.791 624.5,310.5C 623.548,308.955 623.215,307.288 623.5,305.5C 622.127,305.657 620.793,305.49 619.5,305C 615.755,301.798 611.421,299.631 606.5,298.5C 605.5,297.167 604.5,295.833 603.5,294.5C 604.167,294.167 604.833,293.833 605.5,293.5C 608.145,294.108 610.812,294.608 613.5,295C 614.743,296.154 615.743,297.488 616.5,299C 619.539,299.353 622.205,300.52 624.5,302.5C 627.131,300.995 626.797,300.329 623.5,300.5C 623.5,299.5 623.5,298.5 623.5,297.5C 628.485,299.716 633.818,301.382 639.5,302.5C 640.833,302.167 642.167,301.833 643.5,301.5C 642.754,300.264 642.421,298.93 642.5,297.5C 640.856,297.286 639.356,297.62 638,298.5C 636.68,296.793 635.68,295.126 635,293.5C 638.694,293.521 642.527,293.855 646.5,294.5C 646.773,292.549 646.107,291.049 644.5,290C 644.583,286.638 644.75,283.138 645,279.5C 645.216,281.384 645.883,283.051 647,284.5C 648.319,282.513 650.152,281.346 652.5,281C 650.665,280.072 650.332,278.906 651.5,277.5C 650.398,276.824 649.398,276.158 648.5,275.5C 645.429,275.077 642.595,274.077 640,272.5C 637.985,274.478 638.152,276.312 640.5,278C 638.751,279.292 636.918,280.458 635,281.5C 634.689,282.742 635.189,283.742 636.5,284.5C 634.979,287.054 633.646,289.721 632.5,292.5C 630.931,291.286 630.098,289.619 630,287.5C 629.192,283.973 629.359,280.64 630.5,277.5C 630.799,275.396 630.466,273.396 629.5,271.5C 626.204,270.235 622.871,269.068 619.5,268C 614.47,267.97 609.47,268.47 604.5,269.5C 600.042,268.707 597.708,266.041 597.5,261.5C 600.304,260.895 602.971,260.062 605.5,259C 603.928,255.426 601.595,252.426 598.5,250C 601.61,248.149 604.61,246.149 607.5,244C 608.899,243.405 610.232,243.572 611.5,244.5C 613.003,243.41 613.336,242.243 612.5,241C 613,240.833 613.5,240.667 614,240.5C 615.171,241.34 616.338,242.173 617.5,243C 616.483,244.049 616.316,245.216 617,246.5C 621.69,252.239 627.69,253.905 635,251.5C 638.852,252.783 642.519,254.45 646,256.5C 647.872,253.811 650.372,251.811 653.5,250.5C 654.914,251.624 656.414,252.624 658,253.5C 658.667,252.5 658.667,251.5 658,250.5C 653.726,246.059 650.226,246.559 647.5,252C 642.03,253.836 640.03,252.17 641.5,247C 638.613,243.826 639.279,241.659 643.5,240.5C 642.687,239.186 641.687,238.019 640.5,237C 641.167,236.333 641.833,235.667 642.5,235C 644.937,235.203 647.271,236.037 649.5,237.5C 650.333,240.5 651.167,243.5 652,246.5C 652.711,243.121 654.878,241.621 658.5,242C 660.575,240.419 660.575,238.585 658.5,236.5C 655.944,235.949 653.611,234.949 651.5,233.5C 646.786,235.133 643.12,233.8 640.5,229.5C 637.821,229.327 635.487,228.327 633.5,226.5C 628.968,223.716 626.301,220.049 625.5,215.5C 628.33,217.835 631.497,219.502 635,220.5C 636.724,220.045 638.224,219.212 639.5,218C 636.354,215.688 633.354,213.188 630.5,210.5C 632.421,209.359 634.421,209.192 636.5,210C 639.199,212.35 642.199,214.35 645.5,216C 651.305,216.573 656.971,217.74 662.5,219.5C 665.394,217.179 668.727,216.012 672.5,216C 671.774,214.603 670.607,213.769 669,213.5C 665.617,215.265 662.117,216.431 658.5,217C 657.521,215.221 657.854,213.555 659.5,212C 661.81,211.503 664.143,211.337 666.5,211.5C 666.268,206.386 667.268,201.552 669.5,197C 667.502,193.957 665.169,193.79 662.5,196.5C 660.676,194.511 658.676,192.677 656.5,191C 658.594,189.648 660.927,189.148 663.5,189.5C 662.576,184.245 659.576,180.912 654.5,179.5C 654.5,178.5 654.5,177.5 654.5,176.5C 656.288,176.215 657.955,176.548 659.5,177.5C 660.167,178.833 661.167,179.833 662.5,180.5C 663.521,179.998 663.688,179.332 663,178.5C 659.813,175.119 655.813,173.452 651,173.5C 650.235,173.57 649.735,173.903 649.5,174.5C 648.172,173.09 648.505,171.924 650.5,171C 649.672,170.085 648.672,169.419 647.5,169C 648.047,168.075 648.713,167.242 649.5,166.5C 650.967,167.695 652.467,167.695 654,166.5C 655.52,167.697 656.687,169.197 657.5,171C 658.872,171.402 660.205,171.902 661.5,172.5C 662.711,171.726 662.711,170.893 661.5,170C 664.455,170.745 666.122,169.412 666.5,166C 664.7,161.7 661.7,158.533 657.5,156.5C 656.948,154.667 656.115,153 655,151.5C 654.586,151.957 654.086,152.291 653.5,152.5C 651.057,150.945 648.39,150.278 645.5,150.5C 645.5,149.5 645.5,148.5 645.5,147.5C 648.57,146.757 650.236,144.757 650.5,141.5 Z"/></g>
<g><path style="opacity:1" fill="#797463" d="M 640.5,229.5 C 640.586,228.504 640.252,227.671 639.5,227C 640.5,226.833 641.5,226.667 642.5,226.5C 647.717,228.472 653.05,230.139 658.5,231.5C 657.667,231.833 656.833,232.167 656,232.5C 650.846,231.133 645.679,230.133 640.5,229.5 Z"/></g>
<g><path style="opacity:1" fill="#e0d8b7" d="M 683.5,179.5 C 683.421,181.666 682.754,183.666 681.5,185.5C 682.108,188.145 682.608,190.812 683,193.5C 685.064,192.409 687.231,192.242 689.5,193C 692.295,194.625 694.962,196.459 697.5,198.5C 694.554,199.321 691.554,199.321 688.5,198.5C 686.548,203.322 684.882,208.155 683.5,213C 684.475,218.015 686.142,223.015 688.5,228C 687.269,229.183 687.269,230.349 688.5,231.5C 689.684,229.954 690.684,228.287 691.5,226.5C 693.955,229.132 696.288,231.965 698.5,235C 698.167,235.333 697.833,235.667 697.5,236C 699.218,236.346 700.885,236.846 702.5,237.5C 704.409,236.652 706.409,236.318 708.5,236.5C 708.421,237.93 708.754,239.264 709.5,240.5C 716.167,241.167 722.833,241.833 729.5,242.5C 729.333,242.833 729.167,243.167 729,243.5C 723.544,244.478 718.044,244.645 712.5,244C 710.311,246.568 707.811,248.735 705,250.5C 704.275,248.842 703.108,248.342 701.5,249C 701.499,250.399 701.165,251.899 700.5,253.5C 699.386,254.776 698.386,254.776 697.5,253.5C 695.857,253.52 694.524,252.853 693.5,251.5C 693.167,252 692.833,252.5 692.5,253C 695.675,255.843 698.509,259.01 701,262.5C 705.537,258.897 709.703,259.063 713.5,263C 716.866,262.559 720.2,262.726 723.5,263.5C 725.111,262.68 725.778,261.346 725.5,259.5C 729.409,258.737 730.742,260.07 729.5,263.5C 731.075,264.446 732.742,264.446 734.5,263.5C 738.378,265.401 738.378,267.234 734.5,269C 730.83,269.548 727.163,270.048 723.5,270.5C 723.5,269.167 723.5,267.833 723.5,266.5C 718.224,266.673 713.057,266.006 708,264.5C 706.08,264.938 704.246,265.605 702.5,266.5C 702.461,270.529 702.461,274.529 702.5,278.5C 699.418,279.13 696.418,280.13 693.5,281.5C 694.973,283.395 696.64,285.061 698.5,286.5C 697.948,288.333 697.115,290 696,291.5C 693.459,289.437 690.625,288.103 687.5,287.5C 687.5,286.5 687.5,285.5 687.5,284.5C 686.167,284.5 684.833,284.5 683.5,284.5C 683.067,287.166 682.567,289.832 682,292.5C 680.868,290.661 680.035,288.661 679.5,286.5C 676.231,285.45 673.064,285.784 670,287.5C 669.667,286.167 669.333,284.833 669,283.5C 668.218,286.257 668.718,288.757 670.5,291C 666.918,292.316 666.918,293.983 670.5,296C 668.808,297.401 668.141,299.234 668.5,301.5C 667.5,301.5 666.5,301.5 665.5,301.5C 665.156,307.678 664.489,313.678 663.5,319.5C 663.207,312.745 663.54,306.078 664.5,299.5C 664.366,297.708 664.699,296.042 665.5,294.5C 667.157,291.911 667.491,289.244 666.5,286.5C 666.5,284.167 666.5,281.833 666.5,279.5C 667.309,277.972 667.976,276.306 668.5,274.5C 673.517,275.503 678.517,275.503 683.5,274.5C 685.721,272.627 687.054,270.293 687.5,267.5C 687.89,265.018 686.89,263.685 684.5,263.5C 680.759,264.401 678.759,263.068 678.5,259.5C 678.66,257.847 679.326,256.514 680.5,255.5C 681.451,254.081 681.784,252.415 681.5,250.5C 679.5,250.5 677.5,250.5 675.5,250.5C 675.5,249.5 675.5,248.5 675.5,247.5C 675.5,246.833 675.5,246.167 675.5,245.5C 678.898,245.82 682.232,245.487 685.5,244.5C 683.149,242.771 680.482,242.104 677.5,242.5C 677.5,241.167 677.5,239.833 677.5,238.5C 679.199,238.66 680.866,238.494 682.5,238C 680.808,236.599 680.141,234.766 680.5,232.5C 679.5,232.5 678.5,232.5 677.5,232.5C 677.5,232.167 677.5,231.833 677.5,231.5C 678.35,227.45 680.35,223.95 683.5,221C 681.679,218.544 681.012,215.711 681.5,212.5C 681.804,211.85 682.137,211.183 682.5,210.5C 681.876,205.035 681.21,199.702 680.5,194.5C 678.863,189.904 679.197,185.571 681.5,181.5C 682.167,180.833 682.833,180.167 683.5,179.5 Z"/></g>
<g><path style="opacity:1" fill="#a49e86" d="M 697.5,253.5 C 695.796,250.407 693.129,248.74 689.5,248.5C 691.421,247.359 693.421,247.192 695.5,248C 696.833,249.667 698.167,251.333 699.5,253C 698.906,253.464 698.239,253.631 697.5,253.5 Z"/></g>
<g><path style="opacity:1" fill="#8d8873" d="M 674.5,247.5 C 674.833,247.5 675.167,247.5 675.5,247.5C 675.5,248.5 675.5,249.5 675.5,250.5C 677.5,250.5 679.5,250.5 681.5,250.5C 681.784,252.415 681.451,254.081 680.5,255.5C 680.5,254.5 680.5,253.5 680.5,252.5C 679.167,252.5 677.833,252.5 676.5,252.5C 675.032,251.221 674.365,249.554 674.5,247.5 Z"/></g>
<g><path style="opacity:1" fill="#37352d" d="M 667.5,237.5 C 668.467,238.806 669.801,239.473 671.5,239.5C 671.177,243.226 671.511,246.893 672.5,250.5C 673.176,249.398 673.842,248.398 674.5,247.5C 674.365,249.554 675.032,251.221 676.5,252.5C 676.5,255.167 676.5,257.833 676.5,260.5C 675.5,260.5 674.5,260.5 673.5,260.5C 673.62,257.795 672.62,257.128 670.5,258.5C 669.749,257.624 669.249,256.624 669,255.5C 668.333,256.833 667.667,256.833 667,255.5C 666.517,254.552 666.351,253.552 666.5,252.5C 666.5,251.833 666.833,251.5 667.5,251.5C 669.969,250.393 670.969,248.393 670.5,245.5C 669.5,245.5 668.5,245.5 667.5,245.5C 667.5,242.833 667.5,240.167 667.5,237.5 Z"/></g>
<g><path style="opacity:1" fill="#847f6b" d="M 662.5,255.5 C 664.179,255.285 665.179,255.952 665.5,257.5C 664.222,257.782 663.222,258.449 662.5,259.5C 662.5,258.167 662.5,256.833 662.5,255.5 Z"/></g>
<g><path style="opacity:1" fill="#635f50" d="M 666.5,252.5 C 666.351,253.552 666.517,254.552 667,255.5C 667.667,256.833 668.333,256.833 669,255.5C 669.249,256.624 669.749,257.624 670.5,258.5C 672.62,257.128 673.62,257.795 673.5,260.5C 674.5,260.5 675.5,260.5 676.5,260.5C 676.5,257.833 676.5,255.167 676.5,252.5C 677.833,252.5 679.167,252.5 680.5,252.5C 680.5,253.5 680.5,254.5 680.5,255.5C 679.326,256.514 678.66,257.847 678.5,259.5C 677.448,260.53 676.114,261.197 674.5,261.5C 672.223,260.522 669.89,259.855 667.5,259.5C 667.5,258.167 666.833,257.5 665.5,257.5C 665.179,255.952 664.179,255.285 662.5,255.5C 661.596,254.791 661.263,253.791 661.5,252.5C 663.167,252.5 664.833,252.5 666.5,252.5 Z"/></g>
<g><path style="opacity:1" fill="#aea88e" d="M 655.5,261.5 C 654.414,261.38 653.747,260.713 653.5,259.5C 654.309,258.014 654.309,256.681 653.5,255.5C 651.783,256.668 651.116,258.335 651.5,260.5C 648.753,260.813 646.086,260.48 643.5,259.5C 645.743,258.526 648.076,258.192 650.5,258.5C 650.5,257.167 650.5,255.833 650.5,254.5C 652.167,254.5 653.833,254.5 655.5,254.5C 655.5,256.833 655.5,259.167 655.5,261.5 Z"/></g>
<g><path style="opacity:1" fill="#b5af94" d="M 667.5,259.5 C 669.89,259.855 672.223,260.522 674.5,261.5C 676.114,261.197 677.448,260.53 678.5,259.5C 678.759,263.068 680.759,264.401 684.5,263.5C 684.5,265.5 684.5,267.5 684.5,269.5C 680.818,269.555 677.485,270.555 674.5,272.5C 674.5,270.833 674.5,269.167 674.5,267.5C 672.901,267.768 671.568,267.434 670.5,266.5C 672.355,266.728 673.188,266.061 673,264.5C 671.301,263.594 669.467,263.261 667.5,263.5C 667.5,262.167 667.5,260.833 667.5,259.5 Z"/></g>
<g><path style="opacity:1" fill="#514e41" d="M 655.5,261.5 C 655.5,262.167 655.5,262.833 655.5,263.5C 655.44,264.043 655.107,264.376 654.5,264.5C 653.712,263.23 652.712,262.23 651.5,261.5C 651.5,261.167 651.5,260.833 651.5,260.5C 651.116,258.335 651.783,256.668 653.5,255.5C 654.309,256.681 654.309,258.014 653.5,259.5C 653.747,260.713 654.414,261.38 655.5,261.5 Z"/></g>
<g><path style="opacity:1" fill="#b5ae93" d="M 657.5,265.5 C 657.5,266.5 657.5,267.5 657.5,268.5C 655.654,268.778 654.32,268.111 653.5,266.5C 654.689,265.571 656.022,265.238 657.5,265.5 Z"/></g>
<g><path style="opacity:0.859" fill="#7b7764" d="M 669.5,265.5 C 668.523,268.287 668.19,271.287 668.5,274.5C 667.976,276.306 667.309,277.972 666.5,279.5C 666.837,274.462 667.504,269.462 668.5,264.5C 669.107,264.624 669.44,264.957 669.5,265.5 Z"/></g>
<g><path style="opacity:1" fill="#cec7a8" d="M 684.5,263.5 C 686.89,263.685 687.89,265.018 687.5,267.5C 687.054,270.293 685.721,272.627 683.5,274.5C 678.517,275.503 673.517,275.503 668.5,274.5C 668.19,271.287 668.523,268.287 669.5,265.5C 670.167,265.5 670.5,265.833 670.5,266.5C 671.568,267.434 672.901,267.768 674.5,267.5C 674.5,269.167 674.5,270.833 674.5,272.5C 677.485,270.555 680.818,269.555 684.5,269.5C 684.5,267.5 684.5,265.5 684.5,263.5 Z"/></g>
<g><path style="opacity:1" fill="#a9a38a" d="M 648.5,275.5 C 647.665,274.057 646.332,273.057 644.5,272.5C 645.167,271.167 646.167,270.167 647.5,269.5C 648.752,271.001 649.752,272.668 650.5,274.5C 650.043,275.298 649.376,275.631 648.5,275.5 Z"/></g>
<g><path style="opacity:1" fill="#bfb89c" d="M 630.5,277.5 C 631.833,276.067 633.333,274.733 635,273.5C 635.192,271.423 635.692,269.423 636.5,267.5C 638.362,271.405 637.528,274.405 634,276.5C 633.502,279.817 633.335,283.15 633.5,286.5C 632.5,286.5 631.5,286.5 630.5,286.5C 630.5,283.5 630.5,280.5 630.5,277.5 Z"/></g>
<g><path style="opacity:1" fill="#2b2923" d="M 665.5,289.5 C 665.5,291.167 665.5,292.833 665.5,294.5C 664.699,296.042 664.366,297.708 664.5,299.5C 663.833,298.5 663.167,297.5 662.5,296.5C 662.5,296.167 662.5,295.833 662.5,295.5C 661.375,290.899 661.375,286.232 662.5,281.5C 662.415,279.667 661.748,278.334 660.5,277.5C 659.504,277.586 658.671,277.252 658,276.5C 657.503,273.854 657.336,271.187 657.5,268.5C 657.5,267.5 657.5,266.5 657.5,265.5C 658.338,265.158 658.672,264.492 658.5,263.5C 658.833,263.5 659.167,263.5 659.5,263.5C 660.15,263.196 660.817,262.863 661.5,262.5C 665.079,270.968 666.412,279.968 665.5,289.5 Z"/></g>
<g><path style="opacity:1" fill="#757160" d="M 651.5,261.5 C 652.712,262.23 653.712,263.23 654.5,264.5C 655.107,264.376 655.44,264.043 655.5,263.5C 656.5,263.5 657.5,263.5 658.5,263.5C 658.672,264.492 658.338,265.158 657.5,265.5C 656.022,265.238 654.689,265.571 653.5,266.5C 654.32,268.111 655.654,268.778 657.5,268.5C 657.336,271.187 657.503,273.854 658,276.5C 658.671,277.252 659.504,277.586 660.5,277.5C 661.714,279.808 661.714,282.141 660.5,284.5C 659.575,283.359 658.741,283.359 658,284.5C 657.503,287.146 657.336,289.813 657.5,292.5C 656.674,288.018 656.174,283.351 656,278.5C 655.329,277.748 654.496,277.414 653.5,277.5C 654.209,276.596 655.209,276.263 656.5,276.5C 657.546,272.221 656.046,269.555 652,268.5C 651.503,266.19 651.337,263.857 651.5,261.5 Z"/></g>
<g><path style="opacity:0.941" fill="#514e42" d="M 665.5,257.5 C 666.833,257.5 667.5,258.167 667.5,259.5C 667.5,260.833 667.5,262.167 667.5,263.5C 669.467,263.261 671.301,263.594 673,264.5C 673.188,266.061 672.355,266.728 670.5,266.5C 670.5,265.833 670.167,265.5 669.5,265.5C 669.44,264.957 669.107,264.624 668.5,264.5C 667.504,269.462 666.837,274.462 666.5,279.5C 666.5,281.833 666.5,284.167 666.5,286.5C 666.737,287.791 666.404,288.791 665.5,289.5C 666.412,279.968 665.079,270.968 661.5,262.5C 660.817,262.863 660.15,263.196 659.5,263.5C 659.738,261.596 660.738,260.262 662.5,259.5C 663.222,258.449 664.222,257.782 665.5,257.5 Z"/></g>
<g><path style="opacity:1" fill="#beb79b" d="M 653.5,277.5 C 654.496,277.414 655.329,277.748 656,278.5C 656.174,283.351 656.674,288.018 657.5,292.5C 658.694,293.272 659.694,294.272 660.5,295.5C 658.076,295.808 655.743,295.474 653.5,294.5C 656.066,288.845 656.066,283.179 653.5,277.5 Z"/></g>
<g><path style="opacity:1" fill="#9b957e" d="M 666.5,286.5 C 667.491,289.244 667.157,291.911 665.5,294.5C 665.5,292.833 665.5,291.167 665.5,289.5C 666.404,288.791 666.737,287.791 666.5,286.5 Z"/></g>
<g><path style="opacity:1" fill="#3f3d34" d="M 660.5,277.5 C 661.748,278.334 662.415,279.667 662.5,281.5C 661.375,286.232 661.375,290.899 662.5,295.5C 661.833,295.5 661.167,295.5 660.5,295.5C 659.694,294.272 658.694,293.272 657.5,292.5C 657.336,289.813 657.503,287.146 658,284.5C 658.741,283.359 659.575,283.359 660.5,284.5C 661.714,282.141 661.714,279.808 660.5,277.5 Z"/></g>
<g><path style="opacity:1" fill="#7b7664" d="M 657.5,311.5 C 657.158,312.338 656.492,312.672 655.5,312.5C 652.777,310.719 649.943,309.052 647,307.5C 646.391,302.139 646.558,296.805 647.5,291.5C 648.5,291.5 649.5,291.5 650.5,291.5C 649.321,296.828 649.321,302.162 650.5,307.5C 653.024,308.592 655.357,309.926 657.5,311.5 Z"/></g>
<g><path style="opacity:1" fill="#aea88e" d="M 661.5,302.5 C 661.5,305.833 661.5,309.167 661.5,312.5C 660.5,312.5 659.5,312.5 658.5,312.5C 658.5,314.833 658.5,317.167 658.5,319.5C 658.167,319.5 657.833,319.5 657.5,319.5C 657.815,316.789 657.148,314.456 655.5,312.5C 656.492,312.672 657.158,312.338 657.5,311.5C 658.5,311.5 659.5,311.5 660.5,311.5C 660.19,308.287 660.523,305.287 661.5,302.5 Z"/></g>
<g><path style="opacity:0.933" fill="#282621" d="M 661.5,319.5 C 661.5,319.833 661.5,320.167 661.5,320.5C 660.778,320.918 660.278,321.584 660,322.5C 659.179,319.446 659.345,316.446 660.5,313.5C 661.466,315.396 661.799,317.396 661.5,319.5 Z"/></g>
<g><path style="opacity:1" fill="#b8b296" d="M 643.5,328.5 C 641.804,326.871 640.804,327.204 640.5,329.5C 638.821,329.715 637.821,329.048 637.5,327.5C 638.867,325.907 638.534,324.574 636.5,323.5C 635.702,323.957 635.369,324.624 635.5,325.5C 632.91,326.128 630.577,327.295 628.5,329C 624.074,329.791 619.741,329.457 615.5,328C 614.289,327.107 614.289,326.274 615.5,325.5C 621.565,328.646 626.898,327.979 631.5,323.5C 630.15,322.35 630.316,321.683 632,321.5C 635.507,323.065 638.674,322.565 641.5,320C 644.167,319.333 646.833,319.333 649.5,320C 650.451,320.718 650.617,321.551 650,322.5C 647.963,324.706 645.797,326.706 643.5,328.5 Z"/></g>
<g><path style="opacity:0.886" fill="#74705f" d="M 657.5,319.5 C 657.833,319.5 658.167,319.5 658.5,319.5C 658.34,321.199 658.506,322.866 659,324.5C 661.4,326.729 663.567,329.063 665.5,331.5C 663.901,331.768 662.568,331.434 661.5,330.5C 660.167,328.167 658.833,325.833 657.5,323.5C 657.5,322.167 657.5,320.833 657.5,319.5 Z"/></g>
<g><path style="opacity:1" fill="#504d41" d="M 637.5,327.5 C 636.833,326.833 636.167,326.167 635.5,325.5C 635.369,324.624 635.702,323.957 636.5,323.5C 638.534,324.574 638.867,325.907 637.5,327.5 Z"/></g>
<g><path style="opacity:1" fill="#c9c2a4" d="M 657.5,323.5 C 658.833,325.833 660.167,328.167 661.5,330.5C 659.088,330.244 657.421,331.244 656.5,333.5C 656.97,334.463 657.637,334.463 658.5,333.5C 658.107,336.416 657.107,339.083 655.5,341.5C 654.534,339.604 654.201,337.604 654.5,335.5C 650.629,335.815 646.962,335.482 643.5,334.5C 644.833,334.5 645.5,333.833 645.5,332.5C 646.552,332.649 647.552,332.483 648.5,332C 650.734,328.264 653.734,325.43 657.5,323.5 Z"/></g>
<g><path style="opacity:1" fill="#9e9880" d="M 661.5,330.5 C 662.568,331.434 663.901,331.768 665.5,331.5C 666.167,331.5 666.5,331.833 666.5,332.5C 663.721,332.279 661.054,332.612 658.5,333.5C 657.637,334.463 656.97,334.463 656.5,333.5C 657.421,331.244 659.088,330.244 661.5,330.5 Z"/></g>
<g><path style="opacity:1" fill="#7c7765" d="M 643.5,328.5 C 643.733,330.062 644.4,331.395 645.5,332.5C 645.5,333.833 644.833,334.5 643.5,334.5C 643.25,332.326 642.25,330.659 640.5,329.5C 640.804,327.204 641.804,326.871 643.5,328.5 Z"/></g>
<g><path style="opacity:1" fill="#464439" d="M 662.5,296.5 C 663.167,297.5 663.833,298.5 664.5,299.5C 663.54,306.078 663.207,312.745 663.5,319.5C 662.833,319.5 662.167,319.5 661.5,319.5C 661.799,317.396 661.466,315.396 660.5,313.5C 659.345,316.446 659.179,319.446 660,322.5C 660.278,321.584 660.778,320.918 661.5,320.5C 661.343,321.873 661.51,323.207 662,324.5C 669.354,328.692 674.854,334.692 678.5,342.5C 679.325,343.386 680.325,343.719 681.5,343.5C 682.338,343.842 682.672,344.508 682.5,345.5C 682.799,347.604 682.466,349.604 681.5,351.5C 680.16,350.133 678.827,348.8 677.5,347.5C 677.573,345.973 676.906,344.973 675.5,344.5C 673.936,339.348 670.936,335.348 666.5,332.5C 666.5,331.833 666.167,331.5 665.5,331.5C 663.567,329.063 661.4,326.729 659,324.5C 658.506,322.866 658.34,321.199 658.5,319.5C 658.5,317.167 658.5,314.833 658.5,312.5C 659.5,312.5 660.5,312.5 661.5,312.5C 661.5,309.167 661.5,305.833 661.5,302.5C 661.833,300.5 662.167,298.5 662.5,296.5 Z"/></g>
<g><path style="opacity:1" fill="#908b75" d="M 683.5,345.5 C 683.167,345.5 682.833,345.5 682.5,345.5C 682.672,344.508 682.338,343.842 681.5,343.5C 681.383,341.516 682.05,339.85 683.5,338.5C 686.527,336.14 689.194,333.473 691.5,330.5C 690.821,334.73 688.321,338.063 684,340.5C 683.506,342.134 683.34,343.801 683.5,345.5 Z"/></g>
<g><path style="opacity:0.839" fill="#8b8772" d="M 675.5,344.5 C 676.906,344.973 677.573,345.973 677.5,347.5C 676.094,347.027 675.427,346.027 675.5,344.5 Z"/></g>
<g><path style="opacity:0.971" fill="#6d6a59" d="M 682.5,345.5 C 682.833,345.5 683.167,345.5 683.5,345.5C 683.441,348.964 684.108,352.297 685.5,355.5C 685.167,356.5 684.833,357.5 684.5,358.5C 680.911,355.66 678.577,351.993 677.5,347.5C 678.827,348.8 680.16,350.133 681.5,351.5C 682.466,349.604 682.799,347.604 682.5,345.5 Z"/></g>
<g><path style="opacity:0.886" fill="#757260" d="M 689.5,356.5 C 692.756,360.081 696.423,363.414 700.5,366.5C 699.635,367.583 698.635,367.749 697.5,367C 695.597,364.595 693.264,362.761 690.5,361.5C 689.548,359.955 689.215,358.288 689.5,356.5 Z"/></g>
</svg>
